<?xml version="1.0" encoding="UTF-8"?>
<svg id="_圖層_2" data-name="圖層 2" xmlns="http://www.w3.org/2000/svg" xmlns:xlink="http://www.w3.org/1999/xlink" viewBox="0 0 255.35 153.07">
  <defs>
    <style>
      .cls-1 {
        fill: #f7f8f8;
      }

      .cls-1, .cls-2, .cls-3, .cls-4, .cls-5 {
        fill-rule: evenodd;
      }

      .cls-2 {
        fill: #fff;
      }

      .cls-3 {
        fill: #d5ead8;
      }

      .cls-4 {
        fill: #004b9b;
      }

      .cls-6 {
        fill: #231815;
      }

      .cls-7 {
        clip-rule: evenodd;
        fill: none;
      }

      .cls-5 {
        fill: #098d44;
      }

      .cls-8 {
        fill: #f4f4f4;
      }

      .cls-9 {
        clip-path: url(#clippath);
      }
    </style>
    <clipPath id="clippath">
      <path class="cls-7" d="M15.31,0h239.81v137.76c0,8.42-6.89,15.31-15.31,15.31H0V15.31C0,6.89,6.89,0,15.31,0h0Z"/>
    </clipPath>
  </defs>
  <g id="_图层_1" data-name="图层 1">
    <g>
      <path class="cls-2" d="M15.31,0h239.81v137.76c0,8.42-6.89,15.31-15.31,15.31H0V15.31C0,6.89,6.89,0,15.31,0h0Z"/>
      <g class="cls-9">
        <path class="cls-8" d="M174.36,113.09s.02.01.02.02c0,.01,0,.02-.02.02s-.02-.01-.02-.02c0-.01,0-.02.02-.02h0Z"/>
        <path class="cls-8" d="M167.47,111.52s.02.01.02.02,0,.02-.02.02c-.01,0-.02-.01-.02-.02s0-.02.02-.02h0Z"/>
        <path class="cls-8" d="M161.94,115.93s.02,0,.02.02c0,.01,0,.02-.02.02s-.02,0-.02-.02c0-.01,0-.02.02-.02h0Z"/>
        <path class="cls-8" d="M161.94,123s.02.01.02.02,0,.02-.02.02-.02-.01-.02-.02,0-.02.02-.02h0Z"/>
        <path class="cls-8" d="M179.44,106.72s.02.01.02.02c0,.01,0,.02-.02.02-.01,0-.02,0-.02-.02,0-.01,0-.02.02-.02h0Z"/>
        <path class="cls-8" d="M172.91,103.57s.02,0,.02.02c0,.01,0,.02-.02.02s-.02,0-.02-.02c0-.01,0-.02.02-.02h0Z"/>
        <path class="cls-8" d="M165.66,103.55s.04.02.04.04c0,.03-.02.05-.04.05s-.05-.02-.05-.05c0-.02.02-.04.05-.04h0Z"/>
        <path class="cls-8" d="M159.12,106.7s.05.02.05.04c0,.02-.02.05-.05.05s-.04-.02-.04-.05c0-.03.02-.04.04-.04h0Z"/>
        <path class="cls-8" d="M154.6,112.37s.04.02.04.05-.02.05-.04.05-.04-.02-.04-.05.02-.05.04-.05h0Z"/>
        <path class="cls-8" d="M152.98,119.44s.05.02.05.04c0,.02-.02.04-.05.04-.02,0-.04-.02-.04-.04,0-.03.02-.04.04-.04h0Z"/>
        <path class="cls-8" d="M154.6,126.53s.02,0,.02.02c0,.01,0,.02-.02.02s-.02,0-.02-.02c0-.01,0-.02.02-.02h0Z"/>
        <path class="cls-8" d="M184.53,100.35s.02,0,.02.02c0,.01,0,.02-.02.02s-.02,0-.02-.02c0-.01,0-.02.02-.02h0Z"/>
        <path class="cls-8" d="M178.21,96.7s.02,0,.02.02c0,.01,0,.02-.02.02-.01,0-.02,0-.02-.02,0-.01.01-.02.02-.02h0Z"/>
        <path class="cls-8" d="M171.11,95.06s.04.02.04.04-.02.05-.04.05-.04-.02-.04-.05.02-.04.04-.04h0Z"/>
        <path class="cls-8" d="M163.84,95.58s.07.03.07.07-.03.07-.07.07-.07-.03-.07-.07.03-.07.07-.07h0Z"/>
        <path class="cls-8" d="M157.06,98.24s.07.03.07.07c0,.04-.03.07-.07.07-.04,0-.07-.03-.07-.07s.03-.07.07-.07h0Z"/>
        <path class="cls-8" d="M151.36,102.77c.05,0,.09.04.09.09s-.04.09-.09.09-.09-.04-.09-.09.04-.09.09-.09h0Z"/>
        <path class="cls-8" d="M147.26,108.81s.07.03.07.07c0,.04-.03.07-.07.07s-.07-.03-.07-.07c0-.04.03-.07.07-.07h0Z"/>
        <path class="cls-8" d="M145.11,115.77s.07.03.07.07-.03.07-.07.07-.07-.03-.07-.07.03-.07.07-.07h0Z"/>
        <path class="cls-8" d="M145.11,123.08s.04.02.04.04-.02.05-.04.05-.05-.02-.05-.05.02-.04.05-.04h0Z"/>
        <path class="cls-8" d="M147.26,130.07s.02.01.02.02c0,.01-.01.02-.02.02-.01,0-.02,0-.02-.02,0-.01,0-.02.02-.02h0Z"/>
        <path class="cls-8" d="M151.36,136.09s.02,0,.02.02c0,.01,0,.02-.02.02-.01,0-.02,0-.02-.02,0-.01,0-.02.02-.02h0Z"/>
        <path class="cls-8" d="M189.61,93.98s.02,0,.02.02c0,.01,0,.02-.02.02-.01,0-.02,0-.02-.02,0-.01,0-.02.02-.02h0Z"/>
        <path class="cls-8" d="M183.43,90.09s.02.01.02.02c0,.01,0,.02-.02.02-.01,0-.02,0-.02-.02,0-.01,0-.02.02-.02h0Z"/>
        <path class="cls-8" d="M176.54,87.66s.05.02.05.05c0,.02-.02.04-.05.04-.02,0-.04-.02-.04-.04,0-.03.02-.05.04-.05h0Z"/>
        <path class="cls-8" d="M169.28,86.82s.07.03.07.07-.03.07-.07.07-.07-.03-.07-.07.03-.07.07-.07h0Z"/>
        <path class="cls-8" d="M162.03,87.61s.09.04.09.09-.04.09-.09.09-.09-.04-.09-.09.04-.09.09-.09h0Z"/>
        <path class="cls-8" d="M155.14,90c.06,0,.11.05.11.11s-.05.11-.11.11-.11-.05-.11-.11.05-.11.11-.11h0Z"/>
        <path class="cls-8" d="M148.96,93.89c.06,0,.11.05.11.11s-.05.11-.11.11-.11-.05-.11-.11.05-.11.11-.11h0Z"/>
        <path class="cls-8" d="M143.8,99.05c.06,0,.11.05.11.11s-.05.11-.11.11-.11-.05-.11-.11.05-.11.11-.11h0Z"/>
        <path class="cls-8" d="M139.92,105.23c.06,0,.11.05.11.11s-.05.11-.11.11-.11-.05-.11-.11.05-.11.11-.11h0Z"/>
        <path class="cls-8" d="M137.5,112.14s.09.04.09.09-.04.09-.09.09-.09-.04-.09-.09.04-.09.09-.09h0Z"/>
        <path class="cls-8" d="M136.69,119.42s.07.03.07.07-.03.07-.07.07-.07-.03-.07-.07.03-.07.07-.07h0Z"/>
        <path class="cls-8" d="M137.5,126.69s.04.02.04.04c0,.03-.02.05-.04.05s-.05-.02-.05-.05c0-.02.02-.04.05-.04h0Z"/>
        <path class="cls-8" d="M139.92,133.6s.02.01.02.02c0,.01-.01.02-.02.02-.01,0-.02,0-.02-.02,0-.01,0-.02.02-.02h0Z"/>
        <path class="cls-8" d="M143.8,139.78s.02,0,.02.02,0,.02-.02.02c-.01,0-.02-.01-.02-.02s0-.02.02-.02h0Z"/>
        <path class="cls-8" d="M194.69,87.61s.02.01.02.02c0,.01,0,.02-.02.02-.01,0-.02-.01-.02-.02,0-.01,0-.02.02-.02h0Z"/>
        <path class="cls-8" d="M188.59,83.56s.04.02.04.05c0,.03-.02.05-.04.05s-.05-.02-.05-.05c0-.02.02-.05.05-.05h0Z"/>
        <path class="cls-8" d="M181.87,80.69s.04.02.04.05c0,.02-.02.04-.04.04s-.04-.02-.04-.04c0-.03.02-.05.04-.05h0Z"/>
        <path class="cls-8" d="M174.75,79.02s.09.04.09.09-.04.09-.09.09-.09-.04-.09-.09.04-.09.09-.09h0Z"/>
        <path class="cls-8" d="M167.46,78.67c.06,0,.11.05.11.11s-.05.11-.11.11-.11-.05-.11-.11.05-.11.11-.11h0Z"/>
        <path class="cls-8" d="M160.22,79.63c.08,0,.14.06.14.14s-.06.14-.14.14-.14-.06-.14-.14.06-.14.14-.14h0Z"/>
        <path class="cls-8" d="M153.27,81.86c.09,0,.16.07.16.16s-.07.16-.16.16-.16-.07-.16-.16.07-.16.16-.16h0Z"/>
        <path class="cls-8" d="M146.84,85.32c.09,0,.16.07.16.16s-.07.16-.16.16-.16-.07-.16-.16.07-.16.16-.16h0Z"/>
        <path class="cls-8" d="M141.13,89.85c.1,0,.18.08.18.18s-.08.18-.18.18-.18-.08-.18-.18.08-.18.18-.18h0Z"/>
        <path class="cls-8" d="M136.32,95.35c.1,0,.18.08.18.18s-.08.18-.18.18-.18-.08-.18-.18.08-.18.18-.18h0Z"/>
        <path class="cls-8" d="M132.57,101.65c.09,0,.16.07.16.16s-.07.16-.16.16-.16-.07-.16-.16.07-.16.16-.16h0Z"/>
        <path class="cls-8" d="M130.01,108.51c.08,0,.14.06.14.14s-.06.13-.14.13-.14-.06-.14-.13.06-.14.14-.14h0Z"/>
        <path class="cls-8" d="M128.7,115.72c.06,0,.11.05.11.11s-.05.11-.11.11-.11-.05-.11-.11.05-.11.11-.11h0Z"/>
        <path class="cls-8" d="M128.7,123.04s.09.04.09.09-.04.09-.09.09-.09-.04-.09-.09.04-.09.09-.09h0Z"/>
        <path class="cls-8" d="M130.01,130.26s.07.03.07.07-.03.07-.07.07-.07-.03-.07-.07.03-.07.07-.07h0Z"/>
        <path class="cls-8" d="M132.57,137.12s.05.02.05.05-.02.04-.05.04-.05-.02-.05-.04.02-.05.05-.05h0Z"/>
        <path class="cls-8" d="M136.32,143.41s.02.01.02.02c0,.01-.01.02-.02.02s-.02,0-.02-.02c0-.01,0-.02.02-.02h0Z"/>
        <path class="cls-8" d="M199.77,81.23s.02.01.02.02c0,.01,0,.02-.02.02s-.02-.01-.02-.02c0-.01,0-.02.02-.02h0Z"/>
        <path class="cls-8" d="M193.73,77.09s.04.02.04.05-.02.05-.04.05-.04-.02-.04-.05.02-.05.04-.05h0Z"/>
        <path class="cls-8" d="M187.15,73.9s.07.03.07.07-.03.07-.07.07-.07-.03-.07-.07.03-.07.07-.07h0Z"/>
        <path class="cls-8" d="M180.16,71.73c.05,0,.09.04.09.09s-.04.09-.09.09-.09-.04-.09-.09.04-.09.09-.09h0Z"/>
        <path class="cls-8" d="M172.94,70.61c.06,0,.11.05.11.11s-.05.11-.11.11-.11-.05-.11-.11.05-.11.11-.11h0Z"/>
        <path class="cls-8" d="M165.63,70.57c.09,0,.16.07.16.16s-.07.16-.16.16-.16-.07-.16-.16.07-.16.16-.16h0Z"/>
        <path class="cls-8" d="M158.4,71.63c.1,0,.18.08.18.18s-.08.18-.18.18-.18-.08-.18-.18.08-.18.18-.18h0Z"/>
        <path class="cls-8" d="M151.42,73.77c.11,0,.2.09.2.2s-.09.2-.2.2-.2-.09-.2-.2.09-.2.2-.2h0Z"/>
        <path class="cls-8" d="M144.84,76.91c.12,0,.23.1.23.23s-.1.23-.23.23-.23-.1-.23-.23.1-.23.23-.23h0Z"/>
        <path class="cls-8" d="M138.8,81.03c.12,0,.23.1.23.23s-.1.22-.23.22-.23-.1-.23-.22.1-.23.23-.23h0Z"/>
        <path class="cls-8" d="M133.44,86c.12,0,.23.1.23.23s-.1.22-.23.22-.23-.1-.23-.22.1-.23.23-.23h0Z"/>
        <path class="cls-8" d="M128.88,91.71c.12,0,.23.1.23.23s-.1.23-.23.23-.23-.1-.23-.23.1-.23.23-.23h0Z"/>
        <path class="cls-8" d="M125.23,98.07c.11,0,.2.09.2.2s-.09.2-.2.2-.2-.09-.2-.2.09-.2.2-.2h0Z"/>
        <path class="cls-8" d="M122.56,104.89c.1,0,.18.08.18.18s-.08.18-.18.18-.18-.08-.18-.18.08-.18.18-.18h0Z"/>
        <path class="cls-8" d="M120.94,112.04c.09,0,.16.07.16.16s-.07.16-.16.16-.16-.07-.16-.16.07-.16.16-.16h0Z"/>
        <path class="cls-8" d="M120.39,119.35c.07,0,.14.06.14.14s-.06.13-.14.13-.14-.06-.14-.13.06-.14.14-.14h0Z"/>
        <path class="cls-8" d="M120.94,126.66c.06,0,.11.05.11.11s-.05.11-.11.11-.11-.05-.11-.11.05-.11.11-.11h0Z"/>
        <path class="cls-8" d="M122.56,133.83s.07.03.07.07-.03.07-.07.07-.07-.03-.07-.07.03-.07.07-.07h0Z"/>
        <path class="cls-8" d="M125.23,140.65s.05.02.05.04-.02.05-.05.05-.05-.02-.05-.05.02-.04.05-.04h0Z"/>
        <path class="cls-8" d="M128.88,147s.02.01.02.02c0,.01,0,.02-.02.02-.01,0-.02,0-.02-.02,0-.01,0-.02.02-.02h0Z"/>
        <path class="cls-8" d="M133.44,152.72s.02.01.02.02c0,.01,0,.02-.02.02-.01,0-.02-.01-.02-.02,0-.01,0-.02.02-.02h0Z"/>
        <path class="cls-8" d="M204.85,74.86s.02.01.02.02c0,.01,0,.02-.02.02-.01,0-.02-.01-.02-.02,0-.01,0-.02.02-.02h0Z"/>
        <path class="cls-8" d="M198.85,70.66s.05.02.05.05c0,.02-.02.04-.05.04s-.04-.02-.04-.04c0-.03.02-.05.04-.05h0Z"/>
        <path class="cls-8" d="M192.37,67.25s.07.03.07.07-.03.07-.07.07c-.04,0-.07-.03-.07-.07s.03-.07.07-.07h0Z"/>
        <path class="cls-8" d="M185.51,64.71s.09.04.09.09-.04.09-.09.09-.09-.04-.09-.09.04-.09.09-.09h0Z"/>
        <path class="cls-8" d="M178.39,63.04c.08,0,.13.06.13.14s-.06.13-.13.13-.14-.06-.14-.13.06-.14.14-.14h0Z"/>
        <path class="cls-8" d="M171.11,62.31c.09,0,.16.07.16.16s-.07.16-.16.16-.16-.07-.16-.16.07-.16.16-.16h0Z"/>
        <path class="cls-8" d="M163.81,62.5c.11,0,.2.09.2.2s-.09.2-.2.2-.2-.09-.2-.2.09-.2.2-.2h0Z"/>
        <path class="cls-8" d="M156.59,63.65c.12,0,.23.1.23.23s-.1.23-.23.23-.23-.1-.23-.23.1-.23.23-.23h0Z"/>
        <path class="cls-8" d="M149.58,65.7c.14,0,.25.11.25.25s-.11.25-.25.25-.25-.11-.25-.25.11-.25.25-.25h0Z"/>
        <path class="cls-8" d="M142.9,68.64c.15,0,.27.12.27.27s-.12.27-.27.27-.27-.12-.27-.27.12-.27.27-.27h0Z"/>
        <path class="cls-8" d="M136.65,72.41c.16,0,.29.13.29.29s-.13.29-.29.29-.29-.13-.29-.29.13-.29.29-.29h0Z"/>
        <path class="cls-8" d="M130.93,76.96c.16,0,.29.13.29.29s-.13.29-.29.29-.3-.13-.3-.29.13-.29.3-.29h0Z"/>
        <path class="cls-8" d="M125.85,82.21c.16,0,.29.13.29.29s-.13.29-.29.29-.29-.13-.29-.29.13-.29.29-.29h0Z"/>
        <path class="cls-8" d="M121.48,88.07c.16,0,.29.13.29.29s-.13.29-.29.29-.3-.13-.3-.29.13-.29.3-.29h0Z"/>
        <path class="cls-8" d="M117.89,94.46c.15,0,.27.12.27.27s-.12.27-.27.27-.27-.12-.27-.27.12-.27.27-.27h0Z"/>
        <path class="cls-8" d="M115.15,101.26c.14,0,.25.11.25.25s-.11.25-.25.25-.25-.11-.25-.25.11-.25.25-.25h0Z"/>
        <path class="cls-8" d="M113.29,108.35c.12,0,.23.1.23.23s-.1.22-.23.22-.23-.1-.23-.22.1-.23.23-.23h0Z"/>
        <path class="cls-8" d="M112.36,115.65c.1,0,.18.08.18.18s-.08.18-.18.18-.18-.08-.18-.18.08-.18.18-.18h0Z"/>
        <path class="cls-8" d="M112.36,122.98c.09,0,.16.07.16.16s-.07.16-.16.16-.16-.07-.16-.16.07-.16.16-.16h0Z"/>
        <path class="cls-8" d="M113.29,130.27c.06,0,.11.05.11.11s-.05.11-.11.11-.11-.05-.11-.11.05-.11.11-.11h0Z"/>
        <path class="cls-8" d="M115.15,137.37s.09.04.09.09-.04.09-.09.09-.09-.04-.09-.09.04-.09.09-.09h0Z"/>
        <path class="cls-8" d="M117.89,144.19s.05.02.05.05c0,.02-.02.04-.05.04s-.04-.02-.04-.04c0-.03.02-.05.04-.05h0Z"/>
        <path class="cls-8" d="M121.48,150.56s.04.02.04.04c0,.03-.02.05-.04.05s-.05-.02-.05-.05c0-.02.02-.04.05-.04h0Z"/>
        <path class="cls-8" d="M209.93,68.49s.02.01.02.02c0,.01,0,.02-.02.02-.01,0-.02,0-.02-.02,0-.01,0-.02.02-.02h0Z"/>
        <path class="cls-8" d="M203.97,64.24s.05.02.05.05-.02.04-.05.04-.05-.02-.05-.04.02-.05.05-.05h0Z"/>
        <path class="cls-8" d="M197.57,60.68s.07.03.07.07c0,.04-.03.07-.07.07s-.07-.03-.07-.07c0-.04.03-.07.07-.07h0Z"/>
        <path class="cls-8" d="M190.81,57.84c.06,0,.11.05.11.11s-.05.11-.11.11-.11-.05-.11-.11.05-.11.11-.11h0Z"/>
        <path class="cls-8" d="M183.79,55.79c.08,0,.14.06.14.14s-.06.13-.14.13-.14-.06-.14-.13.06-.14.14-.14h0Z"/>
        <path class="cls-8" d="M176.58,54.52c.1,0,.18.08.18.18s-.08.18-.18.18-.18-.08-.18-.18.08-.18.18-.18h0Z"/>
        <path class="cls-8" d="M169.28,54.09c.11,0,.2.09.2.2s-.09.2-.2.2-.2-.09-.2-.2.09-.2.2-.2h0Z"/>
        <path class="cls-8" d="M161.98,54.45c.14,0,.25.11.25.25s-.11.25-.25.25-.25-.11-.25-.25.11-.25.25-.25h0Z"/>
        <path class="cls-8" d="M154.78,55.66c.15,0,.27.12.27.27s-.12.27-.27.27-.27-.12-.27-.27.12-.27.27-.27h0Z"/>
        <path class="cls-8" d="M147.75,57.63c.17,0,.32.14.32.32s-.14.32-.32.32-.32-.14-.32-.32.14-.32.32-.32h0Z"/>
        <path class="cls-8" d="M141,60.41c.19,0,.34.15.34.34s-.15.34-.34.34-.34-.15-.34-.34.15-.34.34-.34h0Z"/>
        <path class="cls-8" d="M134.6,63.95c.19,0,.34.15.34.34s-.15.34-.34.34-.34-.15-.34-.34.15-.34.34-.34h0Z"/>
        <path class="cls-8" d="M128.64,68.15c.2,0,.36.16.36.36s-.16.36-.36.36-.36-.16-.36-.36.16-.36.36-.36h0Z"/>
        <path class="cls-8" d="M123.19,73.02c.2,0,.36.16.36.36s-.16.36-.36.36-.36-.16-.36-.36.16-.36.36-.36h0Z"/>
        <path class="cls-8" d="M118.32,78.48c.2,0,.36.16.36.36s-.16.36-.36.36-.36-.16-.36-.36.16-.36.36-.36h0Z"/>
        <path class="cls-8" d="M114.08,84.46c.19,0,.34.15.34.34s-.15.34-.34.34-.34-.15-.34-.34.15-.34.34-.34h0Z"/>
        <path class="cls-8" d="M110.55,90.86c.19,0,.34.15.34.34s-.15.34-.34.34-.34-.15-.34-.34.15-.34.34-.34h0Z"/>
        <path class="cls-8" d="M107.75,97.64c.18,0,.32.14.32.32s-.14.32-.32.32-.31-.14-.31-.32.14-.32.31-.32h0Z"/>
        <path class="cls-8" d="M105.73,104.71c.15,0,.27.12.27.27s-.12.27-.27.27-.27-.12-.27-.27.12-.27.27-.27h0Z"/>
        <path class="cls-8" d="M104.5,111.94c.14,0,.25.11.25.25s-.11.25-.25.25-.25-.11-.25-.25.11-.25.25-.25h0Z"/>
        <path class="cls-8" d="M104.09,119.28c.11,0,.2.09.2.2s-.09.2-.2.2-.2-.09-.2-.2.09-.2.2-.2h0Z"/>
        <path class="cls-8" d="M104.5,126.6c.1,0,.18.08.18.18s-.08.18-.18.18-.18-.08-.18-.18.08-.18.18-.18h0Z"/>
        <path class="cls-8" d="M105.73,133.86c.08,0,.14.06.14.13s-.06.14-.14.14-.14-.06-.14-.14.06-.13.14-.13h0Z"/>
        <path class="cls-8" d="M107.75,140.9c.06,0,.11.05.11.11s-.05.11-.11.11-.11-.05-.11-.11.05-.11.11-.11h0Z"/>
        <path class="cls-8" d="M110.55,147.7s.07.03.07.07-.03.07-.07.07-.07-.03-.07-.07.03-.07.07-.07h0Z"/>
        <path class="cls-8" d="M220.49,66.96s.02,0,.02.02c0,.01,0,.02-.02.02-.01,0-.02,0-.02-.02,0-.01,0-.02.02-.02h0Z"/>
        <path class="cls-8" d="M215.01,62.12s.02,0,.02.02c0,.01,0,.02-.02.02s-.02,0-.02-.02c0-.01,0-.02.02-.02h0Z"/>
        <path class="cls-8" d="M209.07,57.83s.05.02.05.05-.02.05-.05.05-.04-.02-.04-.05.02-.05.04-.05h0Z"/>
        <path class="cls-8" d="M202.74,54.15s.07.03.07.07-.03.07-.07.07-.07-.03-.07-.07.03-.07.07-.07h0Z"/>
        <path class="cls-8" d="M196.08,51.1c.06,0,.11.05.11.11s-.05.11-.11.11-.11-.05-.11-.11.05-.11.11-.11h0Z"/>
        <path class="cls-8" d="M189.15,48.75c.07,0,.14.06.14.14s-.06.14-.14.14-.14-.06-.14-.14.06-.14.14-.14h0Z"/>
        <path class="cls-8" d="M182.02,47.08c.1,0,.18.08.18.18s-.08.18-.18.18-.18-.08-.18-.18.08-.18.18-.18h0Z"/>
        <path class="cls-8" d="M174.76,46.12c.12,0,.23.1.23.23s-.1.23-.23.23-.23-.1-.23-.23.1-.23.23-.23h0Z"/>
        <path class="cls-8" d="M167.45,45.89c.15,0,.27.12.27.27s-.12.27-.27.27-.27-.12-.27-.27.12-.27.27-.27h0Z"/>
        <path class="cls-8" d="M160.16,46.42c.16,0,.29.13.29.29s-.13.29-.29.29-.29-.13-.29-.29.13-.29.29-.29h0Z"/>
        <path class="cls-8" d="M152.96,47.64c.19,0,.34.15.34.34s-.15.34-.34.34-.34-.15-.34-.34.15-.34.34-.34h0Z"/>
        <path class="cls-8" d="M145.93,49.6c.2,0,.36.16.36.36s-.16.36-.36.36-.36-.16-.36-.36.16-.36.36-.36h0Z"/>
        <path class="cls-8" d="M139.12,52.23c.23,0,.41.18.41.41s-.18.41-.41.41-.41-.18-.41-.41.18-.41.41-.41h0Z"/>
        <path class="cls-8" d="M132.61,55.54c.24,0,.43.19.43.43s-.19.43-.43.43-.43-.19-.43-.43.19-.43.43-.43h0Z"/>
        <path class="cls-8" d="M126.47,59.48c.25,0,.45.2.45.45s-.2.45-.45.45-.45-.2-.45-.45.2-.45.45-.45h0Z"/>
        <path class="cls-8" d="M120.75,64.04c.25,0,.45.2.45.45s-.2.45-.45.45-.45-.2-.45-.45.2-.45.45-.45h0Z"/>
        <path class="cls-8" d="M115.52,69.15c.25,0,.45.2.45.45s-.2.45-.45.45-.45-.2-.45-.45.2-.45.45-.45h0Z"/>
        <path class="cls-8" d="M110.82,74.75c.25,0,.45.2.45.45s-.2.45-.45.45-.45-.2-.45-.45.2-.45.45-.45h0Z"/>
        <path class="cls-8" d="M106.7,80.81c.24,0,.43.19.43.43s-.19.43-.43.43-.43-.19-.43-.43.19-.43.43-.43h0Z"/>
        <path class="cls-8" d="M103.21,87.26c.23,0,.41.18.41.41s-.18.41-.41.41-.41-.18-.41-.41.18-.41.41-.41h0Z"/>
        <path class="cls-8" d="M100.37,94.02c.21,0,.38.17.38.38s-.17.38-.38.38-.38-.17-.38-.38.17-.38.38-.38h0Z"/>
        <path class="cls-8" d="M98.21,101.05c.19,0,.34.15.34.34s-.15.34-.34.34-.34-.15-.34-.34.15-.34.34-.34h0Z"/>
        <path class="cls-8" d="M96.76,108.24c.17,0,.32.14.32.32s-.14.32-.32.32-.32-.14-.32-.32.14-.32.32-.32h0Z"/>
        <path class="cls-8" d="M96.03,115.56c.15,0,.27.12.27.27s-.12.27-.27.27-.27-.12-.27-.27.12-.27.27-.27h0Z"/>
        <path class="cls-8" d="M96.03,122.91c.13,0,.23.1.23.23s-.1.23-.23.23-.23-.1-.23-.23.1-.23.23-.23h0Z"/>
        <path class="cls-8" d="M96.76,130.23c.1,0,.18.08.18.18s-.08.18-.18.18-.18-.08-.18-.18.08-.18.18-.18h0Z"/>
        <path class="cls-8" d="M98.21,137.42c.09,0,.16.07.16.16s-.07.16-.16.16-.16-.07-.16-.16.07-.16.16-.16h0Z"/>
        <path class="cls-8" d="M100.37,144.45c.06,0,.11.05.11.11s-.05.11-.11.11-.11-.05-.11-.11.05-.11.11-.11h0Z"/>
        <path class="cls-8" d="M103.21,151.21s.09.04.09.09-.04.09-.09.09-.09-.04-.09-.09.04-.09.09-.09h0Z"/>
        <path class="cls-8" d="M225.6,60.56s.02.01.02.02c0,.01,0,.02-.02.02s-.02,0-.02-.02c0-.01,0-.02.02-.02h0Z"/>
        <path class="cls-8" d="M220.09,55.75s.02.01.02.02c0,.01,0,.02-.02.02-.01,0-.02,0-.02-.02,0-.01,0-.02.02-.02h0Z"/>
        <path class="cls-8" d="M214.17,51.43s.05.02.05.04-.02.05-.05.05-.04-.02-.04-.05.02-.04.04-.04h0Z"/>
        <path class="cls-8" d="M207.9,47.66s.07.03.07.07-.03.07-.07.07-.07-.03-.07-.07.03-.07.07-.07h0Z"/>
        <path class="cls-8" d="M201.31,44.44c.06,0,.11.05.11.11s-.05.11-.11.11-.11-.05-.11-.11.05-.11.11-.11h0Z"/>
        <path class="cls-8" d="M194.46,41.82c.09,0,.16.07.16.16s-.07.16-.16.16-.16-.07-.16-.16.07-.16.16-.16h0Z"/>
        <path class="cls-8" d="M187.42,39.86c.1,0,.18.08.18.18s-.08.18-.18.18-.18-.08-.18-.18.08-.18.18-.18h0Z"/>
        <path class="cls-8" d="M180.22,38.51c.12,0,.23.1.23.23s-.1.23-.23.23-.23-.1-.23-.23.1-.23.23-.23h0Z"/>
        <path class="cls-8" d="M172.94,37.8c.15,0,.27.12.27.27s-.12.27-.27.27-.27-.12-.27-.27.12-.27.27-.27h0Z"/>
        <path class="cls-8" d="M165.63,37.76c.17,0,.31.14.31.32s-.14.32-.31.32-.32-.14-.32-.32.14-.32.32-.32h0Z"/>
        <path class="cls-8" d="M158.35,38.37c.2,0,.36.16.36.36s-.16.36-.36.36-.36-.16-.36-.36.16-.36.36-.36h0Z"/>
        <path class="cls-8" d="M151.15,39.63c.23,0,.41.18.41.41s-.18.41-.41.41-.41-.18-.41-.41.18-.41.41-.41h0Z"/>
        <path class="cls-8" d="M144.1,41.53c.25,0,.45.2.45.45s-.2.45-.45.45-.45-.2-.45-.45.2-.45.45-.45h0Z"/>
        <path class="cls-8" d="M137.26,44.08c.26,0,.48.21.48.47s-.21.47-.48.47-.48-.21-.48-.47.21-.47.48-.47h0Z"/>
        <path class="cls-8" d="M130.67,47.23c.27,0,.5.22.5.5s-.22.5-.5.5-.5-.22-.5-.5.22-.5.5-.5h0Z"/>
        <path class="cls-8" d="M124.39,50.96c.29,0,.52.23.52.52s-.23.52-.52.52-.52-.23-.52-.52.23-.52.52-.52h0Z"/>
        <path class="cls-8" d="M118.48,55.23c.3,0,.54.24.54.54s-.24.54-.54.54-.54-.24-.54-.54.24-.54.54-.54h0Z"/>
        <path class="cls-8" d="M112.97,60.04c.3,0,.54.24.54.54s-.24.54-.54.54-.54-.24-.54-.54.24-.54.54-.54h0Z"/>
        <path class="cls-8" d="M107.92,65.33c.3,0,.54.24.54.54s-.24.54-.54.54-.54-.24-.54-.54.24-.54.54-.54h0Z"/>
        <path class="cls-8" d="M103.36,71.04c.3,0,.54.24.54.54s-.24.54-.54.54-.54-.24-.54-.54.24-.54.54-.54h0Z"/>
        <path class="cls-8" d="M99.33,77.17c.29,0,.52.23.52.52s-.23.52-.52.52-.52-.23-.52-.52.23-.52.52-.52h0Z"/>
        <path class="cls-8" d="M95.86,83.63c.27,0,.5.22.5.5s-.22.5-.5.5-.5-.22-.5-.5.22-.5.5-.5h0Z"/>
        <path class="cls-8" d="M92.99,90.4c.25,0,.45.2.45.45s-.2.45-.45.45-.45-.2-.45-.45.2-.45.45-.45h0Z"/>
        <path class="cls-8" d="M90.73,97.37c.24,0,.43.19.43.43s-.19.43-.43.43-.43-.19-.43-.43.19-.43.43-.43h0Z"/>
        <path class="cls-8" d="M89.1,104.55c.21,0,.38.17.38.38s-.17.38-.38.38-.39-.17-.39-.38.17-.38.39-.38h0Z"/>
        <path class="cls-8" d="M88.12,111.84c.19,0,.34.15.34.34s-.15.34-.34.34-.34-.15-.34-.34.15-.34.34-.34h0Z"/>
        <path class="cls-8" d="M87.79,119.19c.16,0,.29.13.29.29s-.13.29-.29.29-.3-.13-.3-.29.13-.29.3-.29h0Z"/>
        <path class="cls-8" d="M88.12,126.54c.14,0,.25.11.25.25s-.11.25-.25.25-.25-.11-.25-.25.11-.25.25-.25h0Z"/>
        <path class="cls-8" d="M89.1,133.83c.11,0,.2.09.2.2s-.09.2-.2.2-.2-.09-.2-.2.09-.2.2-.2h0Z"/>
        <path class="cls-8" d="M90.73,140.98c.1,0,.18.08.18.18s-.08.18-.18.18-.18-.08-.18-.18.08-.18.18-.18h0Z"/>
        <path class="cls-8" d="M92.99,147.98c.07,0,.13.06.13.14s-.06.13-.13.13-.14-.06-.14-.13.06-.14.14-.14h0Z"/>
        <path class="cls-8" d="M230.7,54.17s.02.01.02.02c0,.01,0,.02-.02.02s-.02-.01-.02-.02c0-.01,0-.02.02-.02h0Z"/>
        <path class="cls-8" d="M225.17,49.38s.02.01.02.02,0,.02-.02.02c-.01,0-.02-.01-.02-.02s0-.02.02-.02h0Z"/>
        <path class="cls-8" d="M219.27,45.03s.04.02.04.05-.02.04-.04.04-.04-.02-.04-.04.02-.05.04-.05h0Z"/>
        <path class="cls-8" d="M213.04,41.16c.05,0,.09.04.09.09s-.04.09-.09.09-.09-.04-.09-.09.04-.09.09-.09h0Z"/>
        <path class="cls-8" d="M206.52,37.83c.06,0,.11.05.11.11s-.05.11-.11.11-.11-.05-.11-.11.05-.11.11-.11h0Z"/>
        <path class="cls-8" d="M199.75,35.02c.09,0,.16.07.16.16s-.07.16-.16.16-.16-.07-.16-.16.07-.16.16-.16h0Z"/>
        <path class="cls-8" d="M192.78,32.78c.11,0,.2.09.2.2s-.09.2-.2.2-.2-.09-.2-.2.09-.2.2-.2h0Z"/>
        <path class="cls-8" d="M185.65,31.1c.14,0,.25.11.25.25s-.11.25-.25.25-.25-.11-.25-.25.11-.25.25-.25h0Z"/>
        <path class="cls-8" d="M178.41,30.02c.16,0,.29.13.29.29s-.13.29-.29.29-.29-.13-.29-.29.13-.29.29-.29h0Z"/>
        <path class="cls-8" d="M171.11,29.53c.19,0,.34.15.34.34s-.15.34-.34.34-.34-.15-.34-.34.15-.34.34-.34h0Z"/>
        <path class="cls-8" d="M163.8,29.63c.21,0,.38.17.38.38s-.17.38-.38.38-.39-.17-.39-.38.17-.38.39-.38h0Z"/>
        <path class="cls-8" d="M156.53,30.33c.24,0,.43.19.43.43s-.19.43-.43.43-.43-.19-.43-.43.19-.43.43-.43h0Z"/>
        <path class="cls-8" d="M149.34,31.62c.26,0,.47.21.47.48s-.21.47-.47.47-.47-.21-.47-.47.21-.48.47-.48h0Z"/>
        <path class="cls-8" d="M142.28,33.49c.29,0,.52.23.52.52s-.23.52-.52.52-.52-.23-.52-.52.23-.52.52-.52h0Z"/>
        <path class="cls-8" d="M135.4,35.93c.31,0,.56.25.56.57s-.25.57-.56.57-.56-.25-.56-.57.25-.57.56-.57h0Z"/>
        <path class="cls-8" d="M128.75,38.94c.32,0,.59.26.59.59s-.26.59-.59.59-.59-.26-.59-.59.26-.59.59-.59h0Z"/>
        <path class="cls-8" d="M122.37,42.49c.34,0,.61.27.61.61s-.27.61-.61.61-.61-.27-.61-.61.27-.61.61-.61h0Z"/>
        <path class="cls-8" d="M116.3,46.55c.35,0,.63.28.63.63s-.28.63-.63.63-.63-.28-.63-.63.28-.63.63-.63h0Z"/>
        <path class="cls-8" d="M110.58,51.11c.35,0,.63.28.63.63s-.28.63-.63.63-.63-.28-.63-.63.28-.63.63-.63h0Z"/>
        <path class="cls-8" d="M105.26,56.09c.36,0,.65.29.65.65s-.29.66-.65.66-.66-.29-.66-.66.29-.65.66-.65h0Z"/>
        <path class="cls-8" d="M100.36,61.54c.35,0,.63.28.63.63s-.28.63-.63.63-.63-.28-.63-.63.28-.63.63-.63h0Z"/>
        <path class="cls-8" d="M95.91,67.35c.35,0,.63.28.63.63s-.28.63-.63.63-.63-.28-.63-.63.28-.63.63-.63h0Z"/>
        <path class="cls-8" d="M91.96,73.53c.34,0,.61.27.61.61s-.27.61-.61.61-.61-.27-.61-.61.27-.61.61-.61h0Z"/>
        <path class="cls-8" d="M88.52,80c.32,0,.59.26.59.59s-.26.59-.59.59-.59-.26-.59-.59.26-.59.59-.59h0Z"/>
        <path class="cls-8" d="M85.62,86.74c.31,0,.56.25.56.56s-.25.57-.56.57-.56-.25-.56-.57.25-.56.56-.56h0Z"/>
        <path class="cls-8" d="M83.28,93.71c.29,0,.52.23.52.52s-.23.52-.52.52-.52-.23-.52-.52.23-.52.52-.52h0Z"/>
        <path class="cls-8" d="M81.5,100.85c.26,0,.48.21.48.47s-.21.47-.48.47-.47-.21-.47-.47.21-.47.47-.47h0Z"/>
        <path class="cls-8" d="M80.32,108.11c.24,0,.43.19.43.43s-.19.43-.43.43-.43-.19-.43-.43.19-.43.43-.43h0Z"/>
        <path class="cls-8" d="M79.72,115.47c.2,0,.36.16.36.36s-.16.36-.36.36-.36-.16-.36-.36.16-.36.36-.36h0Z"/>
        <path class="cls-8" d="M79.72,122.82c.17,0,.32.14.32.32s-.14.32-.32.32-.32-.14-.32-.32.14-.32.32-.32h0Z"/>
        <path class="cls-8" d="M80.32,130.16c.15,0,.27.12.27.27s-.12.27-.27.27-.27-.12-.27-.27.12-.27.27-.27h0Z"/>
        <path class="cls-8" d="M81.5,137.42c.12,0,.23.1.23.23s-.1.23-.23.23-.23-.1-.23-.23.1-.23.23-.23h0Z"/>
        <path class="cls-8" d="M83.28,144.56c.1,0,.18.08.18.18s-.08.18-.18.18-.18-.08-.18-.18.08-.18.18-.18h0Z"/>
        <path class="cls-8" d="M85.62,151.53c.07,0,.14.06.14.13s-.06.14-.14.14-.14-.06-.14-.14.06-.13.14-.13h0Z"/>
        <path class="cls-8" d="M235.8,47.78s.02.01.02.02,0,.02-.02.02-.02-.01-.02-.02,0-.02.02-.02h0Z"/>
        <path class="cls-8" d="M230.25,42.99s.04.02.04.05-.02.04-.04.04-.05-.02-.05-.04.02-.05.05-.05h0Z"/>
        <path class="cls-8" d="M224.37,38.64s.05.02.05.04c0,.03-.02.05-.05.05s-.04-.02-.04-.05c0-.02.02-.04.04-.04h0Z"/>
        <path class="cls-8" d="M218.18,34.71c.05,0,.09.04.09.09s-.04.09-.09.09-.09-.04-.09-.09.04-.09.09-.09h0Z"/>
        <path class="cls-8" d="M211.71,31.27c.06,0,.11.05.11.11s-.05.11-.11.11-.11-.05-.11-.11.05-.11.11-.11h0Z"/>
        <path class="cls-8" d="M205.01,28.3c.09,0,.16.07.16.16s-.07.16-.16.16-.16-.07-.16-.16.07-.16.16-.16h0Z"/>
        <path class="cls-8" d="M198.11,25.84c.11,0,.2.09.2.2s-.09.2-.2.2-.2-.09-.2-.2.09-.2.2-.2h0Z"/>
        <path class="cls-8" d="M191.04,23.9c.14,0,.25.11.25.25s-.11.25-.25.25-.25-.11-.25-.25.11-.25.25-.25h0Z"/>
        <path class="cls-8" d="M183.86,22.5c.16,0,.29.13.29.29s-.13.29-.29.29-.3-.13-.3-.29.13-.29.3-.29h0Z"/>
        <path class="cls-8" d="M176.59,21.61c.2,0,.36.16.36.36s-.16.36-.36.36-.36-.16-.36-.36.16-.36.36-.36h0Z"/>
        <path class="cls-8" d="M169.28,21.29c.23,0,.41.18.41.41s-.18.41-.41.41-.41-.18-.41-.41.18-.41.41-.41h0Z"/>
        <path class="cls-8" d="M161.98,21.52c.25,0,.45.2.45.45s-.2.45-.45.45-.45-.2-.45-.45.2-.45.45-.45h0Z"/>
        <path class="cls-8" d="M154.71,22.27c.29,0,.52.23.52.52s-.23.52-.52.52-.52-.23-.52-.52.23-.52.52-.52h0Z"/>
        <path class="cls-8" d="M147.52,23.58c.31,0,.56.25.56.56s-.25.57-.56.57-.57-.25-.57-.57.25-.56.57-.56h0Z"/>
        <path class="cls-8" d="M140.46,25.43c.34,0,.61.27.61.61s-.27.61-.61.61-.61-.27-.61-.61.27-.61.61-.61h0Z"/>
        <path class="cls-8" d="M133.56,27.8c.36,0,.65.29.65.66s-.29.66-.65.66-.66-.29-.66-.66.29-.66.66-.66h0Z"/>
        <path class="cls-8" d="M126.85,30.7c.38,0,.68.3.68.68s-.3.68-.68.68-.68-.3-.68-.68.3-.68.68-.68h0Z"/>
        <path class="cls-8" d="M120.39,34.1c.39,0,.7.31.7.7s-.31.7-.7.7-.7-.31-.7-.7.31-.7.7-.7h0Z"/>
        <path class="cls-8" d="M114.2,37.97c.4,0,.72.32.72.72s-.32.72-.72.72-.72-.32-.72-.72.32-.72.72-.72h0Z"/>
        <path class="cls-8" d="M108.31,42.28c.41,0,.75.33.75.75s-.33.75-.75.75-.75-.33-.75-.75.33-.75.75-.75h0Z"/>
        <path class="cls-8" d="M102.77,47.05c.41,0,.75.33.75.75s-.33.75-.75.75-.75-.33-.75-.75.33-.75.75-.75h0Z"/>
        <path class="cls-8" d="M97.6,52.23c.41,0,.75.33.75.75s-.33.75-.75.75-.75-.33-.75-.75.33-.75.75-.75h0Z"/>
        <path class="cls-8" d="M92.83,57.77c.41,0,.75.33.75.75s-.33.75-.75.75-.75-.33-.75-.75.33-.75.75-.75h0Z"/>
        <path class="cls-8" d="M88.49,63.67c.4,0,.72.32.72.72s-.32.72-.72.72-.72-.32-.72-.72.32-.72.72-.72h0Z"/>
        <path class="cls-8" d="M84.6,69.89c.39,0,.7.31.7.7s-.31.7-.7.7-.7-.31-.7-.7.31-.7.7-.7h0Z"/>
        <path class="cls-8" d="M81.18,76.38c.37,0,.68.3.68.68s-.3.68-.68.68-.68-.3-.68-.68.3-.68.68-.68h0Z"/>
        <path class="cls-8" d="M78.26,83.1c.36,0,.65.29.65.65s-.29.66-.65.66-.66-.29-.66-.66.29-.65.66-.65h0Z"/>
        <path class="cls-8" d="M75.84,90.05c.34,0,.61.27.61.61s-.27.61-.61.61-.61-.27-.61-.61.27-.61.61-.61h0Z"/>
        <path class="cls-8" d="M73.95,97.16c.31,0,.56.25.56.57s-.25.57-.56.57-.56-.25-.56-.57.25-.57.56-.57h0Z"/>
        <path class="cls-8" d="M72.59,104.39c.29,0,.52.23.52.52s-.23.52-.52.52-.52-.23-.52-.52.23-.52.52-.52h0Z"/>
        <path class="cls-8" d="M71.77,111.72c.25,0,.45.2.45.45s-.2.45-.45.45-.45-.2-.45-.45.2-.45.45-.45h0Z"/>
        <path class="cls-8" d="M71.5,119.08c.23,0,.41.18.41.41s-.18.41-.41.41-.41-.18-.41-.41.18-.41.41-.41h0Z"/>
        <path class="cls-8" d="M71.77,126.43c.2,0,.36.16.36.36s-.16.36-.36.36-.36-.16-.36-.36.16-.36.36-.36h0Z"/>
        <path class="cls-8" d="M72.59,133.76c.16,0,.29.13.29.29s-.13.29-.29.29-.29-.13-.29-.29.13-.29.29-.29h0Z"/>
        <path class="cls-8" d="M73.95,140.99c.14,0,.25.11.25.25s-.11.25-.25.25-.25-.11-.25-.25.11-.25.25-.25h0Z"/>
        <path class="cls-8" d="M75.84,148.1c.11,0,.2.09.2.2s-.09.2-.2.2-.2-.09-.2-.2.09-.2.2-.2h0Z"/>
        <path class="cls-8" d="M240.89,41.39s.02.01.02.02c0,.01,0,.02-.02.02-.01,0-.02-.01-.02-.02,0-.01,0-.02.02-.02h0Z"/>
        <path class="cls-8" d="M235.33,36.61s.05.02.05.05-.02.04-.05.04-.05-.02-.05-.04.02-.05.05-.05h0Z"/>
        <path class="cls-8" d="M229.46,32.25s.05.02.05.04-.02.05-.05.05-.05-.02-.05-.05.02-.04.05-.04h0Z"/>
        <path class="cls-8" d="M223.3,28.27c.05,0,.09.04.09.09s-.04.09-.09.09-.09-.04-.09-.09.04-.09.09-.09h0Z"/>
        <path class="cls-8" d="M216.89,24.71c.08,0,.14.06.14.14s-.06.14-.14.14-.14-.06-.14-.14.06-.14.14-.14h0Z"/>
        <path class="cls-8" d="M210.25,21.61c.1,0,.18.08.18.18s-.08.18-.18.18-.18-.08-.18-.18.08-.18.18-.18h0Z"/>
        <path class="cls-8" d="M203.41,18.99c.11,0,.2.09.2.2s-.09.2-.2.2-.2-.09-.2-.2.09-.2.2-.2h0Z"/>
        <path class="cls-8" d="M196.41,16.81c.15,0,.27.12.27.27s-.12.27-.27.27-.27-.12-.27-.27.12-.27.27-.27h0Z"/>
        <path class="cls-8" d="M189.28,15.14c.18,0,.32.14.32.32s-.14.32-.32.32-.32-.14-.32-.32.14-.32.32-.32h0Z"/>
        <path class="cls-8" d="M182.05,13.96c.2,0,.36.16.36.36s-.16.36-.36.36-.36-.16-.36-.36.16-.36.36-.36h0Z"/>
        <path class="cls-8" d="M174.77,13.26c.24,0,.43.19.43.43s-.19.43-.43.43-.43-.19-.43-.43.19-.43.43-.43h0Z"/>
        <path class="cls-8" d="M167.45,13.09c.26,0,.48.21.48.48s-.21.47-.48.47-.47-.21-.47-.47.21-.48.47-.48h0Z"/>
        <path class="cls-8" d="M160.15,13.4c.3,0,.54.24.54.54s-.24.54-.54.54-.54-.24-.54-.54.24-.54.54-.54h0Z"/>
        <path class="cls-8" d="M152.89,14.24c.32,0,.59.26.59.59s-.26.59-.59.59-.59-.26-.59-.59.26-.59.59-.59h0Z"/>
        <path class="cls-8" d="M145.71,15.55c.36,0,.66.29.66.65s-.29.66-.66.66-.65-.29-.65-.66.29-.65.65-.65h0Z"/>
        <path class="cls-8" d="M138.64,17.38c.39,0,.7.31.7.7s-.31.7-.7.7-.7-.31-.7-.7.31-.7.7-.7h0Z"/>
        <path class="cls-8" d="M131.72,19.69c.41,0,.75.33.75.75s-.33.74-.75.74-.75-.33-.75-.74.33-.75.75-.75h0Z"/>
        <path class="cls-8" d="M124.97,22.47c.44,0,.79.35.79.79s-.35.79-.79.79-.79-.35-.79-.79.35-.79.79-.79h0Z"/>
        <path class="cls-8" d="M118.44,25.73c.45,0,.81.36.81.81s-.37.81-.81.81-.81-.36-.81-.81.36-.81.81-.81h0Z"/>
        <path class="cls-8" d="M112.15,29.44c.46,0,.84.37.84.84s-.38.84-.84.84-.84-.37-.84-.84.37-.84.84-.84h0Z"/>
        <path class="cls-8" d="M106.13,33.57c.47,0,.86.38.86.86s-.38.86-.86.86-.86-.38-.86-.86.38-.86.86-.86h0Z"/>
        <path class="cls-8" d="M100.41,38.11c.49,0,.88.39.88.88s-.39.88-.88.88-.88-.4-.88-.88.39-.88.88-.88h0Z"/>
        <path class="cls-8" d="M95.02,43.05c.49,0,.88.4.88.88s-.39.88-.88.88-.88-.4-.88-.88.39-.88.88-.88h0Z"/>
        <path class="cls-8" d="M89.99,48.35c.49,0,.88.39.88.88s-.39.88-.88.88-.88-.4-.88-.88.39-.88.88-.88h0Z"/>
        <path class="cls-8" d="M85.33,54.01c.47,0,.86.39.86.86s-.38.86-.86.86-.86-.39-.86-.86.38-.86.86-.86h0Z"/>
        <path class="cls-8" d="M81.07,59.98c.46,0,.84.37.84.84s-.37.84-.84.84-.84-.37-.84-.84.38-.84.84-.84h0Z"/>
        <path class="cls-8" d="M77.24,66.23c.45,0,.81.36.81.81s-.36.81-.81.81-.81-.36-.81-.81.36-.81.81-.81h0Z"/>
        <path class="cls-8" d="M73.84,72.73c.44,0,.79.35.79.79s-.35.79-.79.79-.79-.35-.79-.79.35-.79.79-.79h0Z"/>
        <path class="cls-8" d="M70.9,79.47c.41,0,.75.33.75.75s-.33.75-.75.75-.75-.33-.75-.75.33-.75.75-.75h0Z"/>
        <path class="cls-8" d="M68.42,86.39c.39,0,.7.31.7.7s-.31.7-.7.7-.7-.31-.7-.7.31-.7.7-.7h0Z"/>
        <path class="cls-8" d="M66.42,93.48c.36,0,.66.29.66.65s-.29.66-.66.66-.65-.29-.65-.66.29-.65.65-.65h0Z"/>
        <path class="cls-8" d="M64.92,100.68c.34,0,.61.27.61.61s-.27.61-.61.61-.61-.27-.61-.61.27-.61.61-.61h0Z"/>
        <path class="cls-8" d="M63.91,107.97c.31,0,.56.25.56.56s-.25.57-.56.57-.56-.25-.56-.57.25-.56.56-.56h0Z"/>
        <path class="cls-8" d="M63.41,115.33c.27,0,.5.22.5.5s-.22.5-.5.5-.5-.22-.5-.5.22-.5.5-.5h0Z"/>
        <path class="cls-8" d="M63.41,122.71c.24,0,.43.19.43.43s-.19.43-.43.43-.43-.19-.43-.43.19-.43.43-.43h0Z"/>
        <path class="cls-8" d="M63.91,130.05c.21,0,.38.17.38.39s-.17.38-.38.38-.38-.17-.38-.38.17-.39.38-.39h0Z"/>
        <path class="cls-8" d="M64.92,137.36c.17,0,.32.14.32.32s-.14.32-.32.32-.32-.14-.32-.32.14-.32.32-.32h0Z"/>
        <path class="cls-8" d="M66.42,144.56c.15,0,.27.12.27.27s-.12.27-.27.27-.27-.12-.27-.27.12-.27.27-.27h0Z"/>
        <path class="cls-8" d="M68.42,151.65c.12,0,.23.1.23.23s-.1.23-.23.23-.23-.1-.23-.23.1-.23.23-.23h0Z"/>
        <path class="cls-8" d="M245.98,35.01s.02.01.02.02c0,.01,0,.02-.02.02-.01,0-.02-.01-.02-.02,0-.01,0-.02.02-.02h0Z"/>
        <path class="cls-8" d="M240.41,30.24s.04.02.04.04c0,.02-.02.05-.04.05s-.04-.02-.04-.05c0-.02.02-.04.04-.04h0Z"/>
        <path class="cls-8" d="M234.55,25.85s.07.03.07.07-.03.07-.07.07-.07-.03-.07-.07.03-.07.07-.07h0Z"/>
        <path class="cls-8" d="M228.42,21.83c.05,0,.09.04.09.09s-.04.09-.09.09-.09-.04-.09-.09.04-.09.09-.09h0Z"/>
        <path class="cls-8" d="M222.05,18.2c.08,0,.14.06.14.14s-.06.14-.14.14-.14-.06-.14-.14.06-.14.14-.14h0Z"/>
        <path class="cls-8" d="M215.46,14.98c.1,0,.18.08.18.18s-.08.18-.18.18-.18-.08-.18-.18.08-.18.18-.18h0Z"/>
        <path class="cls-8" d="M208.68,12.19c.12,0,.23.1.23.23s-.1.23-.23.23-.23-.1-.23-.23.1-.23.23-.23h0Z"/>
        <path class="cls-8" d="M201.74,9.84c.15,0,.27.12.27.27s-.12.27-.27.27-.27-.12-.27-.27.12-.27.27-.27h0Z"/>
        <path class="cls-8" d="M194.67,7.94c.17,0,.32.14.32.32s-.14.32-.32.32-.32-.14-.32-.32.14-.32.32-.32h0Z"/>
        <path class="cls-8" d="M187.49,6.48c.21,0,.38.17.38.38s-.17.39-.38.39-.38-.17-.38-.39.17-.38.38-.38h0Z"/>
        <path class="cls-8" d="M180.24,5.47c.25,0,.45.2.45.45s-.2.45-.45.45-.45-.2-.45-.45.2-.45.45-.45h0Z"/>
        <path class="cls-8" d="M172.94,4.96c.27,0,.5.22.5.5s-.22.5-.5.5-.5-.22-.5-.5.22-.5.5-.5h0Z"/>
        <path class="cls-8" d="M165.63,4.89c.31,0,.56.25.56.56s-.25.56-.56.56-.56-.25-.56-.56.25-.56.56-.56h0Z"/>
        <path class="cls-8" d="M158.33,5.29c.35,0,.63.28.63.63s-.28.63-.63.63-.63-.28-.63-.63.28-.63.63-.63h0Z"/>
        <path class="cls-8" d="M151.07,6.18c.38,0,.68.3.68.68s-.3.68-.68.68-.68-.3-.68-.68.3-.68.68-.68h0Z"/>
        <path class="cls-8" d="M143.9,7.51c.41,0,.75.33.75.75s-.33.75-.75.75-.75-.33-.75-.75.33-.75.75-.75h0Z"/>
        <path class="cls-8" d="M136.82,9.32c.44,0,.79.35.79.79s-.35.79-.79.79-.79-.35-.79-.79.35-.79.79-.79h0Z"/>
        <path class="cls-8" d="M129.88,11.58c.46,0,.84.37.84.84s-.38.84-.84.84-.84-.37-.84-.84.37-.84.84-.84h0Z"/>
        <path class="cls-8" d="M123.1,14.28c.49,0,.88.4.88.88s-.4.88-.88.88-.88-.4-.88-.88.4-.88.88-.88h0Z"/>
        <path class="cls-8" d="M116.51,17.41c.51,0,.93.41.93.93s-.42.93-.93.93-.93-.41-.93-.93.42-.93.93-.93h0Z"/>
        <path class="cls-8" d="M110.14,20.98c.52,0,.95.42.95.95s-.42.95-.95.95-.95-.42-.95-.95.43-.95.95-.95h0Z"/>
        <path class="cls-8" d="M104.01,24.94c.54,0,.97.44.97.97s-.43.97-.97.97-.97-.43-.97-.97.44-.97.97-.97h0Z"/>
        <path class="cls-8" d="M98.15,29.29c.55,0,.99.45.99.99s-.44.99-.99.99-.99-.45-.99-.99.44-.99.99-.99h0Z"/>
        <path class="cls-8" d="M92.58,34.01c.56,0,1.02.45,1.02,1.02s-.46,1.02-1.02,1.02-1.02-.46-1.02-1.02.45-1.02,1.02-1.02h0Z"/>
        <path class="cls-8" d="M87.33,39.1c.56,0,1.02.46,1.02,1.02s-.45,1.02-1.02,1.02-1.02-.45-1.02-1.02.46-1.02,1.02-1.02h0Z"/>
        <path class="cls-8" d="M82.41,44.54c.55,0,.99.44.99.99s-.44.99-.99.99-.99-.45-.99-.99.44-.99.99-.99h0Z"/>
        <path class="cls-8" d="M77.85,50.25c.55,0,.99.45.99.99s-.44.99-.99.99-.99-.45-.99-.99.45-.99.99-.99h0Z"/>
        <path class="cls-8" d="M73.67,56.27c.54,0,.97.43.97.97s-.44.97-.97.97-.97-.43-.97-.97.44-.97.97-.97h0Z"/>
        <path class="cls-8" d="M69.88,62.55c.52,0,.95.43.95.95s-.42.95-.95.95-.95-.42-.95-.95.43-.95.95-.95h0Z"/>
        <path class="cls-8" d="M66.5,69.08c.5,0,.9.4.9.9s-.4.9-.9.9-.9-.4-.9-.9.4-.9.9-.9h0Z"/>
        <path class="cls-8" d="M63.54,75.81c.47,0,.86.38.86.86s-.38.86-.86.86-.86-.38-.86-.86.38-.86.86-.86h0Z"/>
        <path class="cls-8" d="M61.01,82.72c.45,0,.81.36.81.81s-.36.81-.81.81-.81-.36-.81-.81.36-.81.81-.81h0Z"/>
        <path class="cls-8" d="M58.93,89.78c.42,0,.77.34.77.77s-.34.77-.77.77-.77-.34-.77-.77.34-.77.77-.77h0Z"/>
        <path class="cls-8" d="M57.3,96.95c.4,0,.72.32.72.72s-.32.72-.72.72-.72-.32-.72-.72.32-.72.72-.72h0Z"/>
        <path class="cls-8" d="M56.14,104.24c.36,0,.65.29.65.65s-.29.66-.65.66-.66-.29-.66-.66.29-.65.66-.65h0Z"/>
        <path class="cls-8" d="M55.43,111.59c.32,0,.59.26.59.59s-.26.59-.59.59-.59-.26-.59-.59.26-.59.59-.59h0Z"/>
        <path class="cls-8" d="M55.2,118.94c.3,0,.54.24.54.54s-.24.54-.54.54-.54-.24-.54-.54.24-.54.54-.54h0Z"/>
        <path class="cls-8" d="M55.43,126.32c.26,0,.48.21.48.48s-.21.47-.48.47-.48-.21-.48-.47.21-.48.48-.48h0Z"/>
        <path class="cls-8" d="M56.14,133.67c.22,0,.41.18.41.41s-.18.41-.41.41-.41-.18-.41-.41.18-.41.41-.41h0Z"/>
        <path class="cls-8" d="M57.3,140.93c.2,0,.36.16.36.36s-.16.36-.36.36-.36-.16-.36-.36.16-.36.36-.36h0Z"/>
        <path class="cls-8" d="M58.93,148.13c.16,0,.29.13.29.29s-.13.29-.29.29-.29-.13-.29-.29.13-.29.29-.29h0Z"/>
        <path class="cls-8" d="M251.07,28.62s.02.01.02.02c0,.01,0,.02-.02.02-.01,0-.02-.01-.02-.02,0-.01,0-.02.02-.02h0Z"/>
        <path class="cls-8" d="M245.49,23.87s.04.02.04.04c0,.03-.02.05-.04.05s-.04-.02-.04-.05c0-.02.02-.04.04-.04h0Z"/>
        <path class="cls-8" d="M239.64,19.46s.07.03.07.07-.03.07-.07.07-.07-.03-.07-.07.03-.07.07-.07h0Z"/>
        <path class="cls-8" d="M233.54,15.39c.06,0,.11.05.11.11s-.05.11-.11.11-.11-.05-.11-.11.05-.11.11-.11h0Z"/>
        <path class="cls-8" d="M227.21,11.71c.08,0,.14.06.14.14s-.06.13-.14.13-.14-.06-.14-.13.06-.14.14-.14h0Z"/>
        <path class="cls-8" d="M220.66,8.39c.1,0,.18.08.18.18s-.08.18-.18.18-.18-.08-.18-.18.08-.18.18-.18h0Z"/>
        <path class="cls-8" d="M213.94,5.47c.12,0,.23.1.23.23s-.1.23-.23.23-.23-.1-.23-.23.1-.23.23-.23h0Z"/>
        <path class="cls-8" d="M207.05,2.94c.16,0,.29.13.29.29s-.13.29-.29.29-.29-.13-.29-.29.13-.29.29-.29h0Z"/>
        <path class="cls-8" d="M200.04.84c.19,0,.34.15.34.34s-.15.34-.34.34-.34-.15-.34-.34.15-.34.34-.34h0Z"/>
        <path class="cls-8" d="M142.9.15c.01.05.02.11.02.16,0,.46-.37.84-.84.84s-.84-.37-.84-.84c0-.06,0-.11.02-.16h1.64Z"/>
        <path class="cls-8" d="M135.01,1.25c.5,0,.9.41.9.9s-.4.9-.9.9-.9-.41-.9-.9.4-.9.9-.9h0Z"/>
        <path class="cls-8" d="M128.05,3.47c.52,0,.95.42.95.95s-.42.95-.95.95-.95-.42-.95-.95.43-.95.95-.95h0Z"/>
        <path class="cls-8" d="M121.24,6.09c.55,0,.99.44.99.99s-.44.99-.99.99-.99-.44-.99-.99.44-.99.99-.99h0Z"/>
        <path class="cls-8" d="M114.61,9.12c.57,0,1.04.46,1.04,1.04s-.47,1.04-1.04,1.04-1.04-.47-1.04-1.04.47-1.04,1.04-1.04h0Z"/>
        <path class="cls-8" d="M108.17,12.54c.6,0,1.09.48,1.09,1.09s-.49,1.08-1.09,1.08-1.08-.48-1.08-1.08.48-1.09,1.08-1.09h0Z"/>
        <path class="cls-8" d="M101.94,16.36c.61,0,1.11.49,1.11,1.11s-.5,1.11-1.11,1.11-1.11-.5-1.11-1.11.5-1.11,1.11-1.11h0Z"/>
        <path class="cls-8" d="M95.96,20.55c.62,0,1.13.51,1.13,1.13s-.51,1.13-1.13,1.13-1.13-.51-1.13-1.13.5-1.13,1.13-1.13h0Z"/>
        <path class="cls-8" d="M90.25,25.11c.62,0,1.13.51,1.13,1.13s-.51,1.13-1.13,1.13-1.13-.51-1.13-1.13.5-1.13,1.13-1.13h0Z"/>
        <path class="cls-8" d="M84.81,29.98c.64,0,1.15.52,1.15,1.15s-.52,1.15-1.15,1.15-1.15-.52-1.15-1.15.51-1.15,1.15-1.15h0Z"/>
        <path class="cls-8" d="M79.68,35.19c.64,0,1.15.52,1.15,1.15s-.52,1.15-1.15,1.15-1.15-.52-1.15-1.15.52-1.15,1.15-1.15h0Z"/>
        <path class="cls-8" d="M74.87,40.72c.62,0,1.13.51,1.13,1.13s-.51,1.13-1.13,1.13-1.13-.51-1.13-1.13.51-1.13,1.13-1.13h0Z"/>
        <path class="cls-8" d="M70.39,46.51c.62,0,1.13.51,1.13,1.13s-.5,1.13-1.13,1.13-1.13-.51-1.13-1.13.51-1.13,1.13-1.13h0Z"/>
        <path class="cls-8" d="M66.27,52.57c.61,0,1.11.5,1.11,1.11s-.5,1.11-1.11,1.11-1.11-.5-1.11-1.11.5-1.11,1.11-1.11h0Z"/>
        <path class="cls-8" d="M62.52,58.89c.59,0,1.06.48,1.06,1.06s-.48,1.06-1.06,1.06-1.06-.48-1.06-1.06.48-1.06,1.06-1.06h0Z"/>
        <path class="cls-8" d="M59.15,65.41c.57,0,1.04.47,1.04,1.04s-.47,1.04-1.04,1.04-1.04-.46-1.04-1.04.47-1.04,1.04-1.04h0Z"/>
        <path class="cls-8" d="M56.18,72.14c.55,0,.99.44.99.99s-.44.99-.99.99-.99-.44-.99-.99.44-.99.99-.99h0Z"/>
        <path class="cls-8" d="M53.61,79.03c.52,0,.95.43.95.95s-.42.95-.95.95-.95-.42-.95-.95.43-.95.95-.95h0Z"/>
        <path class="cls-8" d="M51.45,86.08c.49,0,.88.39.88.88s-.4.88-.88.88-.88-.4-.88-.88.4-.88.88-.88h0Z"/>
        <path class="cls-8" d="M49.72,93.23c.46,0,.84.37.84.84s-.38.84-.84.84-.84-.37-.84-.84.37-.84.84-.84h0Z"/>
        <path class="cls-8" d="M48.41,100.5c.42,0,.77.34.77.77s-.35.77-.77.77-.77-.34-.77-.77.34-.77.77-.77h0Z"/>
        <path class="cls-8" d="M47.54,107.83c.39,0,.7.31.7.7s-.31.7-.7.7-.7-.31-.7-.7.31-.7.7-.7h0Z"/>
        <path class="cls-8" d="M47.1,115.19c.35,0,.63.29.63.63s-.28.63-.63.63-.63-.28-.63-.63.28-.63.63-.63h0Z"/>
        <path class="cls-8" d="M47.1,122.55c.32,0,.59.26.59.59s-.26.59-.59.59-.59-.26-.59-.59.26-.59.59-.59h0Z"/>
        <path class="cls-8" d="M47.54,129.92c.29,0,.52.23.52.52s-.23.52-.52.52-.52-.23-.52-.52.23-.52.52-.52h0Z"/>
        <path class="cls-8" d="M48.41,137.25c.25,0,.45.2.45.45s-.2.45-.45.45-.45-.2-.45-.45.2-.45.45-.45h0Z"/>
        <path class="cls-8" d="M49.72,144.51c.21,0,.38.17.38.38s-.17.38-.38.38-.38-.17-.38-.38.17-.38.38-.38h0Z"/>
        <path class="cls-8" d="M51.45,151.69c.18,0,.32.14.32.32s-.14.32-.32.32-.31-.14-.31-.32.14-.32.31-.32h0Z"/>
        <path class="cls-8" d="M250.57,17.5s.04.02.04.04-.02.04-.04.04-.05-.02-.05-.04.02-.04.05-.04h0Z"/>
        <path class="cls-8" d="M244.73,13.08s.07.03.07.07-.03.07-.07.07c-.04,0-.07-.03-.07-.07s.03-.07.07-.07h0Z"/>
        <path class="cls-8" d="M238.65,8.97c.06,0,.11.05.11.11s-.05.11-.11.11-.11-.05-.11-.11.05-.11.11-.11h0Z"/>
        <path class="cls-8" d="M232.35,5.23c.07,0,.14.06.14.14s-.06.14-.14.14-.14-.06-.14-.14.06-.14.14-.14h0Z"/>
        <path class="cls-8" d="M225.85,1.83c.1,0,.18.08.18.18s-.08.18-.18.18-.18-.08-.18-.18.08-.18.18-.18h0Z"/>
        <path class="cls-8" d="M112.71.86c.64,0,1.15.52,1.15,1.15s-.52,1.15-1.15,1.15-1.15-.52-1.15-1.15.52-1.15,1.15-1.15h0Z"/>
        <path class="cls-8" d="M106.21,4.17c.66,0,1.2.54,1.2,1.2s-.54,1.2-1.2,1.2-1.2-.54-1.2-1.2.54-1.2,1.2-1.2h0Z"/>
        <path class="cls-8" d="M99.92,7.84c.69,0,1.24.56,1.24,1.24s-.56,1.24-1.24,1.24-1.24-.56-1.24-1.24.56-1.24,1.24-1.24h0Z"/>
        <path class="cls-8" d="M93.83,11.88c.7,0,1.27.57,1.27,1.27s-.57,1.27-1.27,1.27-1.27-.57-1.27-1.27.57-1.27,1.27-1.27h0Z"/>
        <path class="cls-8" d="M87.99,16.26c.71,0,1.29.58,1.29,1.29s-.58,1.29-1.29,1.29-1.29-.58-1.29-1.29.58-1.29,1.29-1.29h0Z"/>
        <path class="cls-8" d="M82.4,20.98c.71,0,1.29.58,1.29,1.29s-.58,1.29-1.29,1.29-1.29-.58-1.29-1.29.58-1.29,1.29-1.29h0Z"/>
        <path class="cls-8" d="M77.09,26c.71,0,1.29.58,1.29,1.29s-.58,1.29-1.29,1.29-1.29-.58-1.29-1.29.58-1.29,1.29-1.29h0Z"/>
        <path class="cls-8" d="M72.06,31.32c.71,0,1.29.58,1.29,1.29s-.58,1.29-1.29,1.29-1.29-.58-1.29-1.29.58-1.29,1.29-1.29h0Z"/>
        <path class="cls-8" d="M67.35,36.9c.71,0,1.29.58,1.29,1.29s-.58,1.29-1.29,1.29-1.29-.58-1.29-1.29.58-1.29,1.29-1.29h0Z"/>
        <path class="cls-8" d="M62.95,42.77c.7,0,1.27.57,1.27,1.27s-.57,1.27-1.27,1.27-1.27-.57-1.27-1.27.57-1.27,1.27-1.27h0Z"/>
        <path class="cls-8" d="M58.89,48.87c.69,0,1.24.56,1.24,1.24s-.55,1.24-1.24,1.24-1.24-.56-1.24-1.24.56-1.24,1.24-1.24h0Z"/>
        <path class="cls-8" d="M55.17,55.22c.66,0,1.2.54,1.2,1.2s-.54,1.2-1.2,1.2-1.2-.54-1.2-1.2.54-1.2,1.2-1.2h0Z"/>
        <path class="cls-8" d="M51.81,61.76c.64,0,1.15.52,1.15,1.15s-.52,1.15-1.15,1.15-1.15-.52-1.15-1.15.52-1.15,1.15-1.15h0Z"/>
        <path class="cls-8" d="M48.82,68.48c.61,0,1.11.5,1.11,1.11s-.5,1.11-1.11,1.11-1.11-.5-1.11-1.11.5-1.11,1.11-1.11h0Z"/>
        <path class="cls-8" d="M46.22,75.36c.59,0,1.06.48,1.06,1.06s-.48,1.06-1.06,1.06-1.06-.48-1.06-1.06.48-1.06,1.06-1.06h0Z"/>
        <path class="cls-8" d="M44,82.37c.56,0,1.02.46,1.02,1.02s-.46,1.02-1.02,1.02-1.02-.46-1.02-1.02.46-1.02,1.02-1.02h0Z"/>
        <path class="cls-8" d="M42.17,89.52c.52,0,.95.43.95.95s-.42.95-.95.95-.95-.42-.95-.95.42-.95.95-.95h0Z"/>
        <path class="cls-8" d="M40.74,96.76c.49,0,.88.4.88.88s-.39.88-.88.88-.88-.39-.88-.88.39-.88.88-.88h0Z"/>
        <path class="cls-8" d="M39.72,104.07c.45,0,.81.36.81.81s-.36.81-.81.81-.81-.36-.81-.81.36-.81.81-.81h0Z"/>
        <path class="cls-8" d="M39.11,111.43c.41,0,.74.33.74.75s-.33.74-.74.74-.75-.33-.75-.74.33-.75.75-.75h0Z"/>
        <path class="cls-8" d="M38.9,118.81c.38,0,.68.3.68.68s-.3.68-.68.68-.68-.3-.68-.68.3-.68.68-.68h0Z"/>
        <path class="cls-8" d="M39.11,126.18c.34,0,.61.27.61.61s-.27.61-.61.61-.61-.27-.61-.61.27-.61.61-.61h0Z"/>
        <path class="cls-8" d="M39.72,133.54c.3,0,.54.24.54.54s-.24.54-.54.54-.54-.24-.54-.54.24-.54.54-.54h0Z"/>
        <path class="cls-8" d="M40.74,140.85c.26,0,.48.21.48.47s-.21.47-.48.47-.48-.21-.48-.47.21-.47.48-.47h0Z"/>
        <path class="cls-8" d="M42.17,148.09c.23,0,.41.18.41.41s-.18.41-.41.41-.41-.18-.41-.41.18-.41.41-.41h0Z"/>
        <path class="cls-8" d="M249.82,6.7s.07.03.07.07-.03.07-.07.07-.07-.03-.07-.07.03-.07.07-.07h0Z"/>
        <path class="cls-8" d="M243.76,2.56c.06,0,.11.05.11.11s-.05.11-.11.11-.11-.05-.11-.11.05-.11.11-.11h0Z"/>
        <path class="cls-8" d="M99.16.15c.09.18.14.38.14.6,0,.76-.62,1.38-1.38,1.38s-1.38-.62-1.38-1.38c0-.21.05-.42.14-.6h2.48Z"/>
        <path class="cls-8" d="M91.75,3.28c.77,0,1.4.63,1.4,1.4s-.63,1.4-1.4,1.4-1.4-.63-1.4-1.4.63-1.4,1.4-1.4h0Z"/>
        <path class="cls-8" d="M85.8,7.51c.79,0,1.42.64,1.42,1.42s-.64,1.42-1.42,1.42-1.42-.64-1.42-1.42.64-1.42,1.42-1.42h0Z"/>
        <path class="cls-8" d="M80.08,12.05c.8,0,1.45.65,1.45,1.45s-.65,1.45-1.45,1.45-1.44-.65-1.44-1.45.65-1.45,1.44-1.45h0Z"/>
        <path class="cls-8" d="M74.61,16.88c.81,0,1.47.66,1.47,1.47s-.66,1.47-1.47,1.47-1.47-.66-1.47-1.47.66-1.47,1.47-1.47h0Z"/>
        <path class="cls-8" d="M69.41,22.02c.81,0,1.47.66,1.47,1.47s-.66,1.47-1.47,1.47-1.47-.66-1.47-1.47.66-1.47,1.47-1.47h0Z"/>
        <path class="cls-8" d="M64.48,27.44c.8,0,1.45.65,1.45,1.44s-.65,1.45-1.45,1.45-1.45-.65-1.45-1.45.65-1.44,1.45-1.44h0Z"/>
        <path class="cls-8" d="M59.84,33.1c.8,0,1.45.65,1.45,1.45s-.65,1.45-1.45,1.45-1.45-.65-1.45-1.45.65-1.45,1.45-1.45h0Z"/>
        <path class="cls-8" d="M55.51,39.02c.79,0,1.42.64,1.42,1.42s-.64,1.42-1.42,1.42-1.42-.64-1.42-1.42.64-1.42,1.42-1.42h0Z"/>
        <path class="cls-8" d="M51.5,45.18c.76,0,1.38.62,1.38,1.38s-.62,1.38-1.38,1.38-1.38-.62-1.38-1.38.62-1.38,1.38-1.38h0Z"/>
        <path class="cls-8" d="M47.82,51.54c.74,0,1.33.6,1.33,1.33s-.6,1.33-1.33,1.33-1.33-.6-1.33-1.33.6-1.33,1.33-1.33h0Z"/>
        <path class="cls-8" d="M44.47,58.09c.71,0,1.29.58,1.29,1.29s-.58,1.29-1.29,1.29-1.29-.58-1.29-1.29.58-1.29,1.29-1.29h0Z"/>
        <path class="cls-8" d="M41.47,64.8c.69,0,1.24.56,1.24,1.24s-.56,1.24-1.24,1.24-1.24-.56-1.24-1.24.56-1.24,1.24-1.24h0Z"/>
        <path class="cls-8" d="M38.83,71.67c.66,0,1.2.54,1.2,1.2s-.54,1.2-1.2,1.2-1.2-.54-1.2-1.2.54-1.2,1.2-1.2h0Z"/>
        <path class="cls-8" d="M36.55,78.66c.64,0,1.15.52,1.15,1.15s-.52,1.15-1.15,1.15-1.15-.52-1.15-1.15.52-1.15,1.15-1.15h0Z"/>
        <path class="cls-8" d="M34.64,85.79c.6,0,1.09.49,1.09,1.08s-.48,1.09-1.09,1.09-1.09-.49-1.09-1.09.49-1.08,1.09-1.08h0Z"/>
        <path class="cls-8" d="M33.11,93.01c.56,0,1.02.46,1.02,1.02s-.45,1.02-1.02,1.02-1.02-.46-1.02-1.02.46-1.02,1.02-1.02h0Z"/>
        <path class="cls-8" d="M31.96,100.3c.52,0,.95.43.95.95s-.42.95-.95.95-.95-.42-.95-.95.43-.95.95-.95h0Z"/>
        <path class="cls-8" d="M31.19,107.64c.49,0,.88.39.88.88s-.39.88-.88.88-.88-.4-.88-.88.4-.88.88-.88h0Z"/>
        <path class="cls-8" d="M30.8,115.04c.44,0,.79.35.79.79s-.35.79-.79.79-.79-.35-.79-.79.35-.79.79-.79h0Z"/>
        <path class="cls-8" d="M30.8,122.42c.4,0,.72.32.72.72s-.32.72-.72.72-.72-.32-.72-.72.33-.72.72-.72h0Z"/>
        <path class="cls-8" d="M31.19,129.79c.36,0,.65.29.65.65s-.29.66-.65.66-.65-.29-.65-.66.29-.65.65-.65h0Z"/>
        <path class="cls-8" d="M31.96,137.13c.32,0,.59.26.59.59s-.26.59-.59.59-.59-.26-.59-.59.26-.59.59-.59h0Z"/>
        <path class="cls-8" d="M33.11,144.44c.27,0,.5.22.5.5s-.22.5-.5.5-.5-.22-.5-.5.22-.5.5-.5h0Z"/>
        <path class="cls-8" d="M34.64,151.66c.24,0,.43.19.43.43s-.19.43-.43.43-.43-.19-.43-.43.19-.43.43-.43h0Z"/>
        <path class="cls-8" d="M254.91.32s.07.03.07.07-.03.07-.07.07-.07-.03-.07-.07.03-.07.07-.07h0Z"/>
        <path class="cls-8" d="M85.22.15c.01.08.02.16.02.24,0,.87-.71,1.58-1.58,1.58s-1.58-.71-1.58-1.58c0-.08,0-.16.02-.24h3.13Z"/>
        <path class="cls-8" d="M77.83,3.2c.89,0,1.6.72,1.6,1.6s-.72,1.6-1.6,1.6-1.6-.72-1.6-1.6.72-1.6,1.6-1.6h0Z"/>
        <path class="cls-8" d="M72.23,7.88c.9,0,1.63.73,1.63,1.63s-.73,1.63-1.63,1.63-1.63-.73-1.63-1.63.73-1.63,1.63-1.63h0Z"/>
        <path class="cls-8" d="M66.87,12.85c.9,0,1.63.73,1.63,1.63s-.73,1.63-1.63,1.63-1.63-.73-1.63-1.63.73-1.63,1.63-1.63h0Z"/>
        <path class="cls-8" d="M61.76,18.09c.9,0,1.63.73,1.63,1.63s-.73,1.63-1.63,1.63-1.63-.73-1.63-1.63.73-1.63,1.63-1.63h0Z"/>
        <path class="cls-8" d="M56.92,23.57c.9,0,1.63.73,1.63,1.63s-.73,1.63-1.63,1.63-1.63-.73-1.63-1.63.73-1.63,1.63-1.63h0Z"/>
        <path class="cls-8" d="M52.36,29.31c.89,0,1.6.72,1.6,1.6s-.72,1.6-1.6,1.6-1.6-.72-1.6-1.6.72-1.6,1.6-1.6h0Z"/>
        <path class="cls-8" d="M48.09,35.27c.87,0,1.58.71,1.58,1.58s-.71,1.58-1.58,1.58-1.58-.71-1.58-1.58.71-1.58,1.58-1.58h0Z"/>
        <path class="cls-8" d="M44.12,41.46c.85,0,1.54.69,1.54,1.54s-.69,1.54-1.54,1.54-1.54-.69-1.54-1.54.69-1.54,1.54-1.54h0Z"/>
        <path class="cls-8" d="M40.47,47.82c.84,0,1.51.68,1.51,1.52s-.68,1.51-1.51,1.51-1.52-.68-1.52-1.51.68-1.52,1.52-1.52h0Z"/>
        <path class="cls-8" d="M37.13,54.37c.81,0,1.47.66,1.47,1.47s-.66,1.47-1.47,1.47-1.47-.66-1.47-1.47.66-1.47,1.47-1.47h0Z"/>
        <path class="cls-8" d="M34.12,61.11c.77,0,1.4.63,1.4,1.4s-.63,1.4-1.4,1.4-1.4-.63-1.4-1.4.63-1.4,1.4-1.4h0Z"/>
        <path class="cls-8" d="M31.45,67.98c.74,0,1.33.6,1.33,1.33s-.6,1.33-1.33,1.33-1.33-.6-1.33-1.33.6-1.33,1.33-1.33h0Z"/>
        <path class="cls-8" d="M29.12,74.96c.71,0,1.29.58,1.29,1.29s-.58,1.29-1.29,1.29-1.29-.58-1.29-1.29.58-1.29,1.29-1.29h0Z"/>
        <path class="cls-8" d="M27.14,82.07c.67,0,1.22.55,1.22,1.22s-.55,1.22-1.22,1.22-1.22-.54-1.22-1.22.55-1.22,1.22-1.22h0Z"/>
        <path class="cls-8" d="M25.51,89.27c.64,0,1.15.52,1.15,1.15s-.52,1.15-1.15,1.15-1.15-.52-1.15-1.15.51-1.15,1.15-1.15h0Z"/>
        <path class="cls-8" d="M24.24,96.54c.6,0,1.08.49,1.08,1.08s-.49,1.08-1.08,1.08-1.08-.49-1.08-1.08.48-1.08,1.08-1.08h0Z"/>
        <path class="cls-8" d="M23.33,103.89c.55,0,.99.44.99.99s-.44.99-.99.99-.99-.45-.99-.99.45-.99.99-.99h0Z"/>
        <path class="cls-8" d="M22.79,111.25c.51,0,.93.41.93.93s-.42.93-.93.93-.93-.42-.93-.93.41-.93.93-.93h0Z"/>
        <path class="cls-8" d="M22.6,118.65c.46,0,.84.37.84.84s-.37.84-.84.84-.84-.37-.84-.84.37-.84.84-.84h0Z"/>
        <path class="cls-8" d="M22.79,126.03c.42,0,.77.34.77.77s-.34.77-.77.77-.77-.34-.77-.77.34-.77.77-.77h0Z"/>
        <path class="cls-8" d="M23.33,133.41c.38,0,.68.3.68.68s-.3.68-.68.68-.68-.3-.68-.68.3-.68.68-.68h0Z"/>
        <path class="cls-8" d="M24.24,140.73c.34,0,.61.27.61.61s-.27.61-.61.61-.61-.27-.61-.61.27-.61.61-.61h0Z"/>
        <path class="cls-8" d="M25.51,148.01c.3,0,.54.24.54.54s-.24.54-.54.54-.54-.24-.54-.54.24-.54.54-.54h0Z"/>
        <path class="cls-8" d="M71.6.15c.07.19.1.39.1.59,0,.99-.8,1.78-1.78,1.78s-1.79-.8-1.79-1.78c0-.21.04-.41.1-.59h3.37Z"/>
        <path class="cls-8" d="M64.42,3.76c1,0,1.81.81,1.81,1.81s-.81,1.81-1.81,1.81-1.81-.81-1.81-1.81.81-1.81,1.81-1.81h0Z"/>
        <path class="cls-8" d="M59.16,8.84c1,0,1.81.81,1.81,1.81s-.81,1.81-1.81,1.81-1.81-.81-1.81-1.81.81-1.81,1.81-1.81h0Z"/>
        <path class="cls-8" d="M54.14,14.19c.98,0,1.78.8,1.78,1.79s-.8,1.78-1.78,1.78-1.79-.8-1.79-1.78.8-1.79,1.79-1.79h0Z"/>
        <path class="cls-8" d="M49.38,19.74c.99,0,1.79.8,1.79,1.78s-.8,1.78-1.79,1.78-1.78-.8-1.78-1.78.8-1.78,1.78-1.78h0Z"/>
        <path class="cls-8" d="M44.89,25.54c.97,0,1.76.79,1.76,1.76s-.79,1.76-1.76,1.76-1.76-.79-1.76-1.76.79-1.76,1.76-1.76h0Z"/>
        <path class="cls-8" d="M40.67,31.54c.96,0,1.74.78,1.74,1.74s-.78,1.74-1.74,1.74-1.74-.78-1.74-1.74.78-1.74,1.74-1.74h0Z"/>
        <path class="cls-8" d="M36.75,37.75c.94,0,1.69.76,1.69,1.69s-.76,1.69-1.69,1.69-1.7-.76-1.7-1.69.76-1.69,1.7-1.69h0Z"/>
        <path class="cls-8" d="M33.11,44.12c.92,0,1.67.75,1.67,1.67s-.75,1.67-1.67,1.67-1.67-.75-1.67-1.67.75-1.67,1.67-1.67h0Z"/>
        <path class="cls-8" d="M29.79,50.68c.9,0,1.63.73,1.63,1.63s-.73,1.63-1.63,1.63-1.63-.73-1.63-1.63.73-1.63,1.63-1.63h0Z"/>
        <path class="cls-8" d="M26.77,57.41c.86,0,1.56.7,1.56,1.56s-.7,1.56-1.56,1.56-1.56-.7-1.56-1.56.7-1.56,1.56-1.56h0Z"/>
        <path class="cls-8" d="M24.07,64.25c.84,0,1.51.68,1.51,1.51s-.68,1.51-1.51,1.51-1.51-.68-1.51-1.51.68-1.51,1.51-1.51h0Z"/>
        <path class="cls-8" d="M21.7,71.24c.8,0,1.45.65,1.45,1.44s-.65,1.45-1.45,1.45-1.45-.65-1.45-1.45.65-1.44,1.45-1.44h0Z"/>
        <path class="cls-8" d="M19.65,78.35c.75,0,1.36.61,1.36,1.36s-.61,1.36-1.36,1.36-1.36-.61-1.36-1.36.61-1.36,1.36-1.36h0Z"/>
        <path class="cls-8" d="M17.94,85.53c.71,0,1.29.58,1.29,1.29s-.58,1.29-1.29,1.29-1.29-.58-1.29-1.29.58-1.29,1.29-1.29h0Z"/>
        <path class="cls-8" d="M16.57,92.78c.67,0,1.22.55,1.22,1.22s-.55,1.22-1.22,1.22-1.22-.55-1.22-1.22.55-1.22,1.22-1.22h0Z"/>
        <path class="cls-8" d="M15.53,100.11c.62,0,1.13.51,1.13,1.13s-.51,1.13-1.13,1.13-1.13-.51-1.13-1.13.51-1.13,1.13-1.13h0Z"/>
        <path class="cls-8" d="M14.84,107.46c.59,0,1.06.48,1.06,1.06s-.48,1.06-1.06,1.06-1.06-.48-1.06-1.06.48-1.06,1.06-1.06h0Z"/>
        <path class="cls-8" d="M14.5,114.86c.54,0,.97.44.97.97s-.43.97-.97.97-.97-.43-.97-.97.44-.97.97-.97h0Z"/>
        <path class="cls-8" d="M14.5,122.26c.49,0,.88.39.88.88s-.4.88-.88.88-.88-.4-.88-.88.39-.88.88-.88h0Z"/>
        <path class="cls-8" d="M14.84,129.63c.45,0,.81.36.81.81s-.36.81-.81.81-.81-.36-.81-.81.36-.81.81-.81h0Z"/>
        <path class="cls-8" d="M15.53,137c.4,0,.72.32.72.72s-.32.72-.72.72-.72-.32-.72-.72.32-.72.72-.72h0Z"/>
        <path class="cls-8" d="M16.57,144.31c.36,0,.65.29.65.66s-.29.66-.65.66-.66-.29-.66-.66.29-.66.66-.66h0Z"/>
        <path class="cls-8" d="M17.94,151.56c.32,0,.59.26.59.59s-.26.59-.59.59-.59-.26-.59-.59.26-.59.59-.59h0Z"/>
        <path class="cls-8" d="M57.89.15c.45.36.73.91.73,1.53,0,1.09-.88,1.97-1.97,1.97s-1.97-.88-1.97-1.97c0-.62.29-1.17.73-1.53h2.46Z"/>
        <path class="cls-8" d="M51.48,4.89c1.09,0,1.97.88,1.97,1.97s-.88,1.97-1.97,1.97-1.97-.88-1.97-1.97.88-1.97,1.97-1.97h0Z"/>
        <path class="cls-8" d="M46.55,10.29c1.09,0,1.97.88,1.97,1.97s-.88,1.97-1.97,1.97-1.97-.88-1.97-1.97.88-1.97,1.97-1.97h0Z"/>
        <path class="cls-8" d="M41.86,15.93c1.07,0,1.94.87,1.94,1.94s-.87,1.94-1.94,1.94-1.94-.87-1.94-1.94.87-1.94,1.94-1.94h0Z"/>
        <path class="cls-8" d="M37.43,21.77c1.06,0,1.92.86,1.92,1.92s-.86,1.92-1.92,1.92-1.92-.86-1.92-1.92.86-1.92,1.92-1.92h0Z"/>
        <path class="cls-8" d="M33.27,27.8c1.05,0,1.9.85,1.9,1.9s-.85,1.9-1.9,1.9-1.9-.85-1.9-1.9.85-1.9,1.9-1.9h0Z"/>
        <path class="cls-8" d="M29.37,34.02c1.04,0,1.88.84,1.88,1.88s-.84,1.88-1.88,1.88-1.87-.84-1.87-1.88.84-1.88,1.87-1.88h0Z"/>
        <path class="cls-8" d="M25.77,40.42c1.01,0,1.83.82,1.83,1.83s-.82,1.83-1.83,1.83-1.83-.82-1.83-1.83.82-1.83,1.83-1.83h0Z"/>
        <path class="cls-8" d="M22.44,46.98c.99,0,1.78.8,1.78,1.78s-.8,1.79-1.78,1.79-1.79-.8-1.79-1.79.8-1.78,1.79-1.78h0Z"/>
        <path class="cls-8" d="M19.42,53.71c.95,0,1.72.77,1.72,1.72s-.77,1.72-1.72,1.72-1.72-.77-1.72-1.72.77-1.72,1.72-1.72h0Z"/>
        <path class="cls-8" d="M16.7,60.54c.92,0,1.67.75,1.67,1.67s-.75,1.67-1.67,1.67-1.67-.75-1.67-1.67.75-1.67,1.67-1.67h0Z"/>
        <path class="cls-8" d="M14.28,67.52c.89,0,1.6.72,1.6,1.6s-.72,1.6-1.6,1.6-1.6-.72-1.6-1.6.72-1.6,1.6-1.6h0Z"/>
        <path class="cls-8" d="M12.18,74.59c.85,0,1.54.69,1.54,1.54s-.69,1.54-1.54,1.54-1.54-.69-1.54-1.54.69-1.54,1.54-1.54h0Z"/>
        <path class="cls-8" d="M10.39,81.77c.8,0,1.45.65,1.45,1.45s-.65,1.45-1.45,1.45-1.45-.65-1.45-1.45.65-1.45,1.45-1.45h0Z"/>
        <path class="cls-8" d="M8.92,89.03c.75,0,1.36.61,1.36,1.36s-.61,1.36-1.36,1.36-1.36-.61-1.36-1.36.61-1.36,1.36-1.36h0Z"/>
        <path class="cls-8" d="M7.78,96.32c.71,0,1.29.58,1.29,1.29s-.58,1.29-1.29,1.29-1.29-.58-1.29-1.29.58-1.29,1.29-1.29h0Z"/>
        <path class="cls-8" d="M6.96,103.68c.66,0,1.2.54,1.2,1.2s-.54,1.2-1.2,1.2-1.2-.54-1.2-1.2.54-1.2,1.2-1.2h0Z"/>
        <path class="cls-8" d="M6.47,111.06c.61,0,1.11.5,1.11,1.11s-.49,1.11-1.11,1.11-1.11-.5-1.11-1.11.5-1.11,1.11-1.11h0Z"/>
        <path class="cls-8" d="M6.3,118.47c.56,0,1.02.46,1.02,1.02s-.46,1.02-1.02,1.02-1.02-.45-1.02-1.02.45-1.02,1.02-1.02h0Z"/>
        <path class="cls-8" d="M6.47,125.85c.52,0,.95.42.95.95s-.42.95-.95.95-.95-.42-.95-.95.42-.95.95-.95h0Z"/>
        <path class="cls-8" d="M6.96,133.23c.47,0,.86.38.86.86s-.38.86-.86.86-.86-.39-.86-.86.38-.86.86-.86h0Z"/>
        <path class="cls-8" d="M7.78,140.59c.42,0,.77.34.77.77s-.34.77-.77.77-.77-.34-.77-.77.35-.77.77-.77h0Z"/>
        <path class="cls-8" d="M8.92,147.91c.38,0,.68.3.68.68s-.3.68-.68.68-.68-.3-.68-.68.3-.68.68-.68h0Z"/>
        <path class="cls-8" d="M43.84.92c1.2,0,2.17.97,2.17,2.17s-.97,2.17-2.17,2.17-2.17-.97-2.17-2.17.97-2.17,2.17-2.17h0Z"/>
        <path class="cls-8" d="M38.98,6.41c1.19,0,2.15.96,2.15,2.15s-.96,2.15-2.15,2.15-2.15-.96-2.15-2.15.96-2.15,2.15-2.15h0Z"/>
        <path class="cls-8" d="M34.36,12.08c1.19,0,2.15.96,2.15,2.15s-.96,2.15-2.15,2.15-2.15-.96-2.15-2.15.96-2.15,2.15-2.15h0Z"/>
        <path class="cls-8" d="M29.98,17.98c1.16,0,2.1.94,2.1,2.1s-.94,2.1-2.1,2.1-2.1-.94-2.1-2.1.94-2.1,2.1-2.1h0Z"/>
        <path class="cls-8" d="M25.86,24.05c1.15,0,2.08.93,2.08,2.08s-.93,2.08-2.08,2.08-2.08-.93-2.08-2.08.93-2.08,2.08-2.08h0Z"/>
        <path class="cls-8" d="M22.01,30.31c1.12,0,2.03.91,2.03,2.03s-.91,2.03-2.03,2.03-2.03-.91-2.03-2.03.91-2.03,2.03-2.03h0Z"/>
        <path class="cls-8" d="M18.42,36.73c1.1,0,1.99.89,1.99,1.99s-.89,1.99-1.99,1.99-1.99-.89-1.99-1.99.89-1.99,1.99-1.99h0Z"/>
        <path class="cls-8" d="M15.1,43.29c1.07,0,1.94.87,1.94,1.94s-.87,1.94-1.94,1.94-1.94-.87-1.94-1.94.87-1.94,1.94-1.94h0Z"/>
        <path class="cls-8" d="M12.07,50.01c1.04,0,1.87.84,1.87,1.88s-.84,1.88-1.87,1.88-1.88-.84-1.88-1.88.84-1.88,1.88-1.88h0Z"/>
        <path class="cls-8" d="M9.33,56.84c1.01,0,1.83.82,1.83,1.83s-.82,1.83-1.83,1.83-1.83-.82-1.83-1.83.82-1.83,1.83-1.83h0Z"/>
        <path class="cls-8" d="M6.87,63.8c.97,0,1.76.79,1.76,1.76s-.79,1.76-1.76,1.76-1.76-.79-1.76-1.76.79-1.76,1.76-1.76h0Z"/>
        <path class="cls-8" d="M4.72,70.85c.94,0,1.7.76,1.7,1.69s-.76,1.7-1.7,1.7-1.69-.76-1.69-1.7.76-1.69,1.69-1.69h0Z"/>
        <path class="cls-8" d="M2.86,78.02c.89,0,1.6.72,1.6,1.6s-.72,1.61-1.6,1.61-1.6-.72-1.6-1.61.72-1.6,1.6-1.6h0Z"/>
        <path class="cls-8" d="M1.31,85.23c.85,0,1.54.69,1.54,1.54s-.69,1.54-1.54,1.54c-.47,0-.89-.21-1.17-.54v-2c.28-.33.7-.54,1.17-.54h0Z"/>
        <path class="cls-8" d="M.14,92.53c.76.04,1.37.67,1.37,1.44s-.61,1.4-1.37,1.44v-2.89H.14Z"/>
        <path class="cls-8" d="M.14,100.33c.21.24.34.55.34.9s-.13.66-.34.9v-1.8H.14Z"/>
        <path class="cls-8" d="M.14,144.18c.41.04.74.39.74.81s-.32.77-.74.81v-1.62H.14Z"/>
        <path class="cls-8" d="M1.31,151.47c.4,0,.72.32.72.72s-.32.72-.72.72-.72-.32-.72-.72.32-.72.72-.72h0Z"/>
        <path class="cls-8" d="M38.45.15c-.33.91-1.21,1.56-2.23,1.56s-1.9-.65-2.23-1.56h4.46Z"/>
        <path class="cls-8" d="M31.43,2.52c1.3,0,2.35,1.05,2.35,2.35s-1.05,2.35-2.35,2.35-2.35-1.05-2.35-2.35,1.05-2.35,2.35-2.35h0Z"/>
        <path class="cls-8" d="M26.87,8.26c1.28,0,2.33,1.04,2.33,2.33s-1.04,2.33-2.33,2.33-2.33-1.04-2.33-2.33,1.04-2.33,2.33-2.33h0Z"/>
        <path class="cls-8" d="M22.55,14.18c1.27,0,2.3,1.03,2.3,2.3s-1.03,2.3-2.3,2.3-2.31-1.03-2.31-2.3,1.03-2.3,2.31-2.3h0Z"/>
        <path class="cls-8" d="M18.47,20.28c1.26,0,2.28,1.02,2.28,2.28s-1.02,2.28-2.28,2.28-2.28-1.02-2.28-2.28,1.02-2.28,2.28-2.28h0Z"/>
        <path class="cls-8" d="M14.64,26.55c1.23,0,2.24,1,2.24,2.24s-1,2.24-2.24,2.24-2.24-1-2.24-2.24,1-2.24,2.24-2.24h0Z"/>
        <path class="cls-8" d="M11.07,33.01c1.2,0,2.17.97,2.17,2.17s-.97,2.17-2.17,2.17-2.17-.97-2.17-2.17.97-2.17,2.17-2.17h0Z"/>
        <path class="cls-8" d="M7.76,39.57c1.17,0,2.12.95,2.12,2.12s-.95,2.12-2.12,2.12-2.12-.95-2.12-2.12.95-2.12,2.12-2.12h0Z"/>
        <path class="cls-8" d="M4.72,46.3c1.14,0,2.06.92,2.06,2.06s-.92,2.05-2.06,2.05-2.06-.92-2.06-2.05.92-2.06,2.06-2.06h0Z"/>
        <path class="cls-8" d="M1.96,53.13c1.1,0,1.99.89,1.99,1.99s-.89,1.99-1.99,1.99c-.81,0-1.5-.48-1.81-1.18v-1.63c.31-.69,1.01-1.18,1.81-1.18h0Z"/>
        <path class="cls-8" d="M.14,60.2c.73.27,1.25.98,1.25,1.8s-.52,1.53-1.25,1.8v-3.6H.14Z"/>
        <path class="cls-8" d="M26.25.15c.14.32.22.68.22,1.05,0,1.42-1.15,2.58-2.58,2.58s-2.58-1.15-2.58-2.58c0-.37.08-.73.22-1.05h4.71Z"/>
        <path class="cls-8" d="M19.39,4.41c1.41,0,2.55,1.14,2.55,2.55s-1.14,2.55-2.55,2.55-2.55-1.14-2.55-2.55,1.14-2.55,2.55-2.55h0Z"/>
        <path class="cls-8" d="M15.12,10.39c1.38,0,2.51,1.12,2.51,2.51s-1.12,2.51-2.51,2.51-2.51-1.12-2.51-2.51,1.12-2.51,2.51-2.51h0Z"/>
        <path class="cls-8" d="M11.07,16.53c1.36,0,2.46,1.1,2.46,2.46s-1.1,2.46-2.46,2.46-2.46-1.1-2.46-2.46,1.1-2.46,2.46-2.46h0Z"/>
        <path class="cls-8" d="M7.27,22.83c1.33,0,2.42,1.08,2.42,2.42s-1.08,2.42-2.42,2.42-2.42-1.08-2.42-2.42,1.08-2.42,2.42-2.42h0Z"/>
        <path class="cls-8" d="M3.72,29.26c1.31,0,2.37,1.06,2.37,2.37s-1.06,2.37-2.37,2.37-2.37-1.06-2.37-2.37,1.06-2.37,2.37-2.37h0Z"/>
        <path class="cls-8" d="M.42,35.86c1.27,0,2.31,1.03,2.31,2.31s-1.03,2.3-2.31,2.3c-.09,0-.19,0-.27-.02v-4.58c.09-.01.18-.02.27-.02H.42Z"/>
        <path class="cls-8" d="M17.34.15c-.3.11-.63.17-.97.17s-.67-.06-.97-.17h1.93Z"/>
        <path class="cls-8" d="M11.92.59c1.52,0,2.76,1.23,2.76,2.76s-1.23,2.76-2.76,2.76-2.76-1.24-2.76-2.76,1.23-2.76,2.76-2.76h0Z"/>
        <path class="cls-8" d="M7.69,6.6c1.5,0,2.71,1.21,2.71,2.71s-1.21,2.71-2.71,2.71-2.71-1.21-2.71-2.71,1.21-2.71,2.71-2.71h0Z"/>
        <path class="cls-8" d="M3.69,12.74c1.48,0,2.69,1.2,2.69,2.69s-1.2,2.69-2.69,2.69-2.69-1.2-2.69-2.69,1.2-2.69,2.69-2.69h0Z"/>
        <path class="cls-8" d="M.14,19.06c1.35.12,2.41,1.25,2.41,2.63s-1.06,2.51-2.41,2.63v-5.27H.14Z"/>
        <path class="cls-8" d="M7.42.15c-.2,1.45-1.45,2.57-2.95,2.57S1.72,1.6,1.51.15h5.91Z"/>
        <path class="cls-8" d="M.28,2.79c1.62,0,2.94,1.31,2.94,2.94s-1.31,2.94-2.94,2.94c-.04,0-.09,0-.13,0V2.8s.09,0,.13,0H.28Z"/>
        <path class="cls-1" d="M181.95,97.17l18.27.02,1.94-8.03h-4.07c1.01-1.51,7.03-4.86,9.11-5.68,3.44-1.35,7.57-2.59,12.33-2.59h1.63c7.02,0,13.72,2.58,17.93,5.4,2.64,1.77,4.18,3.08,6.38,5.28,1.08,1.08,4.62,5.3,4.99,6.68,2.57,0,4.87,1.04,6.6,1.94,1.07.56,1.54,1.16,2.4,1.8.91.67,1.49,1.8,2.12,2.22-.25-3.05-3.96-9.83-5.4-12.1-1.83-2.89-5.57-7.25-8.25-9.25-4.04-3.01-5.91-4.39-10.82-6.68-3.21-1.5-9.71-3.3-14.33-3.3h-4.61c-8.06,0-17.82,4.3-22.42,7.83-6.12,4.69-10.3,9.17-13.8,16.45h0ZM196.15,113.2l-18.28-.03v3.93c0,11.68,6.3,22.37,12.17,28.25,3.59,3.59,6.95,6.07,11.75,8.47,3.58,1.79,10.61,4.25,15.83,4.25h5.15c4.71,0,11.15-1.82,14.42-3.35,4.91-2.3,6.84-3.75,10.89-6.75,2.85-2.11,6.23-6.37,8.22-9.42,1.07-1.64,2.37-3.79,3.11-5.7.55-1.41,2.15-4.92,2.29-6.53-.25.17-1.75,1.81-2.14,2.2-.56.57-1.79,1.46-2.48,1.86-1.34.78-4.48,2.17-6.51,2.17-3.65,5.46-5.78,8.28-11.34,11.99-4.17,2.78-10.94,5.51-17.82,5.51h-2.17c-8.52,0-17.79-4.65-22.01-8.92-2.58-2.61-5.14-5.19-6.88-8.58-1.24-2.41-3.99-8.04-4.07-11.39h7.82s2.04-7.98,2.04-7.98h0ZM178.12,109.2l18.75.04c.66,0,1.08-3.22,1.25-3.91.23-.91.99-3.32,1.06-4.1l-19.08-.02-1.97,7.99h0Z"/>
        <path class="cls-1" d="M198.89,109.24h13.71c8.55,0,1.26,10.31,9.9,10.31h11.12c.61,0,1.09-3.26,1.25-3.91.34-1.36.73-2.83,1.06-4.23h-13.57c-8.86,0-1.22-10.17-9.9-10.17h-11.48s-2.1,8-2.1,8h0ZM230.28,134.08h-15.51s-1.92,7.99-1.92,7.99h15.37s2.06-7.99,2.06-7.99h0ZM201.96,97.15h.33s13.02.01,13.02.01c2.16,0,4.08.99,4.77,2.56.73,1.66.41,4.57,1.2,5.99,1.51,2.73,8.48,1.76,12.62,1.76,4.84,0,9.68,0,14.52,0,3.98,0,6.78,3.54,6.78,7.6,0,4.88-3.31,8.41-8.27,8.41h-26.72c-10.79,0-1.24-10.31-11.26-10.31h-10.72c-.61,0-1.08,3.26-1.25,3.91-.21.86-.74,3.44-1.06,4.1,4.08,0,13.18-.55,15.99.56,4.68,1.85.5,9.75,6.66,9.75h29.84c3.65,0,8.7-2.7,10.26-4.8,2-2.69,4.39-6.07,4.39-10.66v-2.71c0-5.02-3.2-9.55-6.29-11.61-4.26-2.84-8.89-2.22-15.68-2.22-3.39,0-15.52.35-17.61-.3-5.81-1.8-.31-10.01-7.76-10.01h-11.77s-1.99,7.99-1.99,7.99h0Z"/>
      </g>
      <polygon class="cls-3" points="22.05 77.81 31.34 77.81 31.34 153.07 22.05 153.07 22.05 77.81 22.05 77.81"/>
      <path class="cls-5" d="M173.41,57.89h67.54v1.08c0,.07-.06.12-.15.12h-67.54v-1.08c0-.07.07-.12.15-.12h0Z"/>
      <path class="cls-5" d="M220,57.22h20.95v2.28c0,.14-.02.25-.04.25h-20.95v-2.28c0-.14.02-.25.04-.25h0Z"/>
      <polygon class="cls-3" points="245.33 29.65 255.35 29.65 255.35 68.98 245.33 68.98 245.33 29.65 245.33 29.65"/>
      <path class="cls-5" d="M20.32,22.9h6.48s.69-2.84.69-2.84h-1.44c.36-.54,2.49-1.73,3.23-2.02,1.22-.48,2.69-.92,4.38-.92h.58c2.49,0,4.87.91,6.36,1.92.94.63,1.48,1.09,2.26,1.88.38.38,1.64,1.88,1.77,2.37.91,0,1.73.37,2.34.69.38.2.55.41.85.64.32.24.53.64.75.79-.09-1.08-1.4-3.49-1.92-4.3-.65-1.02-1.98-2.57-2.93-3.28-1.43-1.07-2.1-1.56-3.84-2.37-1.14-.53-3.45-1.17-5.09-1.17h-1.64c-2.86,0-6.33,1.53-7.96,2.78-2.17,1.67-3.66,3.25-4.9,5.84h0ZM25.36,28.59h-6.49s0,1.39,0,1.39c0,4.15,2.23,7.94,4.32,10.03,1.27,1.27,2.46,2.15,4.17,3,1.27.64,3.77,1.51,5.62,1.51h1.83c1.67,0,3.96-.64,5.12-1.19,1.74-.82,2.43-1.33,3.86-2.39,1.01-.75,2.21-2.26,2.92-3.34.38-.58.84-1.35,1.1-2.02.19-.5.76-1.75.81-2.32-.09.06-.62.64-.76.78-.2.2-.64.52-.88.66-.48.28-1.59.77-2.31.77-1.3,1.94-2.05,2.94-4.02,4.26-1.48.99-3.88,1.95-6.33,1.95h-.77c-3.02,0-6.31-1.65-7.81-3.16-.91-.93-1.82-1.84-2.44-3.05-.44-.86-1.42-2.85-1.44-4.04h2.78s.72-2.83.72-2.83h0ZM18.96,27.17h6.65c.24.01.38-1.13.44-1.37.08-.32.35-1.18.38-1.45h-6.77s-.7,2.83-.7,2.83h0Z"/>
      <path class="cls-4" d="M26.33,27.18h4.87c3.03,0,.45,3.66,3.51,3.66h3.95c.22,0,.39-1.16.44-1.39.12-.48.26-1,.38-1.5h-4.81c-3.14,0-.43-3.61-3.51-3.61h-4.07s-.74,2.84-.74,2.84h0ZM37.47,36h-5.5s-.68,2.83-.68,2.83h5.46s.73-2.83.73-2.83h0ZM27.42,22.9h.12s4.62,0,4.62,0c.77,0,1.45.35,1.69.91.26.59.14,1.62.42,2.13.54.97,3.01.62,4.48.62,1.72,0,3.44,0,5.15,0,1.41,0,2.41,1.26,2.41,2.7,0,1.73-1.17,2.99-2.94,2.99h-9.48c-3.83,0-.44-3.66-4-3.66h-3.8c-.22,0-.38,1.16-.44,1.39-.08.3-.26,1.22-.38,1.45,1.45,0,4.68-.2,5.67.2,1.66.66.18,3.46,2.37,3.46h10.59c1.29,0,3.09-.96,3.64-1.7.71-.96,1.56-2.16,1.56-3.78v-.96c0-1.78-1.14-3.39-2.23-4.12-1.51-1.01-3.16-.79-5.56-.79-1.2,0-5.51.13-6.25-.1-2.06-.64-.11-3.55-2.75-3.55h-4.18s-.71,2.84-.71,2.84h0Z"/>
      <path class="cls-6" d="M23.18,55.81h6v3.26h-.6v-.32h-4.79v.32h-.6v-3.26h0ZM27.76,59.28h.62v1.6h1.78v.57h-1.78v1.97h-.62v-1.97h-2.67c-.16,1.09-.96,1.79-2.4,2.08-.11-.19-.24-.38-.4-.57,1.29-.23,2.01-.74,2.17-1.52h-2.27v-.57h2.31c.01-.22.02-.5.02-.83-.53.05-1.06.1-1.58.14-.03-.18-.08-.38-.15-.57,1.31-.08,2.56-.19,3.76-.34l.15.54c-.53.05-1.05.11-1.56.16,0,.35-.01.65-.02.9h2.63v-1.6h0ZM28.58,56.37h-4.79v.64h4.79v-.64h0ZM23.78,58.19h4.79v-.64h-4.79v.64h0ZM33.81,59.16h5.25v.52h-3.67c-.13.22-.26.43-.4.62h3.72c-.02.81-.05,1.46-.07,1.94-.03.77-.39,1.16-1.1,1.16-.23,0-.51,0-.85-.03-.02-.26-.05-.47-.09-.64.39.06.68.09.9.09.34,0,.53-.21.55-.64.02-.29.04-.74.07-1.34h-.64c-.34,1.17-.95,2.05-1.83,2.65-.19-.22-.33-.38-.43-.47.82-.54,1.38-1.26,1.69-2.17h-.89c-.47,1-1.16,1.75-2.06,2.24-.1-.15-.24-.32-.42-.52.86-.4,1.49-.97,1.89-1.72h-.85c-.21.24-.42.44-.64.6-.05-.07-.14-.16-.25-.28-.11.4-.36.64-.75.73-.17.04-.41.04-.71,0-.01-.04-.06-.27-.16-.69.22.06.44.08.67.07.36-.05.48-.43.36-1.13-.1-.54-.31-1.03-.65-1.47.23-.68.46-1.42.68-2.22h-1.14v7.07h-.61v-7.64h2.4v.57c-.13.42-.36,1.13-.69,2.11.34.49.55,1.02.63,1.57.04.27.05.5.02.71.37-.32.71-.7,1.02-1.15h-.94v-.52h0ZM34.41,55.82h3.99v2.92h-.59v-.23h-2.82v.28h-.59v-2.97h0ZM37.82,56.34h-2.82v.59h2.82v-.59h0ZM35,58.01h2.82v-.59h-2.82v.59h0ZM39.98,59.18h3.56v-1.73h-1.95c-.27.54-.55,1.01-.86,1.4-.2-.16-.38-.28-.53-.38.61-.79,1.08-1.73,1.42-2.83l.64.18c-.12.36-.25.7-.39,1.02h1.67v-1.39h.67v1.39h3.02v.6h-3.02v1.73h3.58v.6h-2.62v2.31c-.03.42.16.61.56.57h.83c.38,0,.58-.14.62-.42.04-.28.07-.67.09-1.19.21.09.44.17.68.24-.03.4-.07.82-.15,1.25-.05.27-.17.46-.36.57-.16.1-.46.16-.88.16h-.97c-.76.03-1.12-.32-1.09-1.07v-2.41h-1.59c-.04.94-.23,1.66-.57,2.17-.4.63-1.13,1.14-2.18,1.53-.11-.17-.25-.37-.42-.59.97-.33,1.63-.76,2-1.28.3-.4.47-1.01.52-1.83h-2.29v-.6h0ZM50.47,58.3c.71-.7,1.33-1.63,1.87-2.79l.57.23c-.2.39-.41.76-.64,1.12h4.11v.55h-1.96v.89h1.76v.54h-1.76v.89h1.76v.54h-1.76v.92h2.1v.55h-4.51v.45h-.59v-4.06c-.2.26-.39.5-.59.73-.11-.2-.24-.38-.37-.55h0ZM51.88,62.65c1.63.04,3.25.03,4.86-.03-.06.18-.14.39-.23.64-1.68.02-3.26.01-4.72-.03-.87-.02-1.49-.34-1.86-.96-.26.27-.58.63-.97,1.1l-.33-.61c.35-.39.7-.75,1.05-1.08v-2.72h-.99v-.59h1.59v3.46c.33.53.86.8,1.6.82h0ZM52.02,61.18h1.82v-.92h-1.82v.92h0ZM52.02,59.73h1.82v-.89h-1.82v.89h0ZM52.02,58.3h1.82v-.89h-1.82v.89h0ZM49.59,55.7c.41.58.72,1.05.95,1.42l-.55.33c-.27-.49-.57-.98-.89-1.46l.49-.28h0ZM53.46,55.81l.51-.32c.28.35.51.66.71.94l-.55.34c-.22-.34-.44-.67-.68-.97h0ZM58.59,63.37h-.64v-4.81h3.31v3.85c0,.59-.27.88-.81.88-.24,0-.55,0-.92,0-.03-.17-.07-.37-.12-.62.34.03.62.04.82.04.27,0,.4-.14.4-.42v-.68h-2.04v1.73h0ZM62.06,59.44h.64v1.34c.77-.29,1.58-.66,2.42-1.13l.37.56c-.89.47-1.82.88-2.79,1.24v.71c0,.34.13.51.4.51h1.2c.28,0,.44-.13.48-.4.04-.24.07-.6.1-1.07.21.08.42.16.64.23-.04.48-.09.84-.14,1.08-.07.48-.41.72-1.02.72h-1.36c-.62,0-.93-.32-.93-.95v-2.84h0ZM62.07,55.46h.64v1.4c.75-.3,1.49-.65,2.22-1.07l.37.56c-.85.43-1.71.82-2.59,1.18v.47c0,.36.14.54.43.54h1.03c.34,0,.54-.14.58-.42.04-.23.07-.57.1-1.02.21.08.42.16.64.24-.04.43-.09.79-.14,1.06-.08.47-.45.71-1.1.71h-1.19c-.66,0-.99-.33-.99-.98v-2.66h0ZM60.57,56.16c.49.64.92,1.26,1.29,1.85-.21.14-.39.27-.56.38-.11-.19-.22-.38-.34-.57-1.33.1-2.39.19-3.19.26l-.26-.68c.24-.13.5-.37.79-.73.3-.39.59-.83.88-1.31l.64.24c-.45.65-.93,1.27-1.43,1.85.81-.05,1.55-.1,2.22-.16-.17-.26-.35-.52-.55-.79l.51-.32h0ZM58.59,61.14h2.04v-.79h-2.04v.79h0ZM60.63,59.08h-2.04v.78h2.04v-.78h0ZM70.01,57.5h1.06c.12-.31.23-.63.34-.96h-2.06v2.35c0,2.13-.42,3.66-1.25,4.59-.13-.17-.29-.34-.47-.5.75-.84,1.12-2.19,1.12-4.07v-2.91h5.65v.55h-2.28c-.15.33-.3.65-.46.96h2.15v3.34h-.59v-.21h-1.05v1.91c0,.58-.28.87-.85.87-.18,0-.42,0-.71,0-.03-.16-.07-.35-.11-.56.27.02.51.03.71.03.25,0,.38-.13.38-.39v-1.86h-.99v.21h-.59v-3.34h0ZM67.27,59.93c.2.12.39.22.58.28-.22.92-.47,1.98-.75,3.17l-.63-.21c.32-1.11.58-2.19.8-3.23h0ZM70.6,60.09h2.62v-.77h-2.62v.77h0ZM73.22,58.04h-2.62v.76h2.62v-.76h0ZM74.39,62.69l-.51.39c-.39-.58-.8-1.15-1.25-1.69l.47-.33c.49.58.93,1.12,1.3,1.64h0ZM69.27,62.76c.46-.49.87-1.05,1.23-1.67l.52.32c-.41.66-.84,1.23-1.27,1.73l-.48-.38h0ZM66.71,57.65c.42.31.9.67,1.43,1.09-.19.23-.34.4-.46.53-.52-.46-.98-.85-1.38-1.16l.41-.46h0ZM67.06,55.56c.43.32.87.69,1.33,1.1-.19.18-.35.35-.49.5-.47-.47-.89-.85-1.25-1.15l.42-.45h0ZM75.75,55.86h2.41v6.59c0,.58-.26.86-.79.86-.24,0-.51,0-.8-.02-.02-.15-.05-.35-.1-.6.29.03.54.05.74.05.22,0,.33-.12.33-.38v-1.84h-1.19c-.01,1.3-.26,2.28-.74,2.95-.14-.16-.31-.31-.51-.46.42-.59.64-1.46.64-2.61v-4.55h0ZM78.47,59.81v-.58h4.01v.58c-.31.77-.75,1.45-1.3,2.02.56.39,1.24.69,2.06.9-.17.22-.31.43-.42.63-.84-.28-1.54-.64-2.12-1.08-.58.49-1.27.9-2.07,1.21-.16-.26-.29-.44-.39-.56.78-.3,1.44-.66,1.98-1.07-.58-.57-.98-1.26-1.21-2.05h-.55ZM82.43,58.2c.3,0,.59,0,.85-.02l-.11.61c-.34.01-.64.02-.89.02-.55,0-.82-.31-.82-.94v-1.41h-1.51v.49c0,.93-.39,1.65-1.16,2.16-.14-.16-.28-.33-.44-.5.66-.36.99-.92.99-1.68v-1.05h2.73v1.96c0,.24.12.37.37.37h0ZM81.79,59.81h-2.14c.22.64.57,1.19,1.06,1.64.5-.48.86-1.03,1.08-1.64h0ZM76.36,59.99h1.19v-1.54h-1.19v1.54h0ZM77.55,56.4h-1.19v1.52h1.19v-1.52h0ZM86.82,58.92h4.07c0,.07-.05,1.07-.12,2.98-.02.93-.45,1.41-1.28,1.42-.45,0-.83,0-1.17-.02-.03-.25-.07-.48-.12-.68.38.05.75.08,1.13.09.53.04.79-.25.8-.88.04-.73.08-1.51.1-2.34h-1.83c-.02.86-.15,1.58-.39,2.14-.29.65-.8,1.25-1.51,1.82-.14-.17-.3-.35-.47-.53.69-.54,1.15-1.05,1.38-1.55.22-.44.35-1.06.37-1.88h-.95v-.57h0ZM83.96,59.31c.78-1.03,1.41-2.3,1.89-3.82l.64.22c-.26.72-.55,1.4-.86,2.03v5.69h-.62v-4.56c-.25.41-.51.8-.78,1.16-.08-.23-.17-.47-.26-.72h0ZM89.09,55.71l.54-.23c.54,1.38,1.37,2.39,2.48,3.02-.21.24-.36.44-.46.59-1.21-.83-2.06-1.96-2.56-3.39h0ZM85.93,58.8c.85-.75,1.53-1.74,2.05-2.99l.58.22c-.5,1.27-1.22,2.34-2.14,3.22-.2-.2-.36-.35-.49-.45h0ZM95.12,63.44h-.64v-4.22c-.39.46-.83.9-1.3,1.32-.11-.19-.24-.39-.39-.59,1.05-.88,1.87-1.85,2.46-2.92h-2.23v-.6h2.53c.15-.34.29-.69.4-1.04l.68.15c-.11.3-.23.6-.36.89h4.6v.6h-4.9c-.17.32-.35.63-.56.94h4.46v4.35c0,.67-.33,1.01-.99,1.01-.29,0-.72,0-1.31,0-.03-.18-.07-.41-.12-.67.5.04.9.06,1.21.06.38,0,.56-.19.56-.55v-.58h-4.11v1.84h0ZM95.12,61.04h4.11v-.98h-4.11v.98h0ZM99.23,58.54h-4.11v.97h4.11v-.97h0ZM105.02,55.88h3.86v4.06h-.6v-.22h-1.38c.17.49.4.93.69,1.32.49-.31,1.01-.69,1.55-1.15l.43.51c-.6.42-1.13.78-1.6,1.08.47.48,1.07.86,1.78,1.15-.2.19-.38.39-.52.59-1.51-.79-2.48-1.96-2.92-3.5h-.7v2.77c.36-.16.84-.4,1.43-.72,0,.25.02.46.04.64-.48.23-.95.49-1.41.76-.11.06-.25.17-.44.34l-.46-.61c.16-.14.24-.32.24-.54v-6.48h0ZM104.5,60.29c.16,1.04-.1,1.62-.77,1.74-.24.05-.52.05-.82.02-.04-.22-.1-.45-.18-.69.29.07.54.09.75.07.37-.07.49-.46.37-1.17-.08-.43-.32-.92-.74-1.47.19-.59.45-1.38.77-2.37h-1.21v7.11h-.61v-7.68h2.47v.57c-.27.76-.52,1.52-.76,2.26.43.59.68,1.12.74,1.6h0ZM108.28,59.16v-1.1h-2.66v1.1h2.66ZM108.28,56.43h-2.66v1.08h2.66v-1.08h0ZM115.78,60.3c.78,1.02,1.44,1.94,1.98,2.77l-.62.41c-.15-.25-.31-.51-.48-.78-1.79.09-3.25.18-4.37.27-.21.02-.46.07-.75.14l-.36-.69c.24-.1.47-.25.68-.45.64-.73,1.32-1.82,2.07-3.25l.7.32c-.67,1.16-1.39,2.24-2.16,3.24,1.12-.04,2.39-.09,3.81-.15-.31-.47-.65-.96-1.02-1.49l.53-.33h0ZM115.07,55.92l.6-.24c.53,1.42,1.51,2.54,2.94,3.37-.15.15-.32.36-.51.64-1.5-1.03-2.51-2.29-3.04-3.77h0ZM110.47,59.29c1.21-.99,2.12-2.15,2.71-3.49l.64.27c-.73,1.53-1.68,2.77-2.84,3.75-.14-.18-.31-.35-.52-.52h0ZM120.25,59.03h4.28v2.88h-3.63v.6h-.64v-3.48h0ZM119.91,56.47v-.6h7.04v6.34c0,.77-.35,1.16-1.04,1.16-.39,0-.93,0-1.6,0-.02-.19-.06-.42-.14-.7.66.04,1.18.06,1.56.06s.56-.22.56-.65v-5.59h-6.37ZM123.89,61.33v-1.71h-2.99v1.71h2.99ZM119.45,57.47h6.21v.6h-6.21v-.6h0Z"/>
      <path class="cls-6" d="M22.91,71.23v-4.2h1.58c.28,0,.49.01.64.04.21.03.38.1.52.2.14.1.25.23.34.4.09.17.13.36.13.57,0,.36-.11.66-.34.91-.23.25-.64.37-1.23.37h-1.08v1.71h-.55ZM23.46,69.02h1.09c.36,0,.61-.07.76-.2s.23-.32.23-.56c0-.18-.04-.33-.13-.45s-.21-.21-.35-.25c-.09-.02-.27-.04-.52-.04h-1.07v1.5h0ZM27.16,71.23v-4.2h.56v1.72h2.18v-1.72h.56v4.2h-.56v-1.98h-2.18v1.98h-.56ZM31.53,69.18c0-.7.19-1.24.56-1.64.37-.39.86-.59,1.45-.59.39,0,.74.09,1.05.28.31.19.55.44.71.77.16.33.24.71.24,1.12s-.08.81-.26,1.14c-.17.34-.42.59-.73.76-.32.17-.65.26-1.02.26-.4,0-.75-.09-1.06-.29-.31-.19-.55-.45-.71-.78-.16-.33-.24-.68-.24-1.05h0ZM32.11,69.19c0,.51.14.9.41,1.19.27.29.61.44,1.02.44s.76-.15,1.03-.44c.27-.29.41-.71.41-1.25,0-.34-.06-.64-.17-.89-.12-.25-.28-.45-.51-.59-.22-.14-.47-.21-.75-.21-.39,0-.73.13-1.02.41-.28.27-.42.72-.42,1.35h0ZM36.6,71.23v-4.2h3.03v.5h-2.48v1.28h2.32v.49h-2.32v1.43h2.58v.5h-3.13ZM40.82,71.23v-4.2h.57l2.2,3.29v-3.29h.53v4.2h-.57l-2.2-3.3v3.3h-.53ZM45.48,71.23v-4.2h.55v4.2h-.55ZM46.91,71.23l1.62-2.19-1.43-2.01h.66l.76,1.08c.16.22.27.39.34.51.09-.15.2-.31.33-.48l.85-1.11h.6l-1.47,1.98,1.59,2.22h-.69l-1.06-1.5c-.06-.09-.12-.18-.18-.28-.09.15-.16.26-.2.31l-1.05,1.46h-.67ZM52.89,71.23v-4.2h3.03v.5h-2.48v1.28h2.32v.49h-2.32v1.43h2.58v.5h-3.13ZM57.1,71.23v-4.2h.57l2.2,3.29v-3.29h.53v4.2h-.57l-2.2-3.3v3.3h-.53ZM61.68,71.23v-4.2h3.03v.5h-2.48v1.28h2.32v.49h-2.32v1.43h2.58v.5h-3.13ZM65.91,71.23v-4.2h1.86c.37,0,.66.04.85.11.19.08.35.21.47.4.12.19.17.4.17.63,0,.3-.1.55-.29.75-.19.2-.49.33-.89.39.15.07.26.14.34.21.16.15.32.34.46.56l.73,1.14h-.7l-.56-.87c-.16-.25-.3-.44-.4-.58-.1-.13-.2-.23-.28-.28-.08-.05-.17-.09-.25-.11-.06-.01-.17-.02-.31-.02h-.64v1.86h-.55ZM66.47,68.88h1.19c.25,0,.45-.03.59-.08.14-.05.25-.14.33-.25.07-.12.11-.24.11-.38,0-.2-.07-.36-.22-.49-.14-.13-.37-.19-.68-.19h-1.33v1.39h0ZM72.43,69.58v-.49h1.78s0,1.55,0,1.55c-.27.22-.55.38-.84.49-.29.11-.59.16-.89.16-.41,0-.79-.09-1.12-.26-.34-.18-.59-.43-.76-.77-.17-.33-.26-.71-.26-1.12s.09-.79.26-1.14c.17-.35.42-.62.74-.79.32-.17.69-.26,1.11-.26.3,0,.58.05.82.15.25.1.44.23.58.41.14.18.25.4.32.69l-.5.14c-.06-.21-.14-.38-.23-.5-.09-.12-.23-.22-.4-.29-.17-.07-.37-.11-.58-.11-.25,0-.47.04-.66.12-.19.08-.33.18-.45.31-.11.13-.2.26-.26.42-.11.26-.16.54-.16.84,0,.37.06.69.19.94.13.25.32.44.56.56.25.12.51.18.78.18.24,0,.48-.05.7-.14.23-.09.4-.19.52-.3v-.78h-1.23ZM76.53,71.23v-1.78l-1.62-2.42h.67l.83,1.27c.15.24.29.47.43.71.13-.22.28-.47.46-.74l.81-1.23h.65l-1.67,2.42v1.78h-.55ZM83.77,69.75l.56.14c-.12.45-.33.8-.63,1.04-.3.24-.67.36-1.11.36s-.82-.09-1.1-.28c-.28-.18-.5-.45-.65-.8-.15-.35-.22-.72-.22-1.13,0-.44.08-.82.25-1.14.17-.33.4-.57.71-.74.31-.17.65-.25,1.02-.25.42,0,.77.11,1.06.32.29.21.49.51.6.9l-.55.13c-.1-.31-.24-.53-.42-.67-.18-.14-.42-.21-.7-.21-.32,0-.59.08-.81.23-.22.16-.37.36-.46.62-.09.26-.13.53-.13.81,0,.36.05.67.16.93.1.27.27.46.49.6.22.13.46.2.71.2.31,0,.57-.09.79-.27.22-.18.36-.45.44-.8h0ZM85.17,69.18c0-.7.19-1.24.56-1.64.37-.39.86-.59,1.45-.59.39,0,.74.09,1.05.28.31.19.55.44.71.77.16.33.24.71.24,1.12s-.09.81-.26,1.14c-.17.34-.42.59-.73.76-.32.17-.65.26-1.02.26-.4,0-.75-.09-1.06-.29-.31-.19-.55-.45-.71-.78-.16-.33-.24-.68-.24-1.05h0ZM85.74,69.19c0,.51.14.9.41,1.19.27.29.61.44,1.02.44s.76-.15,1.03-.44c.27-.29.41-.71.41-1.25,0-.34-.06-.64-.17-.89-.12-.25-.28-.45-.51-.59-.22-.14-.47-.21-.75-.21-.39,0-.73.13-1.02.41-.28.27-.43.72-.43,1.35h0ZM90.23,71.23v-4.2h1.86c.37,0,.66.04.85.11.19.08.35.21.47.4.12.19.17.4.17.63,0,.3-.1.55-.29.75-.19.2-.49.33-.89.39.15.07.26.14.33.21.16.15.32.34.46.56l.73,1.14h-.7l-.56-.87c-.16-.25-.3-.44-.4-.58-.1-.13-.2-.23-.28-.28-.08-.05-.17-.09-.25-.11-.06-.01-.17-.02-.31-.02h-.64v1.86h-.55ZM90.79,68.88h1.19c.25,0,.45-.03.59-.08.14-.05.25-.14.33-.25.07-.12.11-.24.11-.38,0-.2-.07-.36-.22-.49-.14-.13-.37-.19-.68-.19h-1.33v1.39h0ZM94.78,71.23v-4.2h1.58c.28,0,.49.01.64.04.21.03.38.1.52.2.14.1.25.23.34.4.08.17.13.36.13.57,0,.36-.11.66-.34.91-.23.25-.64.37-1.23.37h-1.08v1.71h-.55ZM95.34,69.02h1.09c.36,0,.61-.07.76-.2.15-.13.23-.32.23-.56,0-.18-.04-.33-.13-.45-.09-.12-.21-.21-.35-.25-.09-.02-.27-.04-.52-.04h-1.07v1.5h0ZM98.85,69.18c0-.7.19-1.24.56-1.64.37-.39.86-.59,1.45-.59.39,0,.74.09,1.05.28.31.19.55.44.71.77.16.33.24.71.24,1.12s-.09.81-.26,1.14c-.17.34-.42.59-.73.76-.32.17-.65.26-1.02.26-.4,0-.75-.09-1.06-.29-.31-.19-.55-.45-.71-.78-.16-.33-.24-.68-.24-1.05h0ZM99.42,69.19c0,.51.14.9.41,1.19.27.29.61.44,1.02.44s.76-.15,1.03-.44c.27-.29.41-.71.41-1.25,0-.34-.06-.64-.17-.89-.12-.25-.28-.45-.51-.59-.22-.14-.47-.21-.75-.21-.39,0-.73.13-1.02.41-.28.27-.42.72-.42,1.35h0ZM103.91,71.23v-4.2h1.86c.37,0,.66.04.85.11.19.08.35.21.47.4.12.19.17.4.17.63,0,.3-.1.55-.29.75-.19.2-.49.33-.89.39.15.07.26.14.34.21.16.15.32.34.46.56l.73,1.14h-.7l-.56-.87c-.16-.25-.3-.44-.4-.58-.1-.13-.2-.23-.28-.28-.08-.05-.17-.09-.25-.11-.06-.01-.17-.02-.31-.02h-.64v1.86h-.55ZM104.47,68.88h1.19c.25,0,.45-.03.59-.08.14-.05.25-.14.33-.25.07-.12.11-.24.11-.38,0-.2-.07-.36-.22-.49-.14-.13-.37-.19-.68-.19h-1.33v1.39h0ZM108,71.23l1.61-4.2h.6l1.72,4.2h-.63l-.49-1.27h-1.75l-.46,1.27h-.59ZM109.21,69.5h1.42l-.44-1.16c-.13-.35-.23-.64-.3-.87-.05.27-.13.54-.23.8l-.46,1.23h0ZM113.33,71.23v-3.7h-1.38v-.5h3.33v.5h-1.39v3.7h-.55ZM116.26,71.23v-4.2h.55v4.2h-.55ZM117.95,69.18c0-.7.19-1.24.56-1.64.37-.39.86-.59,1.45-.59.39,0,.74.09,1.05.28.31.19.55.44.71.77.16.33.24.71.24,1.12s-.08.81-.26,1.14c-.17.34-.42.59-.73.76-.32.17-.65.26-1.02.26-.4,0-.75-.09-1.06-.29-.31-.19-.55-.45-.71-.78-.16-.33-.24-.68-.24-1.05h0ZM118.52,69.19c0,.51.14.9.41,1.19.27.29.61.44,1.02.44s.76-.15,1.03-.44c.27-.29.41-.71.41-1.25,0-.34-.06-.64-.17-.89-.12-.25-.28-.45-.51-.59-.22-.14-.47-.21-.75-.21-.39,0-.73.13-1.02.41-.28.27-.43.72-.43,1.35h0ZM123,71.23v-4.2h.57l2.2,3.29v-3.29h.53v4.2h-.57l-2.2-3.3v3.3h-.53Z"/>
    </g>
  </g>
</svg>