<svg width="512" height="512" version="1.1" xmlns="http://www.w3.org/2000/svg" desc="Created with imagetracer.js version 1.2.6" ><path fill="rgb(0,0,0)" stroke="rgb(0,0,0)" stroke-width="1" opacity="0.8901960784313725" d="M 38.5 76 L 44 76.5 L 38.5 77 L 38.5 76 Z " /><path fill="rgb(0,0,0)" stroke="rgb(0,0,0)" stroke-width="1" opacity="0.8901960784313725" d="M 468.5 76 L 474 76.5 L 468.5 77 L 468.5 76 Z " /><path fill="rgb(0,0,0)" stroke="rgb(0,0,0)" stroke-width="1" opacity="0.8901960784313725" d="M 27.5 79 L 29 79.5 L 25.5 81 L 25.5 80 L 27.5 79 Z " /><path fill="rgb(0,0,0)" stroke="rgb(0,0,0)" stroke-width="1" opacity="0.8901960784313725" d="M 485.5 80 L 490 82.5 L 488.5 82 Q 484.8 81.7 485.5 80 Z " /><path fill="rgb(0,0,0)" stroke="rgb(0,0,0)" stroke-width="1" opacity="0.8901960784313725" d="M 23.5 81 L 22.5 83 L 23.5 81 Z " /><path fill="rgb(0,0,0)" stroke="rgb(0,0,0)" stroke-width="1" opacity="0.8901960784313725" d="M 20.5 83 L 19.5 85 L 20.5 83 Z " /><path fill="rgb(0,0,0)" stroke="rgb(0,0,0)" stroke-width="1" opacity="0.8901960784313725" d="M 491.5 83 L 492.5 85 L 491.5 83 Z " /><path fill="rgb(0,0,0)" stroke="rgb(0,0,0)" stroke-width="1" opacity="0.8901960784313725" d="M 17.5 85 L 9.5 94 L 17.5 85 Z " /><path fill="rgb(0,0,0)" stroke="rgb(0,0,0)" stroke-width="1" opacity="0.8901960784313725" d="M 494.5 85 L 502.5 94 L 494.5 85 Z " /><path fill="rgb(0,0,0)" stroke="rgb(0,0,0)" stroke-width="1" opacity="0.8901960784313725" d="M 8.5 95 L 7.5 97 L 8.5 95 Z " /><path fill="rgb(0,0,0)" stroke="rgb(0,0,0)" stroke-width="1" opacity="0.8901960784313725" d="M 503.5 95 L 504.5 97 L 503.5 95 Z " /><path fill="rgb(0,0,0)" stroke="rgb(0,0,0)" stroke-width="1" opacity="0.8901960784313725" d="M 6.5 98 L 5.5 100 L 6.5 98 Z " /><path fill="rgb(0,0,0)" stroke="rgb(0,0,0)" stroke-width="1" opacity="0.8901960784313725" d="M 505.5 98 L 508 102.5 L 507 102.5 L 505.5 98 Z " /><path fill="rgb(0,0,0)" stroke="rgb(0,0,0)" stroke-width="1" opacity="0.8901960784313725" d="M 4.5 101 L 5 102.5 L 3.5 105 L 3 103.5 L 4.5 101 Z " /><path fill="rgb(0,0,0)" stroke="rgb(0,0,0)" stroke-width="1" opacity="0.8901960784313725" d="M 0.5 114 L 1 119.5 L 0 119.5 L 0.5 114 Z " /><path fill="rgb(0,0,0)" stroke="rgb(0,0,0)" stroke-width="1" opacity="0.8901960784313725" d="M 511.5 114 L 512 119.5 L 511 119.5 L 511.5 114 Z " /><path fill="rgb(0,0,0)" stroke="rgb(0,0,0)" stroke-width="1" opacity="0.8901960784313725" d="M 30.5 126 L 80.5 177 L 30.5 126 Z " /><path fill="rgb(0,0,0)" stroke="rgb(0,0,0)" stroke-width="1" opacity="0.8901960784313725" d="M 481.5 126 L 434.5 174 L 481.5 126 Z " /><path fill="rgb(0,0,0)" stroke="rgb(0,0,0)" stroke-width="1" opacity="0.8901960784313725" d="M 388.5 178 L 266.5 301 L 388.5 178 Z " /><path fill="rgb(0,0,0)" stroke="rgb(0,0,0)" stroke-width="1" opacity="0.8901960784313725" d="M 127.5 182 L 245.5 301 L 127.5 182 Z " /><path fill="rgb(0,0,0)" stroke="rgb(0,0,0)" stroke-width="1" opacity="0.8901960784313725" d="M 179.5 277 L 225 321.5 L 180.5 278 L 123.5 334 L 179.5 277 Z " /><path fill="rgb(0,0,0)" stroke="rgb(0,0,0)" stroke-width="1" opacity="0.8901960784313725" d="M 331.5 277 L 388 332.5 L 332.5 278 L 287.5 322 L 331.5 277 Z " /><path fill="rgb(0,0,0)" stroke="rgb(0,0,0)" stroke-width="1" opacity="0.8901960784313725" d="M 252.5 303 L 260 303.5 L 252.5 304 L 252.5 303 Z " /><path fill="rgb(0,0,0)" stroke="rgb(0,0,0)" stroke-width="1" opacity="0.8901960784313725" d="M 227.5 323 L 228.5 325 L 227.5 323 Z " /><path fill="rgb(0,0,0)" stroke="rgb(0,0,0)" stroke-width="1" opacity="0.8901960784313725" d="M 284.5 323 L 282.5 326 L 284.5 323 Z " /><path fill="rgb(0,0,0)" stroke="rgb(0,0,0)" stroke-width="1" opacity="0.8901960784313725" d="M 233.5 327 L 236 328.5 L 234.5 329 L 233.5 327 Z " /><path fill="rgb(0,0,0)" stroke="rgb(0,0,0)" stroke-width="1" opacity="0.8901960784313725" d="M 278.5 327 L 277.5 329 L 276 328.5 L 278.5 327 Z " /><path fill="rgb(0,0,0)" stroke="rgb(0,0,0)" stroke-width="1" opacity="0.8901960784313725" d="M 246.5 332 L 249 332.5 L 246.5 333 L 246.5 332 Z " /><path fill="rgb(0,0,0)" stroke="rgb(0,0,0)" stroke-width="1" opacity="0.8901960784313725" d="M 263.5 332 L 266 332.5 L 263.5 333 L 263.5 332 Z " /><path fill="rgb(0,0,0)" stroke="rgb(0,0,0)" stroke-width="1" opacity="0.8901960784313725" d="M 79.5 336 L 30.5 386 L 79.5 336 Z " /><path fill="rgb(0,0,0)" stroke="rgb(0,0,0)" stroke-width="1" opacity="0.8901960784313725" d="M 435.5 339 L 481.5 386 L 435.5 339 Z " /><path fill="rgb(0,0,0)" stroke="rgb(0,0,0)" stroke-width="1" opacity="0.8901960784313725" d="M 0.5 392 L 1 397.5 L 0 397.5 L 0.5 392 Z " /><path fill="rgb(0,0,0)" stroke="rgb(0,0,0)" stroke-width="1" opacity="0.8901960784313725" d="M 511.5 392 L 512 397.5 L 511 397.5 L 511.5 392 Z " /><path fill="rgb(0,0,0)" stroke="rgb(0,0,0)" stroke-width="1" opacity="0.8901960784313725" d="M 4.5 409 L 7 413.5 L 5 412.5 L 4.5 409 Z " /><path fill="rgb(0,0,0)" stroke="rgb(0,0,0)" stroke-width="1" opacity="0.8901960784313725" d="M 507.5 409 L 508 410.5 L 505.5 414 L 506 412.5 L 507.5 409 Z " /><path fill="rgb(0,0,0)" stroke="rgb(0,0,0)" stroke-width="1" opacity="0.8901960784313725" d="M 7.5 415 L 8.5 417 L 7.5 415 Z " /><path fill="rgb(0,0,0)" stroke="rgb(0,0,0)" stroke-width="1" opacity="0.8901960784313725" d="M 504.5 415 L 503.5 417 L 504.5 415 Z " /><path fill="rgb(0,0,0)" stroke="rgb(0,0,0)" stroke-width="1" opacity="0.8901960784313725" d="M 9.5 418 L 17.5 427 L 9.5 418 Z " /><path fill="rgb(0,0,0)" stroke="rgb(0,0,0)" stroke-width="1" opacity="0.8901960784313725" d="M 502.5 418 L 494.5 427 L 502.5 418 Z " /><path fill="rgb(0,0,0)" stroke="rgb(0,0,0)" stroke-width="1" opacity="0.8901960784313725" d="M 19.5 427 L 20.5 429 L 19.5 427 Z " /><path fill="rgb(0,0,0)" stroke="rgb(0,0,0)" stroke-width="1" opacity="0.8901960784313725" d="M 492.5 427 L 491.5 429 L 492.5 427 Z " /><path fill="rgb(0,0,0)" stroke="rgb(0,0,0)" stroke-width="1" opacity="0.8901960784313725" d="M 22.5 429 L 25 430.5 L 23.5 431 L 22.5 429 Z " /><path fill="rgb(0,0,0)" stroke="rgb(0,0,0)" stroke-width="1" opacity="0.8901960784313725" d="M 489.5 429 L 488.5 431 L 485.5 432 L 485.5 431 L 489.5 429 Z " /><path fill="rgb(0,0,0)" stroke="rgb(0,0,0)" stroke-width="1" opacity="0.8901960784313725" d="M 38.5 435 L 44 435.5 L 38.5 436 L 38.5 435 Z " /><path fill="rgb(0,0,0)" stroke="rgb(0,0,0)" stroke-width="1" opacity="0.8901960784313725" d="M 468.5 435 L 474 435.5 L 468.5 436 L 468.5 435 Z " /><path fill="rgb(0,0,0)" stroke="rgb(0,0,0)" stroke-width="1" opacity="1" d="M 44.5 76 L 467.5 76 L 468.5 77 L 476.5 77 L 490.5 83 L 503 94.5 L 509 105.5 L 512 120.5 L 512 391.5 L 511 392.5 L 511 400.5 L 505 414.5 L 493.5 427 L 482.5 433 L 467.5 436 L 44.5 436 L 43.5 435 L 32.5 434 L 21.5 429 L 9 417.5 L 3 406.5 L 0 391.5 L 0 120.5 L 1 119.5 L 1 111.5 L 5 100.5 L 18.5 85 L 29.5 79 L 44.5 76 Z M 53 106 L 127 183 L 246 301 L 253 304 Q 262 305 267 301 L 460 107 L 53 106 Z M 31 126 L 31 386 L 159 257 L 31 126 Z M 482 126 L 353 256 L 435 340 L 482 386 L 482 126 Z M 180 277 L 52 406 L 460 406 L 390 336 Q 391 333 388 334 L 388 333 L 333 277 L 286 323 Q 277 331 263 333 L 245 332 L 231 326 L 180 277 Z " /><path fill="rgb(0,0,0)" stroke="rgb(0,0,0)" stroke-width="1" opacity="0" d="M 0 0 L 511.5 0 L 512 0.5 L 512 113.5 L 511 113.5 Q 508.2 93.8 494.5 85 Q 486.2 78.3 473.5 76 L 38.5 76 Q 18.7 79.7 9 93.5 Q 2.1 101.1 0.5 114 L 0 0 Z " /><path fill="rgb(0,0,0)" stroke="rgb(0,0,0)" stroke-width="1" opacity="0" d="M 52.5 106 L 460 106.5 L 265.5 301 Q 260.8 304.8 250.5 303 L 246.5 301 L 52.5 106 Z " /><path fill="rgb(0,0,0)" stroke="rgb(0,0,0)" stroke-width="1" opacity="0" d="M 30.5 127 L 159 256.5 L 30 384.5 L 30.5 127 Z " /><path fill="rgb(0,0,0)" stroke="rgb(0,0,0)" stroke-width="1" opacity="0" d="M 481.5 127 L 482 384.5 L 354 257.5 L 353 255.5 L 481.5 127 Z " /><path fill="rgb(0,0,0)" stroke="rgb(0,0,0)" stroke-width="1" opacity="0" d="M 179.5 278 L 228.5 325 L 242.5 332 L 256.5 334 L 257.5 333 L 269.5 332 L 282.5 326 L 332.5 278 L 459.5 406 L 52 405.5 L 179.5 278 Z " /><path fill="rgb(0,0,0)" stroke="rgb(0,0,0)" stroke-width="1" opacity="0" d="M 0.5 398 Q 3.8 417.7 17.5 427 Q 25.7 433.7 38.5 436 L 473.5 436 Q 493.3 432.3 503 418.5 Q 509.7 410.7 511.5 398 L 512 512 L 0.5 512 L 0 511.5 L 0.5 398 Z " /></svg>