<svg width="512" height="512" version="1.1" xmlns="http://www.w3.org/2000/svg" desc="Created with imagetracer.js version 1.2.6" ><path fill="rgb(0,0,0)" stroke="rgb(0,0,0)" stroke-width="1" opacity="0" d="M 0 0 L 143 0.5 L 135.5 2 Q 126.8 5.3 121 11.5 L 113 24.5 L 111 33.5 L 111 478.5 L 113 487.5 Q 116.3 496.3 122.5 502 Q 129.5 510 143 511.5 L 0 512 L 0 0 Z " /><path fill="rgb(0,0,0)" stroke="rgb(0,0,0)" stroke-width="1" opacity="0" d="M 369.5 0 L 511.5 0 L 512 0.5 L 512 512 L 369 511.5 L 376.5 510 Q 385.3 506.8 391 500.5 L 399 487.5 L 401 478.5 L 401 33.5 L 399 24.5 Q 395.8 15.8 389.5 10 L 384.5 6 Q 379.1 1.4 369.5 1 L 369.5 0 Z " /><path fill="rgb(0,0,0)" stroke="rgb(0,0,0)" stroke-width="1" opacity="0" d="M 201.5 23 L 310.5 23 L 313 25.5 L 314 35.5 L 309.5 41 L 203.5 41 L 199 37.5 L 198 28.5 L 201.5 23 Z " /><path fill="rgb(0,0,0)" stroke="rgb(0,0,0)" stroke-width="1" opacity="0" d="M 139 63 L 373 63 L 373 394 L 139 394 L 139 63 Z " /><path fill="rgb(0,0,0)" stroke="rgb(0,0,0)" stroke-width="1" opacity="0" d="M 250.5 428 L 261.5 428 Q 269.3 430.3 274 435.5 Q 280.1 441.4 280 453.5 Q 277.8 466.3 268.5 472 Q 262.7 476.2 251.5 475 Q 240.8 472.7 236 464.5 Q 231.8 459.2 232 449.5 L 234 441.5 L 240.5 433 L 250.5 428 Z " /><path fill="rgb(0,0,0)" stroke="rgb(0,0,0)" stroke-width="1" opacity="0.996078431372549" d="M 143.5 0 L 368.5 0 Q 382.9 2.6 391 11.5 L 399 24.5 L 401 33.5 L 401 478.5 L 399 487.5 Q 395.8 496.3 389.5 502 Q 381.8 509.8 368.5 512 L 143.5 512 Q 129.1 509.4 121 500.5 L 113 487.5 L 111 478.5 L 111 33.5 L 113 24.5 Q 116.3 15.8 122.5 10 Q 130.2 2.2 143.5 0 Z M 202 23 L 198 29 L 199 38 L 204 41 L 310 41 L 314 36 L 313 26 L 311 23 L 202 23 Z M 139 63 L 139 394 L 373 394 L 373 63 L 139 63 Z M 251 428 L 241 433 L 234 442 L 232 450 Q 232 459 236 465 Q 241 473 252 475 Q 263 476 269 472 Q 278 466 280 454 Q 280 441 274 436 Q 269 430 262 428 L 251 428 Z " /></svg>