<svg width="512" height="512" version="1.1" xmlns="http://www.w3.org/2000/svg" desc="Created with imagetracer.js version 1.2.6" ><path fill="rgb(0,0,0)" stroke="rgb(0,0,0)" stroke-width="1" opacity="0" d="M 0 0 L 512 0 L 512 512 L 0 512 L 0 0 Z M 178 48 L 177 49 L 156 51 L 140 55 L 118 63 Q 88 76 67 96 Q 39 121 22 157 Q 14 174 9 196 L 7 206 L 7 213 L 6 214 L 6 224 L 5 225 Q 3 236 7 243 Q 11 249 19 251 L 67 251 L 65 272 L 64 273 L 64 280 L 63 281 L 63 288 L 62 289 L 62 296 L 61 297 L 61 304 L 60 305 L 60 312 L 59 313 L 59 320 L 58 321 L 58 328 L 57 329 L 57 336 L 56 337 L 56 344 L 55 345 L 55 352 L 54 353 L 54 360 L 53 361 L 53 368 L 52 369 L 52 376 L 51 377 L 51 384 L 50 385 L 50 392 L 49 393 L 49 400 L 48 401 L 48 414 L 50 423 L 60 442 Q 73 459 99 464 L 414 464 Q 431 461 443 451 Q 460 437 464 411 L 464 400 L 463 399 L 463 392 L 462 391 L 462 384 L 461 383 L 461 376 L 460 375 L 460 368 L 459 367 L 459 360 L 458 359 L 458 352 L 457 351 L 457 344 L 456 343 L 456 336 L 455 335 L 455 328 L 454 327 L 454 320 L 453 319 L 453 312 L 452 311 L 452 304 L 451 303 L 451 296 L 450 295 L 450 288 L 449 287 L 449 280 L 448 279 L 448 272 L 447 271 L 447 264 L 445 251 L 494 251 L 503 246 L 507 238 L 507 226 L 506 225 L 506 214 L 505 213 L 504 201 L 495 169 Q 481 134 458 109 Q 421 66 357 51 L 346 50 L 345 49 L 336 49 L 335 48 L 178 48 Z " /><path fill="rgb(0,0,0)" stroke="rgb(0,0,0)" stroke-width="1" opacity="0" d="M 182.5 80 L 329.5 80 L 330.5 81 L 340.5 81 L 356.5 84 Q 408.2 98.3 438 134.5 Q 451.7 150.3 461 170.5 L 469 192.5 L 474 217.5 L 472.5 219 L 379 219 L 379 186.5 L 377 176.5 L 370 160.5 L 362 150 L 351.5 142 L 341.5 137 L 325.5 133 L 186.5 133 L 170.5 137 L 150 150 L 142 160.5 L 135 176.5 L 133 186.5 L 133 219 L 39.5 219 L 38 217.5 L 45 185.5 L 56 160.5 Q 70.2 135.2 91.5 117 Q 110.7 100.2 136.5 90 L 155.5 84 L 171.5 81 L 181.5 81 L 182.5 80 Z " /><path fill="rgb(0,0,0)" stroke="rgb(0,0,0)" stroke-width="1" opacity="0" d="M 191.5 165 L 320.5 165 Q 321.8 167.3 326.5 166 L 335.5 170 L 342 176.5 L 345 182.5 L 347 191.5 L 347 239.5 L 353.5 248 L 360.5 251 L 413 251 L 419 306.5 L 420 307.5 L 420 314.5 L 421 315.5 L 421 322.5 L 422 323.5 L 422 330.5 L 423 331.5 L 423 338.5 L 424 339.5 L 424 346.5 L 425 347.5 L 425 354.5 L 426 355.5 L 426 362.5 L 427 363.5 L 427 370.5 L 428 371.5 L 431 401.5 L 432 402.5 L 432 409.5 Q 429.5 420 422.5 426 L 409.5 432 L 102.5 432 Q 90.9 429.6 85 421.5 L 80 411.5 L 80 403.5 L 81 402.5 L 81 395.5 L 82 394.5 L 82 387.5 L 83 386.5 L 83 379.5 L 84 378.5 L 84 371.5 L 85 370.5 L 85 363.5 L 86 362.5 L 86 355.5 L 87 354.5 L 87 347.5 L 88 346.5 L 88 339.5 L 89 338.5 L 89 331.5 L 90 330.5 L 90 323.5 L 91 322.5 L 91 315.5 L 92 314.5 L 92 307.5 L 93 306.5 L 99 251 L 151.5 251 Q 159.6 249.6 163 243.5 L 165 239.5 L 165 191.5 Q 167.3 190.3 166 185.5 Q 168.8 175.3 176.5 170 L 182.5 167 L 191.5 165 Z M 250 229 L 228 234 L 207 246 Q 193 256 185 272 L 178 290 L 176 301 L 176 319 L 178 330 Q 183 348 194 361 Q 211 383 245 389 L 268 389 L 281 386 Q 296 381 308 371 Q 330 353 336 319 L 336 301 L 334 290 Q 329 272 319 260 Q 306 243 285 234 L 263 229 L 250 229 Z " /><path fill="rgb(0,0,0)" stroke="rgb(0,0,0)" stroke-width="1" opacity="0" d="M 255.5 261 L 272.5 264 Q 285.2 268.8 293 278.5 L 302 294.5 L 304 304.5 L 304 314.5 L 301 326.5 L 290 344 L 283.5 349 L 271.5 355 L 263.5 357 L 248.5 357 L 235.5 353 L 222 344 L 211 326.5 L 208 314.5 L 208 304.5 L 210 294.5 L 213 287.5 L 225.5 272 L 239.5 264 L 255.5 261 Z " /><path fill="rgb(0,0,0)" stroke="rgb(0,0,0)" stroke-width="1" opacity="0.7647058823529411" d="M 177.5 48 L 188 48.5 L 177.5 49 L 177.5 48 Z " /><path fill="rgb(0,0,0)" stroke="rgb(0,0,0)" stroke-width="1" opacity="0.7647058823529411" d="M 324.5 48 L 335 48.5 L 324.5 49 L 324.5 48 Z " /><path fill="rgb(0,0,0)" stroke="rgb(0,0,0)" stroke-width="1" opacity="0.7647058823529411" d="M 168.5 49 L 172 49.5 L 168.5 50 L 168.5 49 Z " /><path fill="rgb(0,0,0)" stroke="rgb(0,0,0)" stroke-width="1" opacity="0.7647058823529411" d="M 340.5 49 L 345 49.5 L 340.5 50 L 340.5 49 Z " /><path fill="rgb(0,0,0)" stroke="rgb(0,0,0)" stroke-width="1" opacity="0.7647058823529411" d="M 161.5 50 L 164 50.5 L 161.5 51 L 161.5 50 Z " /><path fill="rgb(0,0,0)" stroke="rgb(0,0,0)" stroke-width="1" opacity="0.7647058823529411" d="M 348.5 50 L 351 50.5 L 348.5 51 L 348.5 50 Z " /><path fill="rgb(0,0,0)" stroke="rgb(0,0,0)" stroke-width="1" opacity="0.7647058823529411" d="M 155.5 51 L 158 51.5 L 155.5 52 L 155.5 51 Z " /><path fill="rgb(0,0,0)" stroke="rgb(0,0,0)" stroke-width="1" opacity="0.7647058823529411" d="M 354.5 51 L 357 51.5 L 354.5 52 L 354.5 51 Z " /><path fill="rgb(0,0,0)" stroke="rgb(0,0,0)" stroke-width="1" opacity="0.7647058823529411" d="M 412.5 72 L 413.5 74 L 412.5 72 Z " /><path fill="rgb(0,0,0)" stroke="rgb(0,0,0)" stroke-width="1" opacity="0.7647058823529411" d="M 94.5 75 L 93.5 77 L 94.5 75 Z " /><path fill="rgb(0,0,0)" stroke="rgb(0,0,0)" stroke-width="1" opacity="0.7647058823529411" d="M 417.5 75 L 418.5 77 L 417.5 75 Z " /><path fill="rgb(0,0,0)" stroke="rgb(0,0,0)" stroke-width="1" opacity="0.7647058823529411" d="M 91.5 77 L 90.5 79 L 91.5 77 Z " /><path fill="rgb(0,0,0)" stroke="rgb(0,0,0)" stroke-width="1" opacity="0.7647058823529411" d="M 420.5 77 L 421.5 79 L 420.5 77 Z " /><path fill="rgb(0,0,0)" stroke="rgb(0,0,0)" stroke-width="1" opacity="0.7647058823529411" d="M 88.5 79 L 87.5 81 L 88.5 79 Z " /><path fill="rgb(0,0,0)" stroke="rgb(0,0,0)" stroke-width="1" opacity="0.7647058823529411" d="M 423.5 79 L 424.5 81 L 423.5 79 Z " /><path fill="rgb(0,0,0)" stroke="rgb(0,0,0)" stroke-width="1" opacity="0.7647058823529411" d="M 176.5 80 L 182 80.5 L 176.5 81 L 176.5 80 Z " /><path fill="rgb(0,0,0)" stroke="rgb(0,0,0)" stroke-width="1" opacity="0.7647058823529411" d="M 330.5 80 L 336 80.5 L 330.5 81 L 330.5 80 Z " /><path fill="rgb(0,0,0)" stroke="rgb(0,0,0)" stroke-width="1" opacity="0.7647058823529411" d="M 85.5 81 L 84.5 83 L 85.5 81 Z " /><path fill="rgb(0,0,0)" stroke="rgb(0,0,0)" stroke-width="1" opacity="0.7647058823529411" d="M 168.5 81 L 171 81.5 L 168.5 82 L 168.5 81 Z " /><path fill="rgb(0,0,0)" stroke="rgb(0,0,0)" stroke-width="1" opacity="0.7647058823529411" d="M 341.5 81 L 344 81.5 L 341.5 82 L 341.5 81 Z " /><path fill="rgb(0,0,0)" stroke="rgb(0,0,0)" stroke-width="1" opacity="0.7647058823529411" d="M 426.5 81 L 427.5 83 L 426.5 81 Z " /><path fill="rgb(0,0,0)" stroke="rgb(0,0,0)" stroke-width="1" opacity="0.7647058823529411" d="M 162.5 82 L 165 82.5 L 162.5 83 L 162.5 82 Z " /><path fill="rgb(0,0,0)" stroke="rgb(0,0,0)" stroke-width="1" opacity="0.7647058823529411" d="M 347.5 82 L 350 82.5 L 347.5 83 L 347.5 82 Z " /><path fill="rgb(0,0,0)" stroke="rgb(0,0,0)" stroke-width="1" opacity="0.7647058823529411" d="M 429.5 83 L 431.5 86 L 429.5 83 Z " /><path fill="rgb(0,0,0)" stroke="rgb(0,0,0)" stroke-width="1" opacity="0.7647058823529411" d="M 78.5 86 L 76.5 89 L 78.5 86 Z " /><path fill="rgb(0,0,0)" stroke="rgb(0,0,0)" stroke-width="1" opacity="0.7647058823529411" d="M 433.5 86 L 435.5 89 L 433.5 86 Z " /><path fill="rgb(0,0,0)" stroke="rgb(0,0,0)" stroke-width="1" opacity="0.7647058823529411" d="M 73.5 90 L 70.5 94 L 73.5 90 Z " /><path fill="rgb(0,0,0)" stroke="rgb(0,0,0)" stroke-width="1" opacity="0.7647058823529411" d="M 438.5 90 L 441.5 94 L 438.5 90 Z " /><path fill="rgb(0,0,0)" stroke="rgb(0,0,0)" stroke-width="1" opacity="0.7647058823529411" d="M 66.5 96 L 54.5 109 L 66.5 96 Z " /><path fill="rgb(0,0,0)" stroke="rgb(0,0,0)" stroke-width="1" opacity="0.7647058823529411" d="M 445.5 96 L 457.5 109 L 445.5 96 Z " /><path fill="rgb(0,0,0)" stroke="rgb(0,0,0)" stroke-width="1" opacity="0.7647058823529411" d="M 114.5 100 L 113.5 102 L 114.5 100 Z " /><path fill="rgb(0,0,0)" stroke="rgb(0,0,0)" stroke-width="1" opacity="0.7647058823529411" d="M 397.5 100 L 398.5 102 L 397.5 100 Z " /><path fill="rgb(0,0,0)" stroke="rgb(0,0,0)" stroke-width="1" opacity="0.7647058823529411" d="M 109.5 103 L 108.5 105 L 109.5 103 Z " /><path fill="rgb(0,0,0)" stroke="rgb(0,0,0)" stroke-width="1" opacity="0.7647058823529411" d="M 402.5 103 L 403.5 105 L 402.5 103 Z " /><path fill="rgb(0,0,0)" stroke="rgb(0,0,0)" stroke-width="1" opacity="0.7647058823529411" d="M 106.5 105 L 105.5 107 L 106.5 105 Z " /><path fill="rgb(0,0,0)" stroke="rgb(0,0,0)" stroke-width="1" opacity="0.7647058823529411" d="M 405.5 105 L 406.5 107 L 405.5 105 Z " /><path fill="rgb(0,0,0)" stroke="rgb(0,0,0)" stroke-width="1" opacity="0.7647058823529411" d="M 103.5 107 L 102.5 109 L 103.5 107 Z " /><path fill="rgb(0,0,0)" stroke="rgb(0,0,0)" stroke-width="1" opacity="0.7647058823529411" d="M 408.5 107 L 409.5 109 L 408.5 107 Z " /><path fill="rgb(0,0,0)" stroke="rgb(0,0,0)" stroke-width="1" opacity="0.7647058823529411" d="M 99.5 110 L 98.5 112 L 99.5 110 Z " /><path fill="rgb(0,0,0)" stroke="rgb(0,0,0)" stroke-width="1" opacity="0.7647058823529411" d="M 412.5 110 L 413.5 112 L 412.5 110 Z " /><path fill="rgb(0,0,0)" stroke="rgb(0,0,0)" stroke-width="1" opacity="0.7647058823529411" d="M 51.5 112 L 47.5 117 L 51.5 112 Z " /><path fill="rgb(0,0,0)" stroke="rgb(0,0,0)" stroke-width="1" opacity="0.7647058823529411" d="M 460.5 112 L 464.5 117 L 460.5 112 Z " /><path fill="rgb(0,0,0)" stroke="rgb(0,0,0)" stroke-width="1" opacity="0.7647058823529411" d="M 95.5 113 L 92.5 117 L 95.5 113 Z " /><path fill="rgb(0,0,0)" stroke="rgb(0,0,0)" stroke-width="1" opacity="0.7647058823529411" d="M 416.5 113 L 418.5 116 L 416.5 113 Z " /><path fill="rgb(0,0,0)" stroke="rgb(0,0,0)" stroke-width="1" opacity="0.7647058823529411" d="M 46.5 118 L 44.5 121 L 46.5 118 Z " /><path fill="rgb(0,0,0)" stroke="rgb(0,0,0)" stroke-width="1" opacity="0.7647058823529411" d="M 422.5 118 L 435.5 132 L 422.5 118 Z " /><path fill="rgb(0,0,0)" stroke="rgb(0,0,0)" stroke-width="1" opacity="0.7647058823529411" d="M 465.5 118 L 467.5 121 L 465.5 118 Z " /><path fill="rgb(0,0,0)" stroke="rgb(0,0,0)" stroke-width="1" opacity="0.7647058823529411" d="M 88.5 119 L 76.5 132 L 88.5 119 Z " /><path fill="rgb(0,0,0)" stroke="rgb(0,0,0)" stroke-width="1" opacity="0.7647058823529411" d="M 42.5 123 L 41.5 125 L 42.5 123 Z " /><path fill="rgb(0,0,0)" stroke="rgb(0,0,0)" stroke-width="1" opacity="0.7647058823529411" d="M 469.5 123 L 470.5 125 L 469.5 123 Z " /><path fill="rgb(0,0,0)" stroke="rgb(0,0,0)" stroke-width="1" opacity="0.7647058823529411" d="M 39.5 127 L 38.5 129 L 39.5 127 Z " /><path fill="rgb(0,0,0)" stroke="rgb(0,0,0)" stroke-width="1" opacity="0.7647058823529411" d="M 472.5 127 L 473.5 129 L 472.5 127 Z " /><path fill="rgb(0,0,0)" stroke="rgb(0,0,0)" stroke-width="1" opacity="0.7647058823529411" d="M 37.5 130 L 36.5 132 L 37.5 130 Z " /><path fill="rgb(0,0,0)" stroke="rgb(0,0,0)" stroke-width="1" opacity="0.7647058823529411" d="M 474.5 130 L 475.5 132 L 474.5 130 Z " /><path fill="rgb(0,0,0)" stroke="rgb(0,0,0)" stroke-width="1" opacity="0.7647058823529411" d="M 35.5 133 L 34.5 135 L 35.5 133 Z " /><path fill="rgb(0,0,0)" stroke="rgb(0,0,0)" stroke-width="1" opacity="0.7647058823529411" d="M 186.5 133 L 326 133.5 L 186.5 134 L 186.5 133 Z " /><path fill="rgb(0,0,0)" stroke="rgb(0,0,0)" stroke-width="1" opacity="0.7647058823529411" d="M 476.5 133 L 477.5 135 L 476.5 133 Z " /><path fill="rgb(0,0,0)" stroke="rgb(0,0,0)" stroke-width="1" opacity="0.7647058823529411" d="M 73.5 135 L 71.5 138 L 73.5 135 Z " /><path fill="rgb(0,0,0)" stroke="rgb(0,0,0)" stroke-width="1" opacity="0.7647058823529411" d="M 438.5 135 L 440.5 138 L 438.5 135 Z " /><path fill="rgb(0,0,0)" stroke="rgb(0,0,0)" stroke-width="1" opacity="0.7647058823529411" d="M 32.5 138 L 31.5 140 L 32.5 138 Z " /><path fill="rgb(0,0,0)" stroke="rgb(0,0,0)" stroke-width="1" opacity="0.7647058823529411" d="M 69.5 140 L 67.5 143 L 69.5 140 Z " /><path fill="rgb(0,0,0)" stroke="rgb(0,0,0)" stroke-width="1" opacity="0.7647058823529411" d="M 442.5 140 L 444.5 143 L 442.5 140 Z " /><path fill="rgb(0,0,0)" stroke="rgb(0,0,0)" stroke-width="1" opacity="0.7647058823529411" d="M 351.5 142 L 352.5 144 L 351.5 142 Z " /><path fill="rgb(0,0,0)" stroke="rgb(0,0,0)" stroke-width="1" opacity="0.7647058823529411" d="M 29.5 143 L 28.5 145 L 29.5 143 Z " /><path fill="rgb(0,0,0)" stroke="rgb(0,0,0)" stroke-width="1" opacity="0.7647058823529411" d="M 66.5 144 L 65.5 146 L 66.5 144 Z " /><path fill="rgb(0,0,0)" stroke="rgb(0,0,0)" stroke-width="1" opacity="0.7647058823529411" d="M 445.5 144 L 446.5 146 L 445.5 144 Z " /><path fill="rgb(0,0,0)" stroke="rgb(0,0,0)" stroke-width="1" opacity="0.7647058823529411" d="M 156.5 145 L 155.5 147 L 156.5 145 Z " /><path fill="rgb(0,0,0)" stroke="rgb(0,0,0)" stroke-width="1" opacity="0.7647058823529411" d="M 355.5 145 L 356.5 147 L 355.5 145 Z " /><path fill="rgb(0,0,0)" stroke="rgb(0,0,0)" stroke-width="1" opacity="0.7647058823529411" d="M 60.5 153 L 59.5 155 L 60.5 153 Z " /><path fill="rgb(0,0,0)" stroke="rgb(0,0,0)" stroke-width="1" opacity="0.7647058823529411" d="M 451.5 153 L 452.5 155 L 451.5 153 Z " /><path fill="rgb(0,0,0)" stroke="rgb(0,0,0)" stroke-width="1" opacity="0.7647058823529411" d="M 146.5 155 L 145.5 157 L 146.5 155 Z " /><path fill="rgb(0,0,0)" stroke="rgb(0,0,0)" stroke-width="1" opacity="0.7647058823529411" d="M 365.5 155 L 366.5 157 L 365.5 155 Z " /><path fill="rgb(0,0,0)" stroke="rgb(0,0,0)" stroke-width="1" opacity="0.7647058823529411" d="M 57.5 158 L 56.5 160 L 57.5 158 Z " /><path fill="rgb(0,0,0)" stroke="rgb(0,0,0)" stroke-width="1" opacity="0.7647058823529411" d="M 454.5 158 L 455.5 160 L 454.5 158 Z " /><path fill="rgb(0,0,0)" stroke="rgb(0,0,0)" stroke-width="1" opacity="0.7647058823529411" d="M 143.5 159 L 142.5 161 L 143.5 159 Z " /><path fill="rgb(0,0,0)" stroke="rgb(0,0,0)" stroke-width="1" opacity="0.7647058823529411" d="M 368.5 159 L 369.5 161 L 368.5 159 Z " /><path fill="rgb(0,0,0)" stroke="rgb(0,0,0)" stroke-width="1" opacity="0.7647058823529411" d="M 187.5 165 L 191 165.5 L 187.5 166 L 187.5 165 Z " /><path fill="rgb(0,0,0)" stroke="rgb(0,0,0)" stroke-width="1" opacity="0.7647058823529411" d="M 321.5 165 L 325 165.5 L 321.5 166 L 321.5 165 Z " /><path fill="rgb(0,0,0)" stroke="rgb(0,0,0)" stroke-width="1" opacity="0.7647058823529411" d="M 174.5 171 L 171.5 175 L 174.5 171 Z " /><path fill="rgb(0,0,0)" stroke="rgb(0,0,0)" stroke-width="1" opacity="0.7647058823529411" d="M 337.5 171 L 340.5 175 L 337.5 171 Z " /><path fill="rgb(0,0,0)" stroke="rgb(0,0,0)" stroke-width="1" opacity="0.7647058823529411" d="M 377.5 180 L 378 182.5 L 377 182.5 L 377.5 180 Z " /><path fill="rgb(0,0,0)" stroke="rgb(0,0,0)" stroke-width="1" opacity="0.7647058823529411" d="M 133.5 186 L 134 218.5 L 133 218.5 L 133.5 186 Z " /><path fill="rgb(0,0,0)" stroke="rgb(0,0,0)" stroke-width="1" opacity="0.7647058823529411" d="M 378.5 186 L 379 218.5 L 378 218.5 L 378.5 186 Z " /><path fill="rgb(0,0,0)" stroke="rgb(0,0,0)" stroke-width="1" opacity="0.7647058823529411" d="M 165.5 187 L 166 190.5 L 165 190.5 L 165.5 187 Z " /><path fill="rgb(0,0,0)" stroke="rgb(0,0,0)" stroke-width="1" opacity="0.7647058823529411" d="M 346.5 187 L 347 190.5 L 346 190.5 L 346.5 187 Z " /><path fill="rgb(0,0,0)" stroke="rgb(0,0,0)" stroke-width="1" opacity="0.7647058823529411" d="M 41.5 197 L 42 199.5 L 41 199.5 L 41.5 197 Z " /><path fill="rgb(0,0,0)" stroke="rgb(0,0,0)" stroke-width="1" opacity="0.7647058823529411" d="M 470.5 197 L 471 199.5 L 470 199.5 L 470.5 197 Z " /><path fill="rgb(0,0,0)" stroke="rgb(0,0,0)" stroke-width="1" opacity="0.7647058823529411" d="M 8.5 200 L 9 202.5 L 8 202.5 L 8.5 200 Z " /><path fill="rgb(0,0,0)" stroke="rgb(0,0,0)" stroke-width="1" opacity="0.7647058823529411" d="M 503.5 200 L 504 202.5 L 503 202.5 L 503.5 200 Z " /><path fill="rgb(0,0,0)" stroke="rgb(0,0,0)" stroke-width="1" opacity="0.7647058823529411" d="M 7.5 205 L 8 208.5 L 7 208.5 L 7.5 205 Z " /><path fill="rgb(0,0,0)" stroke="rgb(0,0,0)" stroke-width="1" opacity="0.7647058823529411" d="M 504.5 206 L 505 208.5 L 504 208.5 L 504.5 206 Z " /><path fill="rgb(0,0,0)" stroke="rgb(0,0,0)" stroke-width="1" opacity="0.7647058823529411" d="M 39.5 207 L 40 209.5 L 39 209.5 L 39.5 207 Z " /><path fill="rgb(0,0,0)" stroke="rgb(0,0,0)" stroke-width="1" opacity="0.7647058823529411" d="M 472.5 207 L 473 209.5 L 472 209.5 L 472.5 207 Z " /><path fill="rgb(0,0,0)" stroke="rgb(0,0,0)" stroke-width="1" opacity="0.7647058823529411" d="M 6.5 213 L 7 217.5 L 6 217.5 L 6.5 213 Z " /><path fill="rgb(0,0,0)" stroke="rgb(0,0,0)" stroke-width="1" opacity="0.7647058823529411" d="M 38.5 213 L 39 216.5 L 38 216.5 L 38.5 213 Z " /><path fill="rgb(0,0,0)" stroke="rgb(0,0,0)" stroke-width="1" opacity="0.7647058823529411" d="M 473.5 213 L 474 216.5 L 473 216.5 L 473.5 213 Z " /><path fill="rgb(0,0,0)" stroke="rgb(0,0,0)" stroke-width="1" opacity="0.7647058823529411" d="M 505.5 213 L 506 217.5 L 505 217.5 L 505.5 213 Z " /><path fill="rgb(0,0,0)" stroke="rgb(0,0,0)" stroke-width="1" opacity="0.7647058823529411" d="M 5.5 224 L 6 237.5 L 5 237.5 L 5.5 224 Z " /><path fill="rgb(0,0,0)" stroke="rgb(0,0,0)" stroke-width="1" opacity="0.7647058823529411" d="M 506.5 225 L 507 237.5 L 506 237.5 L 506.5 225 Z " /><path fill="rgb(0,0,0)" stroke="rgb(0,0,0)" stroke-width="1" opacity="0.7647058823529411" d="M 249.5 229 L 263 229.5 L 249.5 230 L 249.5 229 Z " /><path fill="rgb(0,0,0)" stroke="rgb(0,0,0)" stroke-width="1" opacity="0.7647058823529411" d="M 242.5 230 L 245 230.5 L 242.5 231 L 242.5 230 Z " /><path fill="rgb(0,0,0)" stroke="rgb(0,0,0)" stroke-width="1" opacity="0.7647058823529411" d="M 267.5 230 L 270 230.5 L 267.5 231 L 267.5 230 Z " /><path fill="rgb(0,0,0)" stroke="rgb(0,0,0)" stroke-width="1" opacity="0.7647058823529411" d="M 298.5 241 L 299.5 243 L 298.5 241 Z " /><path fill="rgb(0,0,0)" stroke="rgb(0,0,0)" stroke-width="1" opacity="0.7647058823529411" d="M 162.5 243 L 161.5 245 L 162.5 243 Z " /><path fill="rgb(0,0,0)" stroke="rgb(0,0,0)" stroke-width="1" opacity="0.7647058823529411" d="M 210.5 243 L 209.5 245 L 210.5 243 Z " /><path fill="rgb(0,0,0)" stroke="rgb(0,0,0)" stroke-width="1" opacity="0.7647058823529411" d="M 301.5 243 L 302.5 245 L 301.5 243 Z " /><path fill="rgb(0,0,0)" stroke="rgb(0,0,0)" stroke-width="1" opacity="0.7647058823529411" d="M 349.5 243 L 350.5 245 L 349.5 243 Z " /><path fill="rgb(0,0,0)" stroke="rgb(0,0,0)" stroke-width="1" opacity="0.7647058823529411" d="M 159.5 246 L 157.5 249 L 159.5 246 Z " /><path fill="rgb(0,0,0)" stroke="rgb(0,0,0)" stroke-width="1" opacity="0.7647058823529411" d="M 206.5 246 L 203.5 250 L 206.5 246 Z " /><path fill="rgb(0,0,0)" stroke="rgb(0,0,0)" stroke-width="1" opacity="0.7647058823529411" d="M 305.5 246 L 308.5 250 L 305.5 246 Z " /><path fill="rgb(0,0,0)" stroke="rgb(0,0,0)" stroke-width="1" opacity="0.7647058823529411" d="M 352.5 246 L 353.5 248 L 352.5 246 Z " /><path fill="rgb(0,0,0)" stroke="rgb(0,0,0)" stroke-width="1" opacity="0.7647058823529411" d="M 355.5 248 L 358 249.5 L 356.5 250 L 355.5 248 Z " /><path fill="rgb(0,0,0)" stroke="rgb(0,0,0)" stroke-width="1" opacity="0.7647058823529411" d="M 18.5 250 L 66.5 250 L 68 251.5 L 66.5 251 L 18.5 251 L 18.5 250 Z " /><path fill="rgb(0,0,0)" stroke="rgb(0,0,0)" stroke-width="1" opacity="0.7647058823529411" d="M 99.5 250 L 152 250.5 L 99.5 251 L 99.5 250 Z " /><path fill="rgb(0,0,0)" stroke="rgb(0,0,0)" stroke-width="1" opacity="0.7647058823529411" d="M 360.5 250 L 413 250.5 L 360.5 251 L 360.5 250 Z " /><path fill="rgb(0,0,0)" stroke="rgb(0,0,0)" stroke-width="1" opacity="0.7647058823529411" d="M 445.5 250 L 494 250.5 L 445.5 251 L 445.5 250 Z " /><path fill="rgb(0,0,0)" stroke="rgb(0,0,0)" stroke-width="1" opacity="0.7647058823529411" d="M 98.5 255 L 99 258.5 L 98 258.5 L 98.5 255 Z " /><path fill="rgb(0,0,0)" stroke="rgb(0,0,0)" stroke-width="1" opacity="0.7647058823529411" d="M 413.5 255 L 414 258.5 L 413 258.5 L 413.5 255 Z " /><path fill="rgb(0,0,0)" stroke="rgb(0,0,0)" stroke-width="1" opacity="0.7647058823529411" d="M 445.5 255 L 446 258.5 L 445 258.5 L 445.5 255 Z " /><path fill="rgb(0,0,0)" stroke="rgb(0,0,0)" stroke-width="1" opacity="0.7647058823529411" d="M 66.5 256 L 67 259.5 L 66 259.5 L 66.5 256 Z " /><path fill="rgb(0,0,0)" stroke="rgb(0,0,0)" stroke-width="1" opacity="0.7647058823529411" d="M 195.5 257 L 193.5 260 L 195.5 257 Z " /><path fill="rgb(0,0,0)" stroke="rgb(0,0,0)" stroke-width="1" opacity="0.7647058823529411" d="M 316.5 257 L 318.5 260 L 316.5 257 Z " /><path fill="rgb(0,0,0)" stroke="rgb(0,0,0)" stroke-width="1" opacity="0.7647058823529411" d="M 249.5 261 L 255 261.5 L 249.5 262 L 249.5 261 Z " /><path fill="rgb(0,0,0)" stroke="rgb(0,0,0)" stroke-width="1" opacity="0.7647058823529411" d="M 257.5 261 L 263 261.5 L 257.5 262 L 257.5 261 Z " /><path fill="rgb(0,0,0)" stroke="rgb(0,0,0)" stroke-width="1" opacity="0.7647058823529411" d="M 191.5 262 L 190.5 264 L 191.5 262 Z " /><path fill="rgb(0,0,0)" stroke="rgb(0,0,0)" stroke-width="1" opacity="0.7647058823529411" d="M 320.5 262 L 321.5 264 L 320.5 262 Z " /><path fill="rgb(0,0,0)" stroke="rgb(0,0,0)" stroke-width="1" opacity="0.7647058823529411" d="M 97.5 263 L 98 266.5 L 97 266.5 L 97.5 263 Z " /><path fill="rgb(0,0,0)" stroke="rgb(0,0,0)" stroke-width="1" opacity="0.7647058823529411" d="M 414.5 263 L 415 266.5 L 414 266.5 L 414.5 263 Z " /><path fill="rgb(0,0,0)" stroke="rgb(0,0,0)" stroke-width="1" opacity="0.7647058823529411" d="M 446.5 263 L 447 266.5 L 446 266.5 L 446.5 263 Z " /><path fill="rgb(0,0,0)" stroke="rgb(0,0,0)" stroke-width="1" opacity="0.7647058823529411" d="M 65.5 264 L 66 267.5 L 65 267.5 L 65.5 264 Z " /><path fill="rgb(0,0,0)" stroke="rgb(0,0,0)" stroke-width="1" opacity="0.7647058823529411" d="M 189.5 265 L 188.5 267 L 189.5 265 Z " /><path fill="rgb(0,0,0)" stroke="rgb(0,0,0)" stroke-width="1" opacity="0.7647058823529411" d="M 322.5 265 L 323.5 267 L 322.5 265 Z " /><path fill="rgb(0,0,0)" stroke="rgb(0,0,0)" stroke-width="1" opacity="0.7647058823529411" d="M 186.5 270 L 185.5 272 L 186.5 270 Z " /><path fill="rgb(0,0,0)" stroke="rgb(0,0,0)" stroke-width="1" opacity="0.7647058823529411" d="M 227.5 270 L 226.5 272 L 227.5 270 Z " /><path fill="rgb(0,0,0)" stroke="rgb(0,0,0)" stroke-width="1" opacity="0.7647058823529411" d="M 284.5 270 L 285.5 272 L 284.5 270 Z " /><path fill="rgb(0,0,0)" stroke="rgb(0,0,0)" stroke-width="1" opacity="0.7647058823529411" d="M 96.5 271 L 97 274.5 L 96 274.5 L 96.5 271 Z " /><path fill="rgb(0,0,0)" stroke="rgb(0,0,0)" stroke-width="1" opacity="0.7647058823529411" d="M 415.5 271 L 416 274.5 L 415 274.5 L 415.5 271 Z " /><path fill="rgb(0,0,0)" stroke="rgb(0,0,0)" stroke-width="1" opacity="0.7647058823529411" d="M 447.5 271 L 448 274.5 L 447 274.5 L 447.5 271 Z " /><path fill="rgb(0,0,0)" stroke="rgb(0,0,0)" stroke-width="1" opacity="0.7647058823529411" d="M 64.5 272 L 65 275.5 L 64 275.5 L 64.5 272 Z " /><path fill="rgb(0,0,0)" stroke="rgb(0,0,0)" stroke-width="1" opacity="0.7647058823529411" d="M 95.5 279 L 96 282.5 L 95 282.5 L 95.5 279 Z " /><path fill="rgb(0,0,0)" stroke="rgb(0,0,0)" stroke-width="1" opacity="0.7647058823529411" d="M 218.5 279 L 217.5 281 L 218.5 279 Z " /><path fill="rgb(0,0,0)" stroke="rgb(0,0,0)" stroke-width="1" opacity="0.7647058823529411" d="M 293.5 279 L 294.5 281 L 293.5 279 Z " /><path fill="rgb(0,0,0)" stroke="rgb(0,0,0)" stroke-width="1" opacity="0.7647058823529411" d="M 416.5 279 L 417 282.5 L 416 282.5 L 416.5 279 Z " /><path fill="rgb(0,0,0)" stroke="rgb(0,0,0)" stroke-width="1" opacity="0.7647058823529411" d="M 448.5 279 L 449 282.5 L 448 282.5 L 448.5 279 Z " /><path fill="rgb(0,0,0)" stroke="rgb(0,0,0)" stroke-width="1" opacity="0.7647058823529411" d="M 63.5 280 L 64 283.5 L 63 283.5 L 63.5 280 Z " /><path fill="rgb(0,0,0)" stroke="rgb(0,0,0)" stroke-width="1" opacity="0.7647058823529411" d="M 214.5 285 L 213.5 287 L 214.5 285 Z " /><path fill="rgb(0,0,0)" stroke="rgb(0,0,0)" stroke-width="1" opacity="0.7647058823529411" d="M 297.5 285 L 298.5 287 L 297.5 285 Z " /><path fill="rgb(0,0,0)" stroke="rgb(0,0,0)" stroke-width="1" opacity="0.7647058823529411" d="M 94.5 287 L 95 290.5 L 94 290.5 L 94.5 287 Z " /><path fill="rgb(0,0,0)" stroke="rgb(0,0,0)" stroke-width="1" opacity="0.7647058823529411" d="M 417.5 287 L 418 290.5 L 417 290.5 L 417.5 287 Z " /><path fill="rgb(0,0,0)" stroke="rgb(0,0,0)" stroke-width="1" opacity="0.7647058823529411" d="M 449.5 287 L 450 290.5 L 449 290.5 L 449.5 287 Z " /><path fill="rgb(0,0,0)" stroke="rgb(0,0,0)" stroke-width="1" opacity="0.7647058823529411" d="M 62.5 288 L 63 291.5 L 62 291.5 L 62.5 288 Z " /><path fill="rgb(0,0,0)" stroke="rgb(0,0,0)" stroke-width="1" opacity="0.7647058823529411" d="M 177.5 293 L 178 295.5 L 177 295.5 L 177.5 293 Z " /><path fill="rgb(0,0,0)" stroke="rgb(0,0,0)" stroke-width="1" opacity="0.7647058823529411" d="M 334.5 293 L 335 295.5 L 334 295.5 L 334.5 293 Z " /><path fill="rgb(0,0,0)" stroke="rgb(0,0,0)" stroke-width="1" opacity="0.7647058823529411" d="M 93.5 295 L 94 298.5 L 93 298.5 L 93.5 295 Z " /><path fill="rgb(0,0,0)" stroke="rgb(0,0,0)" stroke-width="1" opacity="0.7647058823529411" d="M 418.5 295 L 419 298.5 L 418 298.5 L 418.5 295 Z " /><path fill="rgb(0,0,0)" stroke="rgb(0,0,0)" stroke-width="1" opacity="0.7647058823529411" d="M 450.5 295 L 451 298.5 L 450 298.5 L 450.5 295 Z " /><path fill="rgb(0,0,0)" stroke="rgb(0,0,0)" stroke-width="1" opacity="0.7647058823529411" d="M 61.5 296 L 62 299.5 L 61 299.5 L 61.5 296 Z " /><path fill="rgb(0,0,0)" stroke="rgb(0,0,0)" stroke-width="1" opacity="0.7647058823529411" d="M 176.5 300 L 177 304.5 L 176 304.5 L 176.5 300 Z " /><path fill="rgb(0,0,0)" stroke="rgb(0,0,0)" stroke-width="1" opacity="0.7647058823529411" d="M 208.5 300 L 209 303.5 L 208 303.5 L 208.5 300 Z " /><path fill="rgb(0,0,0)" stroke="rgb(0,0,0)" stroke-width="1" opacity="0.7647058823529411" d="M 303.5 300 L 304 303.5 L 303 303.5 L 303.5 300 Z " /><path fill="rgb(0,0,0)" stroke="rgb(0,0,0)" stroke-width="1" opacity="0.7647058823529411" d="M 335.5 300 L 336 304.5 L 335 304.5 L 335.5 300 Z " /><path fill="rgb(0,0,0)" stroke="rgb(0,0,0)" stroke-width="1" opacity="0.7647058823529411" d="M 92.5 303 L 93 306.5 L 92 306.5 L 92.5 303 Z " /><path fill="rgb(0,0,0)" stroke="rgb(0,0,0)" stroke-width="1" opacity="0.7647058823529411" d="M 419.5 303 L 420 306.5 L 419 306.5 L 419.5 303 Z " /><path fill="rgb(0,0,0)" stroke="rgb(0,0,0)" stroke-width="1" opacity="0.7647058823529411" d="M 451.5 303 L 452 306.5 L 451 306.5 L 451.5 303 Z " /><path fill="rgb(0,0,0)" stroke="rgb(0,0,0)" stroke-width="1" opacity="0.7647058823529411" d="M 60.5 304 L 61 307.5 L 60 307.5 L 60.5 304 Z " /><path fill="rgb(0,0,0)" stroke="rgb(0,0,0)" stroke-width="1" opacity="0.7647058823529411" d="M 91.5 311 L 92 314.5 L 91 314.5 L 91.5 311 Z " /><path fill="rgb(0,0,0)" stroke="rgb(0,0,0)" stroke-width="1" opacity="0.7647058823529411" d="M 420.5 311 L 421 314.5 L 420 314.5 L 420.5 311 Z " /><path fill="rgb(0,0,0)" stroke="rgb(0,0,0)" stroke-width="1" opacity="0.7647058823529411" d="M 452.5 311 L 453 314.5 L 452 314.5 L 452.5 311 Z " /><path fill="rgb(0,0,0)" stroke="rgb(0,0,0)" stroke-width="1" opacity="0.7647058823529411" d="M 59.5 312 L 60 315.5 L 59 315.5 L 59.5 312 Z " /><path fill="rgb(0,0,0)" stroke="rgb(0,0,0)" stroke-width="1" opacity="0.7647058823529411" d="M 176.5 314 L 177 318.5 L 176 318.5 L 176.5 314 Z " /><path fill="rgb(0,0,0)" stroke="rgb(0,0,0)" stroke-width="1" opacity="0.7647058823529411" d="M 335.5 314 L 336 318.5 L 335 318.5 L 335.5 314 Z " /><path fill="rgb(0,0,0)" stroke="rgb(0,0,0)" stroke-width="1" opacity="0.7647058823529411" d="M 208.5 315 L 209 317.5 L 208 317.5 L 208.5 315 Z " /><path fill="rgb(0,0,0)" stroke="rgb(0,0,0)" stroke-width="1" opacity="0.7647058823529411" d="M 303.5 315 L 304 317.5 L 303 317.5 L 303.5 315 Z " /><path fill="rgb(0,0,0)" stroke="rgb(0,0,0)" stroke-width="1" opacity="0.7647058823529411" d="M 90.5 319 L 91 322.5 L 90 322.5 L 90.5 319 Z " /><path fill="rgb(0,0,0)" stroke="rgb(0,0,0)" stroke-width="1" opacity="0.7647058823529411" d="M 421.5 319 L 422 322.5 L 421 322.5 L 421.5 319 Z " /><path fill="rgb(0,0,0)" stroke="rgb(0,0,0)" stroke-width="1" opacity="0.7647058823529411" d="M 453.5 319 L 454 322.5 L 453 322.5 L 453.5 319 Z " /><path fill="rgb(0,0,0)" stroke="rgb(0,0,0)" stroke-width="1" opacity="0.7647058823529411" d="M 58.5 320 L 59 323.5 L 58 323.5 L 58.5 320 Z " /><path fill="rgb(0,0,0)" stroke="rgb(0,0,0)" stroke-width="1" opacity="0.7647058823529411" d="M 89.5 327 L 90 330.5 L 89 330.5 L 89.5 327 Z " /><path fill="rgb(0,0,0)" stroke="rgb(0,0,0)" stroke-width="1" opacity="0.7647058823529411" d="M 422.5 327 L 423 330.5 L 422 330.5 L 422.5 327 Z " /><path fill="rgb(0,0,0)" stroke="rgb(0,0,0)" stroke-width="1" opacity="0.7647058823529411" d="M 454.5 327 L 455 330.5 L 454 330.5 L 454.5 327 Z " /><path fill="rgb(0,0,0)" stroke="rgb(0,0,0)" stroke-width="1" opacity="0.7647058823529411" d="M 57.5 328 L 58 331.5 L 57 331.5 L 57.5 328 Z " /><path fill="rgb(0,0,0)" stroke="rgb(0,0,0)" stroke-width="1" opacity="0.7647058823529411" d="M 88.5 335 L 89 338.5 L 88 338.5 L 88.5 335 Z " /><path fill="rgb(0,0,0)" stroke="rgb(0,0,0)" stroke-width="1" opacity="0.7647058823529411" d="M 215.5 335 L 216.5 337 L 215.5 335 Z " /><path fill="rgb(0,0,0)" stroke="rgb(0,0,0)" stroke-width="1" opacity="0.7647058823529411" d="M 296.5 335 L 295.5 337 L 296.5 335 Z " /><path fill="rgb(0,0,0)" stroke="rgb(0,0,0)" stroke-width="1" opacity="0.7647058823529411" d="M 423.5 335 L 424 338.5 L 423 338.5 L 423.5 335 Z " /><path fill="rgb(0,0,0)" stroke="rgb(0,0,0)" stroke-width="1" opacity="0.7647058823529411" d="M 455.5 335 L 456 338.5 L 455 338.5 L 455.5 335 Z " /><path fill="rgb(0,0,0)" stroke="rgb(0,0,0)" stroke-width="1" opacity="0.7647058823529411" d="M 56.5 336 L 57 339.5 L 56 339.5 L 56.5 336 Z " /><path fill="rgb(0,0,0)" stroke="rgb(0,0,0)" stroke-width="1" opacity="0.7647058823529411" d="M 218.5 339 L 221.5 343 L 218.5 339 Z " /><path fill="rgb(0,0,0)" stroke="rgb(0,0,0)" stroke-width="1" opacity="0.7647058823529411" d="M 293.5 339 L 290.5 343 L 293.5 339 Z " /><path fill="rgb(0,0,0)" stroke="rgb(0,0,0)" stroke-width="1" opacity="0.7647058823529411" d="M 87.5 343 L 88 346.5 L 87 346.5 L 87.5 343 Z " /><path fill="rgb(0,0,0)" stroke="rgb(0,0,0)" stroke-width="1" opacity="0.7647058823529411" d="M 424.5 343 L 425 346.5 L 424 346.5 L 424.5 343 Z " /><path fill="rgb(0,0,0)" stroke="rgb(0,0,0)" stroke-width="1" opacity="0.7647058823529411" d="M 456.5 343 L 457 346.5 L 456 346.5 L 456.5 343 Z " /><path fill="rgb(0,0,0)" stroke="rgb(0,0,0)" stroke-width="1" opacity="0.7647058823529411" d="M 55.5 344 L 56 347.5 L 55 347.5 L 55.5 344 Z " /><path fill="rgb(0,0,0)" stroke="rgb(0,0,0)" stroke-width="1" opacity="0.7647058823529411" d="M 223.5 344 L 226.5 348 L 223.5 344 Z " /><path fill="rgb(0,0,0)" stroke="rgb(0,0,0)" stroke-width="1" opacity="0.7647058823529411" d="M 288.5 344 L 285.5 348 L 288.5 344 Z " /><path fill="rgb(0,0,0)" stroke="rgb(0,0,0)" stroke-width="1" opacity="0.7647058823529411" d="M 228.5 348 L 229.5 350 L 228.5 348 Z " /><path fill="rgb(0,0,0)" stroke="rgb(0,0,0)" stroke-width="1" opacity="0.7647058823529411" d="M 231.5 350 L 232.5 352 L 231.5 350 Z " /><path fill="rgb(0,0,0)" stroke="rgb(0,0,0)" stroke-width="1" opacity="0.7647058823529411" d="M 280.5 350 L 279.5 352 L 280.5 350 Z " /><path fill="rgb(0,0,0)" stroke="rgb(0,0,0)" stroke-width="1" opacity="0.7647058823529411" d="M 324.5 350 L 323.5 352 L 324.5 350 Z " /><path fill="rgb(0,0,0)" stroke="rgb(0,0,0)" stroke-width="1" opacity="0.7647058823529411" d="M 86.5 351 L 87 354.5 L 86 354.5 L 86.5 351 Z " /><path fill="rgb(0,0,0)" stroke="rgb(0,0,0)" stroke-width="1" opacity="0.7647058823529411" d="M 425.5 351 L 426 354.5 L 425 354.5 L 425.5 351 Z " /><path fill="rgb(0,0,0)" stroke="rgb(0,0,0)" stroke-width="1" opacity="0.7647058823529411" d="M 457.5 351 L 458 354.5 L 457 354.5 L 457.5 351 Z " /><path fill="rgb(0,0,0)" stroke="rgb(0,0,0)" stroke-width="1" opacity="0.7647058823529411" d="M 54.5 352 L 55 355.5 L 54 355.5 L 54.5 352 Z " /><path fill="rgb(0,0,0)" stroke="rgb(0,0,0)" stroke-width="1" opacity="0.7647058823529411" d="M 191.5 356 L 192.5 358 L 191.5 356 Z " /><path fill="rgb(0,0,0)" stroke="rgb(0,0,0)" stroke-width="1" opacity="0.7647058823529411" d="M 245.5 356 L 248 356.5 L 245.5 357 L 245.5 356 Z " /><path fill="rgb(0,0,0)" stroke="rgb(0,0,0)" stroke-width="1" opacity="0.7647058823529411" d="M 264.5 356 L 267 356.5 L 264.5 357 L 264.5 356 Z " /><path fill="rgb(0,0,0)" stroke="rgb(0,0,0)" stroke-width="1" opacity="0.7647058823529411" d="M 320.5 356 L 319.5 358 L 320.5 356 Z " /><path fill="rgb(0,0,0)" stroke="rgb(0,0,0)" stroke-width="1" opacity="0.7647058823529411" d="M 252.5 357 L 260 357.5 L 252.5 358 L 252.5 357 Z " /><path fill="rgb(0,0,0)" stroke="rgb(0,0,0)" stroke-width="1" opacity="0.7647058823529411" d="M 85.5 359 L 86 362.5 L 85 362.5 L 85.5 359 Z " /><path fill="rgb(0,0,0)" stroke="rgb(0,0,0)" stroke-width="1" opacity="0.7647058823529411" d="M 426.5 359 L 427 362.5 L 426 362.5 L 426.5 359 Z " /><path fill="rgb(0,0,0)" stroke="rgb(0,0,0)" stroke-width="1" opacity="0.7647058823529411" d="M 458.5 359 L 459 362.5 L 458 362.5 L 458.5 359 Z " /><path fill="rgb(0,0,0)" stroke="rgb(0,0,0)" stroke-width="1" opacity="0.7647058823529411" d="M 53.5 360 L 54 363.5 L 53 363.5 L 53.5 360 Z " /><path fill="rgb(0,0,0)" stroke="rgb(0,0,0)" stroke-width="1" opacity="0.7647058823529411" d="M 194.5 360 L 204.5 371 L 194.5 360 Z " /><path fill="rgb(0,0,0)" stroke="rgb(0,0,0)" stroke-width="1" opacity="0.7647058823529411" d="M 317.5 360 L 307.5 371 L 317.5 360 Z " /><path fill="rgb(0,0,0)" stroke="rgb(0,0,0)" stroke-width="1" opacity="0.7647058823529411" d="M 427.5 366 L 428 370.5 L 427 370.5 L 427.5 366 Z " /><path fill="rgb(0,0,0)" stroke="rgb(0,0,0)" stroke-width="1" opacity="0.7647058823529411" d="M 84.5 367 L 85 370.5 L 84 370.5 L 84.5 367 Z " /><path fill="rgb(0,0,0)" stroke="rgb(0,0,0)" stroke-width="1" opacity="0.7647058823529411" d="M 459.5 367 L 460 370.5 L 459 370.5 L 459.5 367 Z " /><path fill="rgb(0,0,0)" stroke="rgb(0,0,0)" stroke-width="1" opacity="0.7647058823529411" d="M 52.5 368 L 53 371.5 L 52 371.5 L 52.5 368 Z " /><path fill="rgb(0,0,0)" stroke="rgb(0,0,0)" stroke-width="1" opacity="0.7647058823529411" d="M 207.5 372 L 208.5 374 L 207.5 372 Z " /><path fill="rgb(0,0,0)" stroke="rgb(0,0,0)" stroke-width="1" opacity="0.7647058823529411" d="M 304.5 372 L 302.5 375 L 304.5 372 Z " /><path fill="rgb(0,0,0)" stroke="rgb(0,0,0)" stroke-width="1" opacity="0.7647058823529411" d="M 428.5 374 L 429 377.5 L 428 377.5 L 428.5 374 Z " /><path fill="rgb(0,0,0)" stroke="rgb(0,0,0)" stroke-width="1" opacity="0.7647058823529411" d="M 83.5 375 L 84 378.5 L 83 378.5 L 83.5 375 Z " /><path fill="rgb(0,0,0)" stroke="rgb(0,0,0)" stroke-width="1" opacity="0.7647058823529411" d="M 211.5 375 L 212.5 377 L 211.5 375 Z " /><path fill="rgb(0,0,0)" stroke="rgb(0,0,0)" stroke-width="1" opacity="0.7647058823529411" d="M 300.5 375 L 299.5 377 L 300.5 375 Z " /><path fill="rgb(0,0,0)" stroke="rgb(0,0,0)" stroke-width="1" opacity="0.7647058823529411" d="M 460.5 375 L 461 378.5 L 460 378.5 L 460.5 375 Z " /><path fill="rgb(0,0,0)" stroke="rgb(0,0,0)" stroke-width="1" opacity="0.7647058823529411" d="M 51.5 376 L 52 379.5 L 51 379.5 L 51.5 376 Z " /><path fill="rgb(0,0,0)" stroke="rgb(0,0,0)" stroke-width="1" opacity="0.7647058823529411" d="M 216.5 378 L 217.5 380 L 216.5 378 Z " /><path fill="rgb(0,0,0)" stroke="rgb(0,0,0)" stroke-width="1" opacity="0.7647058823529411" d="M 295.5 378 L 294.5 380 L 295.5 378 Z " /><path fill="rgb(0,0,0)" stroke="rgb(0,0,0)" stroke-width="1" opacity="0.7647058823529411" d="M 429.5 382 L 430 385.5 L 429 385.5 L 429.5 382 Z " /><path fill="rgb(0,0,0)" stroke="rgb(0,0,0)" stroke-width="1" opacity="0.7647058823529411" d="M 82.5 383 L 83 386.5 L 82 386.5 L 82.5 383 Z " /><path fill="rgb(0,0,0)" stroke="rgb(0,0,0)" stroke-width="1" opacity="0.7647058823529411" d="M 461.5 383 L 462 386.5 L 461 386.5 L 461.5 383 Z " /><path fill="rgb(0,0,0)" stroke="rgb(0,0,0)" stroke-width="1" opacity="0.7647058823529411" d="M 50.5 384 L 51 387.5 L 50 387.5 L 50.5 384 Z " /><path fill="rgb(0,0,0)" stroke="rgb(0,0,0)" stroke-width="1" opacity="0.7647058823529411" d="M 244.5 388 L 248 388.5 L 244.5 389 L 244.5 388 Z " /><path fill="rgb(0,0,0)" stroke="rgb(0,0,0)" stroke-width="1" opacity="0.7647058823529411" d="M 264.5 388 L 268 388.5 L 264.5 389 L 264.5 388 Z " /><path fill="rgb(0,0,0)" stroke="rgb(0,0,0)" stroke-width="1" opacity="0.7647058823529411" d="M 430.5 390 L 431 393.5 L 430 393.5 L 430.5 390 Z " /><path fill="rgb(0,0,0)" stroke="rgb(0,0,0)" stroke-width="1" opacity="0.7647058823529411" d="M 81.5 391 L 82 394.5 L 81 394.5 L 81.5 391 Z " /><path fill="rgb(0,0,0)" stroke="rgb(0,0,0)" stroke-width="1" opacity="0.7647058823529411" d="M 462.5 391 L 463 394.5 L 462 394.5 L 462.5 391 Z " /><path fill="rgb(0,0,0)" stroke="rgb(0,0,0)" stroke-width="1" opacity="0.7647058823529411" d="M 49.5 392 L 50 395.5 L 49 395.5 L 49.5 392 Z " /><path fill="rgb(0,0,0)" stroke="rgb(0,0,0)" stroke-width="1" opacity="0.7647058823529411" d="M 431.5 398 L 432 401.5 L 431 401.5 L 431.5 398 Z " /><path fill="rgb(0,0,0)" stroke="rgb(0,0,0)" stroke-width="1" opacity="0.7647058823529411" d="M 80.5 399 L 81 402.5 L 80 402.5 L 80.5 399 Z " /><path fill="rgb(0,0,0)" stroke="rgb(0,0,0)" stroke-width="1" opacity="0.7647058823529411" d="M 463.5 399 L 464 410.5 L 463 410.5 L 463.5 399 Z " /><path fill="rgb(0,0,0)" stroke="rgb(0,0,0)" stroke-width="1" opacity="0.7647058823529411" d="M 48.5 400 L 49 403.5 L 48 403.5 L 48.5 400 Z " /><path fill="rgb(0,0,0)" stroke="rgb(0,0,0)" stroke-width="1" opacity="0.7647058823529411" d="M 48.5 409 L 49 413.5 L 48 413.5 L 48.5 409 Z " /><path fill="rgb(0,0,0)" stroke="rgb(0,0,0)" stroke-width="1" opacity="0.7647058823529411" d="M 83.5 419 L 84.5 421 L 83.5 419 Z " /><path fill="rgb(0,0,0)" stroke="rgb(0,0,0)" stroke-width="1" opacity="0.7647058823529411" d="M 427.5 420 L 426.5 422 L 427.5 420 Z " /><path fill="rgb(0,0,0)" stroke="rgb(0,0,0)" stroke-width="1" opacity="0.7647058823529411" d="M 85.5 422 L 88.5 426 L 85.5 422 Z " /><path fill="rgb(0,0,0)" stroke="rgb(0,0,0)" stroke-width="1" opacity="0.7647058823529411" d="M 421.5 426 L 420.5 428 L 421.5 426 Z " /><path fill="rgb(0,0,0)" stroke="rgb(0,0,0)" stroke-width="1" opacity="0.7647058823529411" d="M 58.5 438 L 59.5 440 L 58.5 438 Z " /><path fill="rgb(0,0,0)" stroke="rgb(0,0,0)" stroke-width="1" opacity="0.7647058823529411" d="M 452.5 439 L 451.5 441 L 452.5 439 Z " /><path fill="rgb(0,0,0)" stroke="rgb(0,0,0)" stroke-width="1" opacity="0.7647058823529411" d="M 60.5 441 L 64.5 446 L 60.5 441 Z " /><path fill="rgb(0,0,0)" stroke="rgb(0,0,0)" stroke-width="1" opacity="0.7647058823529411" d="M 449.5 443 L 442.5 451 L 449.5 443 Z " /><path fill="rgb(0,0,0)" stroke="rgb(0,0,0)" stroke-width="1" opacity="0.7647058823529411" d="M 66.5 447 L 70.5 452 L 66.5 447 Z " /><path fill="rgb(0,0,0)" stroke="rgb(0,0,0)" stroke-width="1" opacity="0.7647058823529411" d="M 72.5 452 L 73.5 454 L 72.5 452 Z " /><path fill="rgb(0,0,0)" stroke="rgb(0,0,0)" stroke-width="1" opacity="0.7647058823529411" d="M 439.5 452 L 438.5 454 L 439.5 452 Z " /><path fill="rgb(0,0,0)" stroke="rgb(0,0,0)" stroke-width="1" opacity="0.7647058823529411" d="M 75.5 454 L 76.5 456 L 75.5 454 Z " /><path fill="rgb(0,0,0)" stroke="rgb(0,0,0)" stroke-width="1" opacity="0.7647058823529411" d="M 436.5 454 L 435.5 456 L 436.5 454 Z " /><path fill="rgb(0,0,0)" stroke="rgb(0,0,0)" stroke-width="1" opacity="0.7647058823529411" d="M 98.5 463 L 103 463.5 L 98.5 464 L 98.5 463 Z " /><path fill="rgb(0,0,0)" stroke="rgb(0,0,0)" stroke-width="1" opacity="0.7647058823529411" d="M 409.5 463 L 414 463.5 L 409.5 464 L 409.5 463 Z " /><path fill="rgb(0,0,0)" stroke="rgb(0,0,0)" stroke-width="1" opacity="1" d="M 188.5 48 L 323.5 48 L 324.5 49 L 339.5 49 L 340.5 50 L 358.5 52 Q 388.4 58.6 411.5 72 Q 439.5 88 460 111.5 Q 482.1 135.9 495 169.5 L 499 181.5 L 505 209.5 L 506 239.5 L 499.5 248 L 495.5 250 L 445 250 L 445 258.5 L 446 259.5 L 446 266.5 L 447 267.5 L 447 274.5 L 448 275.5 L 448 282.5 L 449 283.5 L 449 290.5 L 450 291.5 L 450 298.5 L 451 299.5 L 451 306.5 L 452 307.5 L 452 314.5 L 453 315.5 L 453 322.5 L 454 323.5 L 454 330.5 L 455 331.5 L 455 338.5 L 456 339.5 L 456 346.5 L 457 347.5 L 457 354.5 L 458 355.5 L 458 362.5 L 459 363.5 L 459 370.5 L 460 371.5 L 460 378.5 L 463 395.5 L 463 414.5 Q 457.8 439.3 440.5 452 L 426.5 460 L 408.5 464 L 103.5 464 L 85.5 460 L 65 447 L 57 436.5 L 52 426.5 L 49 416.5 L 48 404.5 L 49 403.5 L 49 396.5 L 50 395.5 L 50 388.5 L 51 387.5 L 51 380.5 L 52 379.5 L 52 372.5 L 53 371.5 L 53 364.5 L 54 363.5 L 54 356.5 L 55 355.5 L 55 348.5 L 56 347.5 L 56 340.5 L 57 339.5 L 57 332.5 L 58 331.5 L 58 324.5 L 59 323.5 L 59 316.5 L 60 315.5 L 64 276.5 L 65 275.5 L 65 268.5 L 66 267.5 L 66 260.5 L 67 259.5 L 67 252.5 L 68 251.5 L 66.5 250 L 16.5 250 L 8 243.5 L 6 239.5 L 6 218.5 L 7 217.5 L 7 209.5 L 9 202.5 L 9 197.5 L 13 181.5 Q 19 162 28 145.5 Q 44.8 115.8 69.5 94 Q 92.6 73.6 123.5 61 L 153.5 52 L 171.5 50 L 172.5 49 L 187.5 49 L 188.5 48 Z M 177 80 L 154 84 L 131 92 Q 106 102 89 119 Q 69 136 56 160 L 43 191 L 38 214 Q 37 219 39 219 L 134 219 L 134 183 Q 137 165 147 155 Q 160 139 183 134 L 330 134 Q 347 137 358 147 Q 373 160 378 184 L 378 219 L 474 219 L 471 198 L 462 172 Q 452 149 436 132 Q 405 95 350 82 L 337 81 L 336 80 L 177 80 Z M 188 165 L 175 171 Q 168 177 165 188 L 165 238 L 161 246 L 154 250 L 99 250 L 97 271 L 96 272 L 96 279 L 95 280 L 95 287 L 94 288 L 94 295 L 93 296 L 93 303 L 92 304 L 92 311 L 91 312 L 91 319 L 90 320 L 90 327 L 89 328 L 89 335 L 88 336 L 88 343 L 87 344 L 87 351 L 86 352 L 86 359 L 85 360 L 85 367 L 84 368 L 84 375 L 83 376 L 83 383 L 82 384 L 82 391 L 81 392 L 81 399 L 80 400 Q 78 416 85 423 Q 91 429 101 432 L 412 432 L 421 428 Q 429 422 432 412 L 432 399 L 431 398 L 431 391 L 430 390 L 430 383 L 429 382 L 427 360 L 426 359 L 426 352 L 425 351 L 425 344 L 424 343 L 424 336 L 423 335 L 423 328 L 422 327 L 422 320 L 421 319 L 421 312 L 420 311 L 420 304 L 419 303 L 419 296 L 418 295 L 418 288 L 417 287 L 417 280 L 416 279 L 416 272 L 415 271 L 413 250 L 359 250 L 351 246 L 347 238 L 347 188 L 341 175 Q 335 168 325 165 L 188 165 Z " /><path fill="rgb(0,0,0)" stroke="rgb(0,0,0)" stroke-width="1" opacity="1" d="M 245.5 230 L 266.5 230 L 285.5 235 Q 303.9 242.6 316 256.5 Q 325.6 266.9 331 281.5 L 335 296.5 L 336 313.5 L 332 334.5 L 325 349.5 Q 317.4 362.9 305.5 372 Q 293.2 382.2 275.5 387 L 264.5 388 L 263.5 389 L 248.5 389 L 247.5 388 L 236.5 387 L 218.5 380 Q 203.4 371.6 193 358.5 Q 184.7 348.3 180 334.5 L 177 322.5 L 176 305.5 L 177 304.5 L 178 291.5 L 183 276.5 Q 190.4 260.9 202.5 250 Q 218.4 234.4 245.5 230 Z M 250 261 L 239 264 L 221 275 L 213 287 L 208 301 L 208 318 L 209 323 L 218 340 L 233 352 L 246 357 Q 251 356 253 358 L 267 357 Q 278 354 286 348 Q 300 338 304 318 L 304 301 Q 302 288 295 281 Q 287 269 274 264 L 263 261 L 250 261 Z " /></svg>