<?xml version="1.0" encoding="UTF-8"?>
<svg id="_圖層_2" data-name="圖層 2" xmlns="http://www.w3.org/2000/svg" viewBox="0 0 255.53 153.07">
  <defs>
    <style>
      .cls-1 {
        fill: #fff;
      }

      .cls-1, .cls-2, .cls-3, .cls-4 {
        fill-rule: evenodd;
      }

      .cls-2 {
        fill: #d5ead8;
      }

      .cls-5 {
        letter-spacing: -.01em;
      }

      .cls-3 {
        fill: #004b9b;
      }

      .cls-6 {
        letter-spacing: 0em;
      }

      .cls-7 {
        letter-spacing: 0em;
      }

      .cls-8 {
        fill: #231815;
      }

      .cls-9 {
        letter-spacing: .04em;
      }

      .cls-4, .cls-10 {
        fill: #098d44;
      }

      .cls-11 {
        letter-spacing: -.07em;
      }

      .cls-12 {
        letter-spacing: -.05em;
      }

      .cls-10 {
        font-family: MicrosoftYaHei, 'Microsoft YaHei';
        font-size: 7px;
      }
    </style>
  </defs>
  <g id="_图层_1" data-name="图层 1">
    <path class="cls-2" d="M.42,0h239.81c8.42,0,15.31,6.89,15.31,15.31v137.76H15.72c-8.42,0-15.31-6.89-15.31-15.31V0H.42Z"/>
    <path class="cls-1" d="M.42,0h239.81c8.42,0,15.31,6.89,15.31,15.31v51.37H.42V0H.42Z"/>
    <path class="cls-4" d="M.03,87.23h53.42v1H0v-.9c0-.05.01-.1.03-.1H.03ZM207.87,87.23h47.25v.9c0,.06-.01.1-.03.1h-47.22v-1h0Z"/>
    <path class="cls-4" d="M46,37.04h6.3s.67-2.76.67-2.76h-1.4c.35-.52,2.42-1.68,3.14-1.96,1.19-.47,2.61-.9,4.25-.9h.56c2.42,0,4.73.89,6.19,1.86.91.61,1.44,1.06,2.2,1.82.37.37,1.59,1.83,1.72,2.3.88,0,1.68.36,2.28.67.37.19.53.4.83.62.31.23.51.62.73.77-.09-1.05-1.37-3.39-1.86-4.17-.63-1-1.92-2.5-2.85-3.19-1.39-1.04-2.04-1.51-3.73-2.3-1.11-.52-3.35-1.14-4.94-1.14h-1.59c-2.78,0-6.15,1.48-7.73,2.7-2.11,1.62-3.55,3.16-4.76,5.67h0ZM50.9,42.57h-6.3s0,1.35,0,1.35c0,4.03,2.17,7.72,4.2,9.74,1.24,1.24,2.4,2.09,4.05,2.92,1.24.62,3.66,1.47,5.46,1.47h1.78c1.62,0,3.85-.63,4.97-1.15,1.69-.79,2.36-1.29,3.76-2.33.98-.73,2.15-2.2,2.83-3.25.37-.57.82-1.31,1.07-1.97.19-.49.74-1.7.79-2.25-.09.06-.6.62-.74.76-.19.2-.62.51-.85.64-.46.27-1.54.75-2.25.75-1.26,1.88-1.99,2.86-3.91,4.14-1.44.96-3.77,1.9-6.15,1.9h-.75c-2.94,0-6.13-1.6-7.59-3.08-.89-.9-1.77-1.79-2.38-2.96-.43-.83-1.38-2.77-1.4-3.93h2.7s.7-2.75.7-2.75h0ZM44.68,41.19h6.47c.23.01.37-1.1.43-1.33.08-.32.34-1.14.36-1.41h-6.58s-.68,2.75-.68,2.75h0Z"/>
    <path class="cls-3" d="M51.85,41.2h4.73c2.95,0,.43,3.56,3.42,3.56h3.84c.21,0,.38-1.12.43-1.35.12-.47.25-.98.37-1.46h-4.68c-3.06,0-.42-3.51-3.42-3.51h-3.96s-.72,2.76-.72,2.76h0ZM62.68,49.77h-5.35s-.66,2.75-.66,2.75h5.3s.71-2.75.71-2.75h0ZM52.91,37.03h.11s4.49,0,4.49,0c.74,0,1.41.34,1.64.88.25.57.14,1.58.41,2.07.52.94,2.93.61,4.35.61,1.67,0,3.34,0,5.01,0,1.37,0,2.34,1.22,2.34,2.62,0,1.68-1.14,2.9-2.85,2.9h-9.22c-3.72,0-.43-3.56-3.88-3.56h-3.7c-.21,0-.37,1.12-.43,1.35-.07.3-.25,1.18-.36,1.41,1.41,0,4.55-.19,5.51.19,1.62.64.17,3.36,2.3,3.36h10.29c1.26,0,3-.93,3.54-1.66.69-.93,1.52-2.09,1.52-3.68v-.94c0-1.73-1.1-3.29-2.17-4.01-1.47-.98-3.07-.77-5.41-.77-1.17,0-5.35.12-6.07-.1-2-.62-.11-3.45-2.67-3.45h-4.06s-.69,2.76-.69,2.76h0Z"/>
    <path class="cls-8" d="M81.62,36.19h6.69v3.64h-.67v-.36h-5.35v.36h-.67v-3.64h0ZM86.73,40.06h.69v1.78h1.99v.64h-1.99v2.2h-.69v-2.2h-2.98c-.18,1.22-1.07,1.99-2.69,2.33-.12-.21-.27-.42-.45-.64,1.44-.26,2.25-.82,2.42-1.69h-2.53v-.64h2.58c.01-.24.02-.55.03-.93-.59.05-1.18.11-1.77.16-.04-.21-.09-.42-.16-.64,1.46-.09,2.86-.22,4.2-.37l.17.6c-.59.06-1.17.12-1.74.18,0,.39-.02.73-.03,1h2.94v-1.78h0ZM87.64,36.81h-5.35v.71h5.35v-.71h0ZM82.29,38.85h5.35v-.71h-5.35v.71h0ZM93.49,39.93h5.86v.58h-4.1c-.15.25-.29.48-.45.69h4.16c-.02.91-.05,1.63-.08,2.16-.03.86-.44,1.29-1.23,1.29-.26,0-.57-.01-.95-.04-.02-.29-.06-.52-.1-.72.43.07.76.1,1,.1.38,0,.59-.24.62-.72.02-.32.04-.82.07-1.5h-.71c-.38,1.3-1.06,2.29-2.05,2.95-.21-.25-.37-.42-.48-.53.92-.6,1.54-1.41,1.88-2.43h-.99c-.53,1.12-1.29,1.95-2.3,2.5-.12-.16-.27-.36-.47-.58.96-.44,1.67-1.08,2.11-1.92h-.95c-.23.27-.47.49-.71.67-.06-.08-.16-.18-.28-.31-.12.44-.4.71-.84.81-.19.04-.46.05-.79,0-.01-.05-.07-.31-.18-.77.24.07.49.09.75.07.4-.05.54-.48.4-1.26-.11-.61-.35-1.15-.73-1.64.26-.76.52-1.59.76-2.47h-1.27v7.9h-.68v-8.53h2.68v.64c-.15.47-.4,1.26-.78,2.36.38.55.61,1.14.7,1.76.04.3.05.56.03.79.41-.35.79-.78,1.14-1.28h-1.05v-.58h0ZM94.16,36.2h4.46v3.27h-.65v-.25h-3.15v.31h-.66v-3.32h0ZM97.96,36.78h-3.15v.66h3.15v-.66h0ZM94.81,38.64h3.15v-.65h-3.15v.65h0ZM100.37,39.95h3.97v-1.94h-2.18c-.3.6-.62,1.12-.96,1.56-.22-.18-.42-.31-.59-.42.68-.88,1.21-1.93,1.58-3.16l.71.2c-.14.4-.28.78-.43,1.14h1.87v-1.55h.75v1.55h3.38v.67h-3.38v1.94h4v.67h-2.93v2.57c-.04.47.17.68.63.64h.93c.42,0,.65-.16.69-.47.04-.31.08-.75.1-1.33.23.1.49.19.76.27-.03.45-.08.91-.16,1.39-.06.3-.19.52-.4.64-.18.12-.51.17-.98.17h-1.08c-.85.04-1.26-.36-1.22-1.19v-2.69h-1.78c-.05,1.05-.26,1.85-.63,2.42-.45.71-1.26,1.27-2.44,1.71-.12-.19-.28-.41-.46-.65,1.08-.37,1.82-.85,2.23-1.43.33-.45.53-1.13.58-2.05h-2.55v-.67h0ZM112.09,38.97c.79-.78,1.49-1.82,2.09-3.12l.64.25c-.22.44-.46.85-.71,1.25h4.59v.62h-2.19v.99h1.96v.6h-1.96v.99h1.96v.6h-1.96v1.03h2.35v.62h-5.04v.5h-.66v-4.54c-.22.29-.44.56-.66.82-.13-.22-.26-.43-.41-.62h0ZM113.66,43.82c1.82.04,3.63.03,5.42-.04-.07.2-.15.44-.25.72-1.88.02-3.64.02-5.28-.03-.97-.02-1.66-.38-2.07-1.07-.29.3-.65.71-1.08,1.23l-.37-.68c.39-.43.78-.83,1.17-1.21v-3.04h-1.1v-.66h1.78v3.86c.36.59.96.9,1.78.91h0ZM113.82,42.19h2.04v-1.03h-2.04v1.03h0ZM113.82,40.56h2.04v-.99h-2.04v.99h0ZM113.82,38.97h2.04v-.99h-2.04v.99h0ZM111.1,36.07c.45.65.81,1.18,1.06,1.58l-.62.36c-.3-.55-.63-1.09-.99-1.63l.55-.32h0ZM115.43,36.19l.57-.35c.31.39.57.74.79,1.05l-.61.38c-.24-.38-.49-.74-.75-1.08h0ZM121.16,44.63h-.71v-5.37h3.69v4.3c0,.66-.3.98-.91.98-.27,0-.61,0-1.03,0-.03-.19-.07-.42-.13-.69.38.03.69.04.92.04.3,0,.45-.16.45-.46v-.75h-2.27v1.94h0ZM125.02,40.24h.71v1.5c.86-.32,1.76-.74,2.7-1.26l.41.63c-.99.52-2.03.98-3.11,1.39v.79c0,.38.15.57.45.57h1.34c.31,0,.49-.15.54-.45.04-.27.08-.66.11-1.19.23.09.47.18.71.25-.05.53-.1.94-.15,1.21-.08.53-.46.8-1.14.8h-1.52c-.69,0-1.04-.35-1.04-1.06v-3.17h0ZM125.04,35.8h.71v1.56c.83-.33,1.66-.73,2.48-1.2l.41.63c-.95.48-1.91.92-2.89,1.31v.52c0,.4.16.61.48.61h1.15c.38,0,.6-.16.65-.47.04-.26.08-.64.11-1.14.23.09.47.18.71.26-.05.48-.1.88-.16,1.18-.09.53-.5.79-1.23.79h-1.33c-.73,0-1.1-.36-1.1-1.09v-2.97h0ZM123.36,36.58c.55.72,1.03,1.4,1.44,2.06-.23.16-.44.3-.63.42-.12-.21-.24-.42-.38-.64-1.48.11-2.67.21-3.56.29l-.29-.76c.27-.15.56-.42.88-.82.33-.44.66-.93.98-1.47l.72.26c-.5.73-1.03,1.42-1.59,2.06.91-.06,1.74-.12,2.48-.18-.19-.29-.4-.58-.62-.89l.57-.35h0ZM121.16,42.14h2.27v-.88h-2.27v.88h0ZM123.43,39.84h-2.27v.87h2.27v-.87h0ZM133.91,38.08h1.18c.13-.34.26-.7.38-1.07h-2.3v2.62c0,2.38-.46,4.09-1.4,5.12-.15-.19-.32-.38-.53-.56.84-.93,1.26-2.45,1.26-4.55v-3.25h6.31v.62h-2.55c-.17.36-.34.72-.51,1.07h2.4v3.73h-.66v-.24h-1.17v2.14c0,.65-.32.97-.95.97-.2,0-.47,0-.79,0-.03-.18-.07-.39-.13-.63.3.02.57.04.79.04.28,0,.42-.14.42-.44v-2.07h-1.1v.24h-.66v-3.73h0ZM130.85,40.79c.22.14.43.24.65.31-.25,1.03-.53,2.21-.84,3.54l-.7-.24c.35-1.24.65-2.45.89-3.61h0ZM134.56,40.97h2.93v-.86h-2.93v.86h0ZM137.49,38.68h-2.93v.85h2.93v-.85h0ZM138.79,43.87l-.58.44c-.43-.65-.9-1.28-1.4-1.89l.53-.37c.55.64,1.03,1.25,1.45,1.83h0ZM133.08,43.95c.52-.55.97-1.17,1.38-1.86l.58.36c-.46.73-.94,1.38-1.42,1.93l-.54-.42h0ZM130.22,38.25c.47.34,1.01.75,1.6,1.22-.21.25-.38.45-.52.59-.58-.52-1.1-.95-1.54-1.29l.46-.52h0ZM130.61,35.91c.48.36.97.77,1.48,1.23-.21.2-.39.39-.55.55-.53-.52-.99-.95-1.4-1.28l.46-.5h0ZM140.32,36.25h2.69v7.36c0,.64-.3.96-.88.96-.27,0-.57,0-.89-.02-.02-.17-.05-.39-.11-.67.32.04.6.06.83.06.25,0,.37-.14.37-.42v-2.06h-1.33c-.02,1.45-.29,2.55-.83,3.29-.16-.18-.35-.35-.56-.51.47-.66.71-1.63.71-2.91v-5.09h0ZM143.36,40.65v-.65h4.47v.65c-.35.86-.84,1.62-1.45,2.26.62.43,1.39.77,2.3,1.01-.19.24-.34.48-.46.7-.93-.31-1.72-.72-2.36-1.21-.65.55-1.42,1-2.31,1.36-.18-.29-.32-.5-.44-.63.87-.34,1.61-.73,2.22-1.19-.64-.64-1.09-1.4-1.35-2.29h-.61ZM147.77,38.86c.34,0,.66,0,.95-.03l-.13.68c-.38.01-.71.02-.99.02-.61,0-.92-.35-.92-1.06v-1.57h-1.68v.55c0,1.04-.43,1.85-1.29,2.41-.15-.18-.31-.37-.49-.56.73-.4,1.1-1.02,1.1-1.87v-1.17h3.05v2.19c0,.27.14.41.41.41h0ZM147.06,40.65h-2.39c.24.72.64,1.33,1.19,1.83.55-.54.96-1.15,1.21-1.83h0ZM141,40.86h1.33v-1.72h-1.33v1.72h0ZM142.33,36.85h-1.33v1.69h1.33v-1.69h0ZM152.68,39.66h4.55c0,.08-.05,1.19-.14,3.33-.02,1.04-.5,1.57-1.43,1.58-.5,0-.93,0-1.3-.03-.03-.28-.08-.53-.14-.75.42.05.84.09,1.27.1.59.04.88-.28.89-.98.05-.81.08-1.68.11-2.61h-2.05c-.02.96-.16,1.76-.44,2.39-.33.72-.89,1.4-1.69,2.03-.16-.19-.33-.39-.53-.59.77-.6,1.28-1.18,1.54-1.73.25-.49.39-1.19.41-2.1h-1.06v-.64h0ZM149.48,40.1c.87-1.15,1.57-2.57,2.11-4.27l.71.25c-.29.81-.62,1.56-.96,2.26v6.36h-.69v-5.09c-.28.46-.57.89-.87,1.3-.09-.26-.19-.53-.29-.81h0ZM155.2,36.08l.6-.25c.6,1.54,1.52,2.66,2.77,3.38-.23.27-.4.49-.52.66-1.35-.93-2.31-2.19-2.86-3.78h0ZM151.68,39.53c.95-.83,1.71-1.94,2.29-3.34l.65.25c-.56,1.41-1.36,2.61-2.39,3.59-.22-.23-.4-.39-.55-.5h0ZM161.94,44.71h-.72v-4.71c-.44.51-.92,1.01-1.45,1.48-.13-.21-.27-.43-.44-.66,1.17-.98,2.08-2.06,2.74-3.26h-2.49v-.67h2.83c.17-.38.32-.77.45-1.16l.75.17c-.12.34-.25.67-.4.99h5.14v.67h-5.47c-.19.36-.39.71-.62,1.05h4.99v4.86c0,.75-.37,1.13-1.1,1.13-.32,0-.81,0-1.46,0-.03-.2-.08-.45-.14-.74.56.04,1.01.06,1.35.06.42,0,.63-.21.63-.62v-.65h-4.59v2.06h0ZM161.94,42.03h4.59v-1.09h-4.59v1.09h0ZM166.53,39.24h-4.59v1.08h4.59v-1.08h0ZM173,36.27h4.31v4.53h-.67v-.25h-1.54c.19.54.45,1.04.77,1.47.55-.35,1.12-.77,1.73-1.28l.48.57c-.67.47-1.26.87-1.78,1.2.53.53,1.19.96,1.99,1.28-.22.22-.42.44-.58.66-1.69-.88-2.77-2.19-3.26-3.91h-.78v3.09c.41-.18.94-.45,1.59-.8,0,.28.02.52.04.72-.54.26-1.06.54-1.57.85-.12.07-.28.19-.49.38l-.52-.68c.18-.16.27-.36.27-.6v-7.24h0ZM172.42,41.19c.18,1.16-.11,1.81-.86,1.95-.27.05-.58.06-.92.02-.05-.25-.12-.5-.2-.77.32.08.6.1.84.07.41-.08.55-.51.42-1.3-.09-.48-.36-1.03-.83-1.64.22-.66.5-1.54.86-2.65h-1.35v7.94h-.68v-8.58h2.76v.64c-.3.85-.58,1.7-.85,2.53.48.66.76,1.25.83,1.78h0ZM176.64,39.93v-1.23h-2.97v1.23h2.97ZM176.64,36.89h-2.97v1.21h2.97v-1.21h0ZM185,41.21c.87,1.13,1.61,2.16,2.21,3.09l-.69.45c-.17-.28-.35-.57-.54-.87-2,.1-3.63.2-4.88.3-.23.02-.51.08-.84.15l-.4-.77c.27-.11.52-.27.76-.5.71-.82,1.48-2.03,2.31-3.63l.78.36c-.75,1.29-1.56,2.5-2.41,3.62,1.25-.04,2.67-.1,4.25-.17-.35-.52-.73-1.08-1.14-1.66l.59-.37h0ZM184.22,36.31l.67-.26c.59,1.58,1.68,2.84,3.29,3.76-.16.17-.35.41-.57.71-1.67-1.15-2.8-2.56-3.39-4.21h0ZM179.08,40.08c1.35-1.1,2.36-2.4,3.03-3.9l.72.3c-.82,1.7-1.88,3.1-3.17,4.18-.16-.2-.35-.39-.58-.58h0ZM190,39.79h4.78v3.22h-4.06v.66h-.72v-3.88h0ZM189.62,36.93v-.67h7.86v7.08c0,.86-.39,1.29-1.16,1.29-.44,0-1.03,0-1.79,0-.02-.21-.07-.47-.15-.78.74.04,1.32.06,1.74.06s.63-.24.63-.73v-6.24h-7.11ZM194.06,42.35v-1.91h-3.34v1.91h3.34ZM189.1,38.04h6.93v.67h-6.93v-.67h0Z"/>
    <path class="cls-8" d="M81.31,53.4v-4.69h1.77c.31,0,.55.02.71.04.23.04.42.11.58.22.16.11.28.26.38.45.1.19.14.41.14.64,0,.4-.13.74-.38,1.01-.25.27-.71.41-1.37.41h-1.2v1.9h-.62ZM81.93,50.94h1.21c.4,0,.68-.07.85-.22.17-.15.25-.36.25-.63,0-.2-.05-.36-.15-.5-.1-.14-.23-.23-.39-.28-.1-.03-.3-.04-.58-.04h-1.2v1.67h0ZM86.06,53.4v-4.69h.62v1.92h2.43v-1.92h.62v4.69h-.62v-2.21h-2.43v2.21h-.62ZM90.94,51.12c0-.78.21-1.39.63-1.83.42-.44.96-.66,1.62-.66.43,0,.82.1,1.17.31.35.21.61.5.8.87.18.37.27.79.27,1.26s-.09.9-.29,1.27c-.19.38-.46.66-.82.85-.35.19-.73.29-1.14.29-.44,0-.84-.11-1.18-.32-.35-.21-.61-.5-.79-.87-.18-.37-.27-.76-.27-1.17h0ZM91.58,51.13c0,.56.15,1.01.46,1.33.3.32.69.49,1.14.49s.85-.16,1.15-.49c.3-.33.45-.79.45-1.4,0-.38-.07-.71-.2-1-.13-.28-.32-.51-.56-.66-.25-.16-.53-.23-.84-.23-.44,0-.82.15-1.13.45-.32.3-.47.8-.47,1.51h0ZM96.6,53.4v-4.69h3.39v.55h-2.77v1.43h2.59v.55h-2.59v1.59h2.88v.55h-3.5ZM101.31,53.4v-4.69h.64l2.46,3.68v-3.68h.59v4.69h-.64l-2.46-3.68v3.68h-.59ZM106.51,53.4v-4.69h.62v4.69h-.62ZM108.11,53.4l1.81-2.44-1.6-2.24h.74l.85,1.2c.18.25.3.44.38.57.11-.17.23-.35.37-.53l.94-1.24h.67l-1.65,2.21,1.77,2.48h-.77l-1.18-1.67c-.07-.1-.13-.2-.21-.31-.1.17-.18.29-.22.35l-1.18,1.63h-.75ZM114.79,53.4v-4.69h3.39v.55h-2.77v1.43h2.59v.55h-2.59v1.59h2.88v.55h-3.5ZM119.5,53.4v-4.69h.63l2.46,3.68v-3.68h.59v4.69h-.64l-2.46-3.68v3.68h-.59ZM124.6,53.4v-4.69h3.39v.55h-2.77v1.43h2.59v.55h-2.59v1.59h2.88v.55h-3.5ZM129.33,53.4v-4.69h2.08c.42,0,.74.04.95.13.22.08.39.23.52.44.13.21.19.45.19.71,0,.33-.11.61-.32.84-.21.23-.55.37-1,.44.16.08.29.16.37.23.18.17.35.37.52.62l.81,1.28h-.78l-.62-.98c-.18-.28-.33-.5-.45-.65-.12-.15-.22-.25-.31-.31-.09-.06-.19-.1-.28-.13-.07-.01-.19-.02-.35-.02h-.72v2.08h-.62ZM129.95,50.79h1.33c.28,0,.5-.03.66-.09.16-.06.28-.15.36-.28s.12-.27.12-.42c0-.22-.08-.4-.24-.55-.16-.14-.41-.21-.76-.21h-1.48v1.55h0ZM136.6,51.56v-.55h1.98s0,1.73,0,1.73c-.3.24-.62.43-.94.55-.32.12-.66.18-1,.18-.46,0-.88-.1-1.25-.3-.38-.2-.66-.48-.85-.85-.19-.37-.29-.79-.29-1.25s.1-.88.29-1.28c.19-.4.46-.69.82-.88.36-.19.77-.29,1.24-.29.34,0,.64.05.92.16.27.11.49.26.64.46.16.2.27.45.36.77l-.56.15c-.07-.24-.16-.43-.26-.56-.1-.14-.25-.25-.45-.33-.19-.08-.41-.12-.64-.12-.28,0-.53.04-.74.13-.21.09-.37.2-.5.34-.13.14-.22.29-.29.46-.12.29-.18.6-.18.94,0,.42.07.77.22,1.05.14.28.35.49.63.63.27.14.57.2.87.2.27,0,.53-.05.79-.16.26-.1.45-.21.58-.33v-.87h-1.38ZM141.18,53.4v-1.98l-1.81-2.7h.75l.92,1.41c.17.26.33.53.48.79.14-.25.31-.52.51-.83l.91-1.38h.72l-1.87,2.7v1.98h-.62ZM149.27,51.76l.62.16c-.13.51-.36.9-.7,1.17-.34.27-.75.4-1.24.4s-.92-.1-1.23-.31c-.32-.21-.56-.5-.72-.89-.16-.39-.25-.81-.25-1.26,0-.49.09-.91.28-1.28.19-.36.45-.64.8-.83.34-.19.72-.28,1.13-.28.47,0,.86.12,1.18.36.32.24.54.57.67,1.01l-.61.14c-.11-.34-.27-.59-.47-.75-.21-.16-.47-.23-.78-.23-.36,0-.66.09-.9.26-.24.17-.41.4-.51.7-.1.29-.15.59-.15.9,0,.4.06.75.17,1.04.12.3.3.52.54.67.25.15.51.22.8.22.35,0,.64-.1.88-.3.24-.2.4-.5.49-.89h0ZM150.83,51.12c0-.78.21-1.39.63-1.83.42-.44.96-.66,1.62-.66.43,0,.82.1,1.17.31.35.21.61.5.79.87.18.37.27.79.27,1.26s-.1.9-.29,1.27c-.19.38-.46.66-.82.85-.35.19-.73.29-1.14.29-.44,0-.84-.11-1.18-.32-.35-.21-.61-.5-.79-.87-.18-.37-.27-.76-.27-1.17h0ZM151.47,51.13c0,.56.15,1.01.46,1.33.3.32.69.49,1.14.49s.85-.16,1.15-.49c.3-.33.45-.79.45-1.4,0-.38-.07-.71-.19-1-.13-.28-.32-.51-.57-.66-.25-.16-.53-.23-.83-.23-.44,0-.82.15-1.13.45-.32.3-.47.8-.47,1.51h0ZM156.48,53.4v-4.69h2.08c.42,0,.73.04.95.13.22.08.39.23.52.44.13.21.19.45.19.71,0,.33-.11.61-.32.84-.21.23-.55.37-1,.44.16.08.29.16.37.23.18.17.35.37.51.62l.81,1.28h-.78l-.62-.98c-.18-.28-.33-.5-.45-.65-.12-.15-.22-.25-.31-.31-.09-.06-.19-.1-.28-.13-.07-.01-.19-.02-.35-.02h-.72v2.08h-.62ZM157.1,50.79h1.33c.28,0,.5-.03.66-.09.16-.06.28-.15.37-.28.08-.13.12-.27.12-.42,0-.22-.08-.4-.24-.55-.16-.14-.41-.21-.76-.21h-1.48v1.55h0ZM161.56,53.4v-4.69h1.77c.31,0,.55.02.71.04.23.04.42.11.58.22.16.11.28.26.38.45.09.19.14.41.14.64,0,.4-.13.74-.38,1.01-.25.27-.71.41-1.38.41h-1.2v1.9h-.62ZM162.18,50.94h1.21c.4,0,.69-.07.85-.22.17-.15.25-.36.25-.63,0-.2-.05-.36-.15-.5-.1-.14-.23-.23-.39-.28-.1-.03-.3-.04-.58-.04h-1.2v1.67h0ZM166.1,51.12c0-.78.21-1.39.63-1.83.42-.44.96-.66,1.62-.66.43,0,.82.1,1.17.31.35.21.61.5.79.87.18.37.27.79.27,1.26s-.1.9-.29,1.27c-.19.38-.46.66-.82.85-.35.19-.73.29-1.14.29-.44,0-.84-.11-1.18-.32-.35-.21-.61-.5-.79-.87-.18-.37-.27-.76-.27-1.17h0ZM166.74,51.13c0,.56.15,1.01.46,1.33.3.32.69.49,1.14.49s.85-.16,1.15-.49c.3-.33.45-.79.45-1.4,0-.38-.07-.71-.19-1-.13-.28-.32-.51-.57-.66-.25-.16-.53-.23-.84-.23-.44,0-.82.15-1.13.45-.32.3-.47.8-.47,1.51h0ZM171.76,53.4v-4.69h2.08c.42,0,.73.04.95.13.22.08.39.23.52.44.13.21.19.45.19.71,0,.33-.11.61-.32.84-.21.23-.55.37-1,.44.16.08.29.16.37.23.18.17.35.37.52.62l.81,1.28h-.78l-.62-.98c-.18-.28-.33-.5-.45-.65-.12-.15-.22-.25-.31-.31-.09-.06-.19-.1-.28-.13-.07-.01-.19-.02-.35-.02h-.72v2.08h-.62ZM172.38,50.79h1.33c.28,0,.5-.03.66-.09.16-.06.28-.15.37-.28.08-.13.12-.27.12-.42,0-.22-.08-.4-.24-.55-.16-.14-.41-.21-.76-.21h-1.48v1.55h0ZM176.32,53.4l1.8-4.69h.67l1.92,4.69h-.71l-.55-1.42h-1.96l-.51,1.42h-.66ZM177.67,51.48h1.59l-.49-1.3c-.15-.39-.26-.72-.33-.97-.06.3-.14.6-.25.9l-.51,1.37h0ZM182.27,53.4v-4.13h-1.54v-.55h3.71v.55h-1.55v4.13h-.62ZM185.55,53.4v-4.69h.62v4.69h-.62ZM187.44,51.12c0-.78.21-1.39.63-1.83.42-.44.96-.66,1.62-.66.43,0,.82.1,1.17.31.35.21.61.5.79.87.18.37.27.79.27,1.26s-.09.9-.29,1.27c-.19.38-.46.66-.82.85-.35.19-.73.29-1.14.29-.44,0-.84-.11-1.18-.32-.35-.21-.61-.5-.79-.87-.18-.37-.27-.76-.27-1.17h0ZM188.08,51.13c0,.56.15,1.01.46,1.33.3.32.69.49,1.14.49s.85-.16,1.15-.49c.3-.33.45-.79.45-1.4,0-.38-.07-.71-.2-1-.13-.28-.32-.51-.56-.66-.25-.16-.53-.23-.84-.23-.44,0-.82.15-1.13.45-.32.3-.47.8-.47,1.51h0ZM193.07,53.4v-4.69h.63l2.46,3.68v-3.68h.59v4.69h-.64l-2.46-3.68v3.68h-.59Z"/>
    <text class="cls-10" transform="translate(69.15 89.85)"><tspan x="0" y="0">https://ww</tspan><tspan class="cls-12" x="35.96" y="0">w</tspan><tspan x="41.11" y="0">.phoenix</tspan><tspan class="cls-5" x="69.72" y="0">b</tspan><tspan x="74.09" y="0">at</tspan><tspan class="cls-6" x="80.57" y="0">t</tspan><tspan x="83.12" y="0">e</tspan><tspan class="cls-9" x="87.09" y="0">r</tspan><tspan class="cls-11" x="90.07" y="0">y</tspan><tspan class="cls-7" x="93.3" y="0">.com.tw</tspan></text>
  </g>
</svg>